<svg width="375" height="100" viewBox="0 0 375 100" fill="none" xmlns="http://www.w3.org/2000/svg">
<g clip-path="url(#clip0_617_981)">
<rect width="375" height="100" fill="#10E2B0"/>
<rect width="375" height="100" fill="white" fill-opacity="0.8"/>
<path d="M0 138V-70L207 138C176.898 138 33.5838 138 0 138Z" fill="#BCF0E4"/>
<g clip-path="url(#clip1_617_981)">
<g opacity="0.8">
<path opacity="0.5" d="M107.802 88.5219C110.128 90.493 18.8528 90.493 21.1805 88.5219C18.8528 86.5519 110.128 86.5519 107.802 88.5219Z" fill="#E0EDF8"/>
<g opacity="0.3">
<path opacity="0.8" d="M104.324 48.9185C103.435 100.813 25.5511 100.806 24.6699 48.9164C25.5584 -2.97701 103.443 -2.96862 104.324 48.9185Z" fill="#7ADAC3"/>
<path opacity="0.6" d="M56.6705 65.202C56.1492 95.6079 10.5161 95.6037 10 65.202C10.5203 34.7971 56.1544 34.8023 56.6705 65.202Z" fill="#7ADAC3"/>
<path opacity="0.6" d="M72.3086 65.2021C72.8289 95.6081 118.463 95.6028 118.979 65.2021C118.459 34.7972 72.8247 34.8024 72.3086 65.2021Z" fill="#7ADAC3"/>
<path opacity="0.8" d="M87.0039 41.6511C87.3606 62.483 118.626 62.4798 118.979 41.6511C118.622 20.8193 87.3574 20.8224 87.0039 41.6511Z" fill="#57D0B3"/>
<path opacity="0.8" d="M41.9752 41.6511C41.6186 62.483 10.3535 62.4798 10 41.6511C10.3567 20.8193 41.6217 20.8224 41.9752 41.6511Z" fill="#57D0B3"/>
</g>
</g>
<g opacity="0.4">
<g style="mix-blend-mode:multiply" opacity="0.8">
<path d="M29.8938 65.331C21.2953 65.1768 21.2963 52.5124 29.8938 52.3593C38.4924 52.5135 38.4913 65.1779 29.8938 65.331ZM29.8938 54.8768C24.6332 54.9712 24.6332 62.7201 29.8938 62.8135C35.1545 62.7191 35.1535 54.9702 29.8938 54.8768Z" fill="#9BDBEA"/>
</g>
<g style="mix-blend-mode:multiply" opacity="0.8">
<path d="M99.0276 47.0756C93.7512 46.9812 93.7512 39.2092 99.0276 39.1158C104.304 39.2103 104.303 46.9822 99.0276 47.0756ZM99.0276 40.66C95.7988 40.7176 95.7999 45.4727 99.0276 45.5304C102.256 45.4727 102.255 40.7176 99.0276 40.66Z" fill="#9BDBEA"/>
</g>
<g style="mix-blend-mode:multiply" opacity="0.8">
<path d="M62.1324 31.4319C58.0256 31.3585 58.0267 25.3101 62.1324 25.2377C66.2392 25.3111 66.2382 31.3596 62.1324 31.4319ZM62.1324 26.4965C59.6946 26.5405 59.6956 30.1301 62.1324 30.1732C64.5703 30.1291 64.5692 26.5395 62.1324 26.4965Z" fill="#9BDBEA"/>
</g>
</g>
<g opacity="0.4">
<path d="M98.3906 60.3252C98.1294 60.3252 97.885 60.1647 97.7927 59.9067L96.6692 56.7796C92.3411 58.7737 93.2967 59.2122 91.6509 54.7226C87.3227 56.7167 88.2784 57.1552 86.6325 52.6655C82.3044 54.6596 83.26 55.0981 81.6141 50.6084L78.591 52.0351C77.8567 52.3959 77.2934 51.242 78.0455 50.8979L81.7044 49.1713C82.0295 49.0087 82.4596 49.1829 82.575 49.528L83.6985 52.655C88.0266 50.6609 87.071 50.2224 88.7168 54.7121C93.045 52.7179 92.0893 52.2795 93.7352 56.7691L96.7584 55.3425C97.0836 55.1799 97.5137 55.354 97.629 55.6992L98.9885 59.4829C99.1417 59.8825 98.8175 60.3315 98.3906 60.3242V60.3252Z" fill="#9BDBEA"/>
<path d="M20.2924 43.7439C19.9106 43.7565 19.6662 43.2719 19.9211 42.9761L21.0068 41.6365C21.5029 41.0134 22.2194 42.1872 22.5708 42.4358C23.7037 40.9809 23.602 40.9956 24.8901 42.3026C26.023 40.8477 25.9213 40.8624 27.2094 42.1694C27.5336 41.882 28.1032 40.6347 28.6696 41.197L29.9032 42.4033C30.3501 42.8303 29.6651 43.5111 29.234 43.0757L28.3759 42.2365C27.243 43.6915 27.3447 43.6768 26.0566 42.3698C24.9247 43.8247 25.0254 43.81 23.7373 42.503C22.6054 43.9579 22.7061 43.9432 21.418 42.6362C21.1966 42.8334 20.6553 43.8016 20.2913 43.745L20.2924 43.7439Z" fill="#9BDBEA"/>
<path d="M58.3102 21.3648C58.0931 21.4277 57.2958 20.3525 57.149 20.2445C55.8063 21.7204 56.165 21.712 54.8265 20.2445C53.4838 21.7204 53.8426 21.7131 52.5041 20.2445C52.3499 20.3599 51.5673 21.4193 51.3428 21.3648C51.1236 21.4256 50.3295 20.3525 50.1816 20.2445L49.2554 21.2609C48.9858 21.5673 48.5032 21.1403 48.7844 20.8393C48.9312 20.7365 49.9729 19.3812 50.1816 19.4598C50.3998 19.3979 51.1949 20.4721 51.3428 20.5802C51.4981 20.4648 52.2796 19.4063 52.5041 19.4598C52.7223 19.3979 53.5174 20.4721 53.6653 20.5802C55.008 19.1042 54.6493 19.1116 55.9878 20.5802L56.914 19.5637C57.0336 19.4263 57.2654 19.4263 57.385 19.5637L58.5462 20.8393C58.734 21.0312 58.5735 21.3742 58.3102 21.3648Z" fill="#9BDBEA"/>
</g>
<path d="M50.3687 51.5044L48.4679 49.4106C48.5403 39.5354 49.3585 41.9586 40.1463 41.6512C39.304 41.6512 38.6211 42.3289 38.6211 43.1639V49.9005C38.6211 50.7355 39.304 51.4131 40.1474 51.4131C40.7956 51.303 47.5081 51.7131 47.8658 51.1047L50.0561 51.9544C50.3351 52.0624 50.5701 51.7247 50.3708 51.5044H50.3687Z" fill="#73CBB6"/>
<path d="M44.3339 46.5322C44.3486 47.513 42.794 47.513 42.8087 46.5322C42.794 45.5514 44.3486 45.5514 44.3339 46.5322Z" fill="white"/>
<path d="M46.9346 46.5322C46.9493 47.513 45.3947 47.513 45.4083 46.5322C45.3936 45.5514 46.9482 45.5514 46.9346 46.5322Z" fill="white"/>
<path d="M40.2091 46.5322C40.1944 47.513 41.749 47.513 41.7354 46.5322C41.75 45.5514 40.1955 45.5514 40.2091 46.5322Z" fill="white"/>
<g opacity="0.8">
<g opacity="0.8">
<path d="M103.057 80.7973C104.149 80.0262 106.35 79.8542 105.496 77.902C105.2 77.2255 104.536 76.7566 103.823 76.5489C102.653 76.1345 101.481 76.8101 100.363 76.4461C98.6011 74.8285 104.12 73.0715 101.461 70.9976C100.807 70.4878 99.9753 70.1437 99.4728 69.464C98.8015 68.5556 99.0113 67.4017 98.5592 66.4261C98.1123 65.4631 97.3528 66.5646 97.4347 67.2674C97.507 67.8905 97.8805 68.4412 98.0074 69.0559C98.5424 71.5903 95.2381 72.5795 95.8748 73.4995C96.8189 74.1886 98.4805 74.1225 98.9095 75.4212C99.1571 76.9307 97.9497 78.264 99.3847 79.6853C100.334 80.5182 100.704 80.7459 100.503 82.0246C100.625 82.7169 102.176 83.3526 102.366 82.4966L103.415 83.8781L103.682 83.382L102.573 81.7151C102.659 81.3616 102.78 80.9924 103.057 80.7994V80.7973ZM102.133 79.9623C102.114 80.256 102.051 80.5444 101.952 80.8193C102.804 77.944 100.035 78.9773 99.5777 76.8153C99.1812 75.4946 99.5735 74.1163 99.4519 72.7735C99.305 71.1728 98.5162 69.7032 98.3599 68.1014C98.5969 69.6602 99.3826 71.0805 99.5798 72.6498C99.7508 74.0554 99.3113 75.5041 99.7445 76.8803C100.003 78.4821 102.368 78.1538 102.134 79.9623H102.133Z" fill="#91E2CF"/>
</g>
<g opacity="0.8">
<path d="M112.973 73.8403C112.595 74.1068 112.378 74.5442 112.025 74.8432C110.59 76.082 108.676 74.2841 108.302 75.0183C108.213 75.8733 108.899 76.9244 108.214 77.6702C107.359 78.331 105.932 78.1013 105.611 79.4797C105.448 80.3734 105.396 80.7353 104.513 81.0311C104.1 81.3689 104.302 82.5931 104.921 82.4106L104.422 83.5791H104.849L105.512 82.27C106.886 81.7644 107.888 84.432 109.127 82.8323C109.455 82.4022 109.505 81.8043 109.367 81.2672C109.188 80.3587 108.299 79.8395 108.105 78.9793C108.485 77.2632 111.754 80.2381 112.086 77.7761C112.168 77.1709 112.072 76.5079 112.323 75.9415C112.659 75.1841 113.492 74.9155 113.956 74.2778C114.414 73.6473 113.401 73.5403 112.973 73.8414V73.8403ZM112.656 74.8358C111.775 75.5449 111.155 76.5362 110.212 77.1761C109.371 77.7531 108.3 77.9744 107.58 78.7265C106.509 79.743 108.029 81.2326 105.857 81.5504C108.018 81.1423 106.352 79.6297 107.559 78.5954C108.277 77.8684 109.32 77.644 110.151 77.0901C111.138 76.4334 111.799 75.3991 112.783 74.7351L112.658 74.8358H112.656Z" fill="#91E2CF"/>
</g>
<path d="M107.532 63.8876C105.533 63.3295 103.497 62.0256 103.108 60.0052C102.924 59.0528 103.132 58.0468 102.867 57.1142C102.567 56.0611 100.827 54.9292 100.759 56.5656C101.251 60.9882 102.256 60.771 99.3202 64.7928C96.4785 69.3224 107.072 68.9741 103.63 72.3288C101.219 73.1207 97.7624 73.8697 97.6449 77.0156C97.5935 81.2724 102.547 78.1464 104.085 80.7616L103.487 83.7921L104.163 84.3449L104.844 81.7592C105.619 82.8732 107.463 81.0605 107.227 79.9979C107.139 79.5867 106.81 79.2699 106.66 78.8776C106.171 76.8258 108.827 75.5785 107.24 72.5983C105.956 70.7343 104.634 69.3538 106.581 67.3356C107.553 66.2656 110.455 64.6837 107.532 63.8876ZM105.465 73.2214C104.828 75.8492 101.93 75.7296 104.442 79.1209C101.468 75.5638 105.408 75.5114 105.289 72.5354C105.256 71.8714 105.121 71.2105 104.906 70.5811C104.306 68.8797 103.244 67.3461 102.868 65.5617C102.381 63.3484 102.584 61.0469 102.04 58.8451C102.797 61.3301 102.487 64.0218 103.352 66.4775C104.153 68.6783 105.776 70.7595 105.465 73.2204V73.2214Z" fill="#7ADAC3"/>
<path d="M107.598 84.7897C107.317 90.2623 99 88.4696 101.043 83.3715H107.286C107.486 83.8037 107.598 84.2841 107.598 84.7897Z" fill="#59CEB3"/>
</g>
<g opacity="0.8">
<path d="M34.3863 75.2544C33.8565 71.604 30.9739 68.9301 27.4871 67.9975C20.9676 66.1115 20.3592 61.2851 19.4896 63.6988C18.62 66.1115 20.4463 68.7171 18.8812 70.6032C17.3161 72.4882 18.5612 76.0223 21.0683 76.7975C23.5754 77.5727 32.5526 83.4743 32.5526 88.1926H39.3102C39.6564 88.1926 39.6564 85.6121 39.6417 85.4191C39.5064 81.3165 35.3566 79.0371 34.3863 75.2544Z" fill="#91E2CF"/>
<g opacity="0.8">
<path d="M29.5047 78.3175C29.6464 75.995 28.5617 73.6684 26.8151 72.1442C25.8196 71.2714 24.7088 70.6358 23.7437 69.7871C22.9853 69.164 22.1293 68.5651 21.6992 67.6545C22.0464 68.777 23.0514 69.5154 23.8654 70.2969C26.7291 72.4883 29.2194 74.4111 29.5037 78.3175H29.5047Z" fill="white"/>
</g>
</g>
<path d="M10.3942 79.4766C11.332 82.3907 13.8863 84.0113 16.7951 84.6502C25.0664 86.466 28.9382 87.6125 30.2243 88.0227C30.8232 88.3552 37.2241 88.1318 38.0056 88.1926C35.765 83.0117 36.0787 74.0837 24.6772 74.8484C17.028 76.2803 14.1307 70.7175 12.275 69.1325C11.8827 68.7968 10.3868 67.3723 10.1529 68.5073C10.9355 72.1683 9.33261 75.8229 10.3942 79.4766Z" fill="#7ADAC3"/>
<path d="M13.2305 74.9019C14.6928 80.429 21.5217 80.5749 26.2012 80.9903C29.1268 81.3123 32.1353 83.0211 32.8759 86.0453C32.4962 82.891 29.4237 80.8843 26.475 80.4616C21.8122 79.8573 15.2477 80.1385 13.2305 74.9009V74.9019Z" fill="#6CC1C1"/>
<path d="M13.2305 74.9019C14.6928 80.429 21.5217 80.5749 26.2012 80.9903C29.1268 81.3123 32.1353 83.0211 32.8759 86.0453C32.4962 82.891 29.4237 80.8843 26.475 80.4616C21.8122 79.8573 15.2477 80.1385 13.2305 74.9009V74.9019Z" fill="#7ADAC3"/>
<path opacity="0.8" d="M87.233 56.9475H41.7458C38.9986 56.9475 36.7715 59.1746 36.7715 61.9218V76.8762C36.7715 79.6234 38.9986 81.8505 41.7458 81.8505H87.233C89.9803 81.8505 92.2073 79.6234 92.2073 76.8762V61.9218C92.2073 59.1746 89.9803 56.9475 87.233 56.9475Z" fill="url(#paint0_linear_617_981)"/>
<path d="M94.5012 66.7304C84.2799 66.5919 86.5079 66.0307 86.2446 75.6331H42.7357C42.4819 66.0191 44.6753 66.5929 34.4781 66.7304C33.5204 66.7304 32.7441 67.7227 32.7441 68.9469V85.9761C32.7441 87.2003 33.5204 88.1926 34.4781 88.1926C43.8812 88.1926 85.096 88.1926 94.5012 88.1926C95.4589 88.1926 96.2352 87.2003 96.2352 85.9761V68.9469C96.2352 67.7227 95.4589 66.7304 94.5012 66.7304Z" fill="url(#paint1_linear_617_981)"/>
<path d="M69.4572 55.7412C75.5812 63.0075 75.3368 63.6359 70.1926 71.4414L67.8984 70.64C67.8984 70.64 71.0769 64.2632 71.0748 63.4848C71.0727 62.7065 68.4439 61.6134 68.4439 61.6134L69.4583 55.7412H69.4572Z" fill="url(#paint2_linear_617_981)"/>
<path d="M59.5249 55.7412C53.401 63.0075 53.6454 63.6359 58.7896 71.4414L61.0837 70.64C61.0837 70.64 57.9053 64.2632 57.9074 63.4848C57.9095 62.7065 60.5383 61.6134 60.5383 61.6134L59.5239 55.7412H59.5249Z" fill="url(#paint3_linear_617_981)"/>
<path d="M70.1032 57.8423C69.9459 54.5065 67.7776 55.1883 65.9262 53.4953C65.8223 53.3631 65.8045 53.6106 65.8045 53.6106C65.5213 54.5883 64.8394 54.5621 64.4912 54.5694C64.1429 54.561 63.461 54.5873 63.1778 53.6106C63.1778 53.6106 63.16 53.3641 63.0561 53.4953C62.4656 54.0219 61.5068 54.5831 60.5763 54.9135C59.3133 55.3918 59.0249 56.4754 58.8791 57.8423C58.0199 62.4966 60.4106 68.5577 60.5847 72.7201C63.675 73.7659 65.3062 73.7659 68.3965 72.7201C68.5717 68.5535 70.9603 62.4987 70.1022 57.8423H70.1032Z" fill="url(#paint4_linear_617_981)"/>
<path d="M70.6675 48.3437C69.4465 46.615 69.4423 44.4174 67.9558 42.8827C66.0351 40.9809 62.6721 40.8907 60.8059 42.9173C59.7192 44.0345 59.7748 45.3856 59.1674 46.7283C57.4869 48.9878 57.146 53.3684 60.8678 52.8921C61.8067 52.6949 62.6154 52.5659 63.2826 52.4946C65.0386 52.3016 66.247 52.5281 68.1121 52.8921C70.678 53.4124 71.7207 50.5749 70.6664 48.3448L70.6675 48.3437Z" fill="url(#paint5_linear_617_981)"/>
<path d="M65.8948 51.3533L64.4661 52.1495L63.0143 51.3942C63.2335 52.8177 62.4258 53.8719 62.4258 53.8719L64.4912 54.9639L66.5567 53.8121C66.5567 53.8121 65.7186 52.782 65.8948 51.3533Z" fill="url(#paint6_linear_617_981)"/>
<path d="M67.9737 46.4922C67.3023 40.5204 58.6461 42.6078 61.3105 49.1126C61.8948 51.1781 61.9682 51.755 64.0998 52.5869C64.9096 52.8711 66.0215 51.9291 66.632 51.5221C67.3013 50.8204 67.9579 47.515 67.9747 46.4922H67.9737Z" fill="url(#paint7_linear_617_981)"/>
<path d="M67.6952 43.5793C67.6952 43.5793 66.0472 41.9995 64.1359 42.5009C62.2247 43.0023 59.7795 45.1832 60.6439 47.0388C60.3963 47.5392 60.7939 47.8298 62.532 47.5801C64.6332 47.279 65.8794 46.5825 66.6189 45.8524C66.7637 46.3349 67.1958 47.406 68.2732 47.9053C69.6882 48.5609 67.6952 43.5782 67.6952 43.5782V43.5793Z" fill="url(#paint8_linear_617_981)"/>
<path d="M66.2798 53.363C66.2798 53.363 66.8306 53.5644 66.8306 53.9746C66.8306 54.2243 66.2201 55.9708 65.7417 56.1943C65.2634 56.4177 64.0938 54.5767 64.0938 54.5767C64.0938 54.5767 65.8623 54.3176 66.2798 53.363Z" fill="#D9F7D0"/>
<path d="M62.6816 53.363C62.6816 53.363 62.1309 53.5644 62.1309 53.9746C62.1309 54.2243 62.7414 55.9708 63.2197 56.1943C63.698 56.4177 64.8677 54.5767 64.8677 54.5767C64.8677 54.5767 63.0991 54.3176 62.6816 53.363Z" fill="#D9F7D0"/>
<path d="M64.3948 61.8989C52.6545 62.2807 54.7536 59.3352 57.2659 70.9118C57.3425 71.2223 57.6236 71.4415 57.9467 71.4415H70.8429C71.166 71.4415 71.4471 71.2223 71.5237 70.9118C74.0319 59.3394 76.1435 62.2786 64.3948 61.8989Z" fill="url(#paint9_linear_617_981)"/>
<path d="M56.5133 76.4911C56.5133 76.4911 55.6542 76.4565 55.1097 76.8247C54.1877 75.2596 54.2212 76.0757 54.5527 74.2998C56.7577 74.3669 57.385 72.8836 56.5133 76.4922V76.4911Z" fill="url(#paint10_linear_617_981)"/>
<path d="M55.0047 77.0587C55.5722 76.3611 55.1694 75.0898 54.7351 74.4153C54.3501 73.9526 53.8938 74.0964 53.1123 73.9894C51.1581 73.9348 52.099 79.3256 55.0057 77.0587H55.0047Z" fill="url(#paint11_linear_617_981)"/>
<path d="M71.4934 72.6215C71.6623 77.0115 59.3136 76.1419 56.1037 76.5709C55.8289 75.972 55.4554 74.0932 55.8184 74.0345C56.6492 74.0869 60.8273 73.1533 61.1923 73.0442C62.7406 72.5827 64.2837 72.0739 65.747 71.3879C67.0446 70.7795 68.2856 69.7326 69.8129 70.2245C70.9469 70.5906 71.5018 71.5998 71.4923 72.6225L71.4934 72.6215Z" fill="url(#paint12_linear_617_981)"/>
<path d="M67.1231 84.3808C67.1231 84.3808 66.4979 83.7021 66.3741 83.1902C66.2513 82.6783 64.2331 84.279 64.1827 84.4343C64.1324 84.5895 64.1492 84.3818 64.1492 84.3818C64.1492 84.3818 64.8677 85.2745 65.1394 85.8724L67.0014 86.1232C67.0014 86.1232 67.701 85.6815 67.6958 85.6731C67.5909 85.4067 67.3077 84.5843 67.1231 84.3808Z" fill="url(#paint13_linear_617_981)"/>
<path d="M68.6296 85.7624C67.8911 84.9809 67.2879 84.5057 67.1222 84.3809C67.8974 85.6092 65.2141 86.4127 64.7798 85.2526C64.742 85.3627 64.6865 85.5987 64.9015 85.8473C65.1543 86.1232 65.8781 87.0358 66.1697 87.6075C66.4341 88.1289 67.1285 88.5894 67.7401 88.6943C69.5779 89.0541 69.9629 87.0684 68.6296 85.7624Z" fill="url(#paint14_linear_617_981)"/>
<path d="M58.662 69.8868C56.5525 71.2862 57.9372 74.0093 58.9484 75.7118C60.5208 78.734 62.3167 81.6365 64.1703 84.494C64.6948 84.8852 66.3071 83.6674 66.4969 83.5939C66.5578 83.552 66.5704 83.4681 66.5242 83.4114C66.0081 82.7873 64.3633 78.8389 64.2427 78.4791C63.8566 77.3252 63.5042 76.1744 63.2325 74.988C62.9681 73.8342 63.0982 72.6257 62.6964 71.4897C62.0901 69.7756 60.3215 68.7329 58.661 69.8868H58.662Z" fill="url(#paint15_linear_617_981)"/>
<path d="M54.8965 22.9413V33.5549C54.8965 34.091 55.335 34.5263 55.8762 34.5263H68.3246C68.8659 34.5263 69.3043 34.091 69.3043 33.5549V22.9413H54.8965Z" fill="#D7EEF4"/>
<path d="M69.3046 20.5517C69.3046 20.0157 68.8661 19.5804 68.3249 19.5804H55.8765C54.5275 19.5699 54.9608 21.4507 54.8968 22.2784H69.3046V20.5517Z" fill="#73CBB6"/>
<g style="mix-blend-mode:multiply">
<path d="M57.8415 23.8362H56.5062C56.3474 23.8362 56.2188 23.9649 56.2188 24.1236V25.4422C56.2188 25.6009 56.3474 25.7296 56.5062 25.7296H57.8415C58.0003 25.7296 58.129 25.6009 58.129 25.4422V24.1236C58.129 23.9649 58.0003 23.8362 57.8415 23.8362Z" fill="#87DFCA"/>
</g>
<g style="mix-blend-mode:multiply">
<path d="M60.3044 23.8362H58.9691C58.8103 23.8362 58.6816 23.9649 58.6816 24.1236V25.4422C58.6816 25.6009 58.8103 25.7296 58.9691 25.7296H60.3044C60.4632 25.7296 60.5918 25.6009 60.5918 25.4422V24.1236C60.5918 23.9649 60.4632 23.8362 60.3044 23.8362Z" fill="#87DFCA"/>
</g>
<g style="mix-blend-mode:multiply">
<path d="M62.7673 23.8362H61.432C61.2732 23.8362 61.1445 23.9649 61.1445 24.1236V25.4422C61.1445 25.6009 61.2732 25.7296 61.432 25.7296H62.7673C62.9261 25.7296 63.0547 25.6009 63.0547 25.4422V24.1236C63.0547 23.9649 62.9261 23.8362 62.7673 23.8362Z" fill="#87DFCA"/>
</g>
<g style="mix-blend-mode:multiply">
<path d="M65.2322 23.8362H63.8968C63.7381 23.8362 63.6094 23.9649 63.6094 24.1236V25.4422C63.6094 25.6009 63.7381 25.7296 63.8968 25.7296H65.2322C65.3909 25.7296 65.5196 25.6009 65.5196 25.4422V24.1236C65.5196 23.9649 65.3909 23.8362 65.2322 23.8362Z" fill="#87DFCA"/>
</g>
<g style="mix-blend-mode:multiply">
<path d="M67.697 23.8362H66.3616C66.2029 23.8362 66.0742 23.9649 66.0742 24.1236V25.4422C66.0742 25.6009 66.2029 25.7296 66.3616 25.7296H67.697C67.8557 25.7296 67.9844 25.6009 67.9844 25.4422V24.1236C67.9844 23.9649 67.8557 23.8362 67.697 23.8362Z" fill="#87DFCA"/>
</g>
<g style="mix-blend-mode:multiply">
<path d="M57.8415 26.4702H56.5062C56.3474 26.4702 56.2188 26.5989 56.2188 26.7576V28.0762C56.2188 28.235 56.3474 28.3636 56.5062 28.3636H57.8415C58.0003 28.3636 58.129 28.235 58.129 28.0762V26.7576C58.129 26.5989 58.0003 26.4702 57.8415 26.4702Z" fill="#87DFCA"/>
</g>
<g style="mix-blend-mode:multiply">
<path d="M60.3044 26.4702H58.9691C58.8103 26.4702 58.6816 26.5989 58.6816 26.7576V28.0762C58.6816 28.235 58.8103 28.3636 58.9691 28.3636H60.3044C60.4632 28.3636 60.5918 28.235 60.5918 28.0762V26.7576C60.5918 26.5989 60.4632 26.4702 60.3044 26.4702Z" fill="#87DFCA"/>
</g>
<g style="mix-blend-mode:multiply">
<path d="M62.7673 26.4702H61.432C61.2732 26.4702 61.1445 26.5989 61.1445 26.7576V28.0762C61.1445 28.235 61.2732 28.3636 61.432 28.3636H62.7673C62.9261 28.3636 63.0547 28.235 63.0547 28.0762V26.7576C63.0547 26.5989 62.9261 26.4702 62.7673 26.4702Z" fill="#FF8D8D"/>
</g>
<g style="mix-blend-mode:multiply">
<path d="M65.2322 26.4702H63.8968C63.7381 26.4702 63.6094 26.5989 63.6094 26.7576V28.0762C63.6094 28.235 63.7381 28.3636 63.8968 28.3636H65.2322C65.3909 28.3636 65.5196 28.235 65.5196 28.0762V26.7576C65.5196 26.5989 65.3909 26.4702 65.2322 26.4702Z" fill="#87DFCA"/>
</g>
<g style="mix-blend-mode:multiply">
<path d="M67.697 26.4702H66.3616C66.2029 26.4702 66.0742 26.5989 66.0742 26.7576V28.0762C66.0742 28.235 66.2029 28.3636 66.3616 28.3636H67.697C67.8557 28.3636 67.9844 28.235 67.9844 28.0762V26.7576C67.9844 26.5989 67.8557 26.4702 67.697 26.4702Z" fill="#87DFCA"/>
</g>
<g style="mix-blend-mode:multiply">
<path d="M57.8415 29.1042H56.5062C56.3474 29.1042 56.2188 29.2329 56.2188 29.3917V30.7102C56.2188 30.869 56.3474 30.9977 56.5062 30.9977H57.8415C58.0003 30.9977 58.129 30.869 58.129 30.7102V29.3917C58.129 29.2329 58.0003 29.1042 57.8415 29.1042Z" fill="#FF8D8D"/>
</g>
<g opacity="0.5">
<g style="mix-blend-mode:multiply">
<path d="M60.3044 29.1042H58.9691C58.8103 29.1042 58.6816 29.2329 58.6816 29.3917V30.7102C58.6816 30.869 58.8103 30.9977 58.9691 30.9977H60.3044C60.4632 30.9977 60.5918 30.869 60.5918 30.7102V29.3917C60.5918 29.2329 60.4632 29.1042 60.3044 29.1042Z" fill="#87DFCA"/>
</g>
</g>
<g opacity="0.5">
<g style="mix-blend-mode:multiply">
<path d="M62.7673 29.1042H61.432C61.2732 29.1042 61.1445 29.2329 61.1445 29.3917V30.7102C61.1445 30.869 61.2732 30.9977 61.432 30.9977H62.7673C62.9261 30.9977 63.0547 30.869 63.0547 30.7102V29.3917C63.0547 29.2329 62.9261 29.1042 62.7673 29.1042Z" fill="#87DFCA"/>
</g>
</g>
<g opacity="0.5">
<g style="mix-blend-mode:multiply">
<path d="M65.2322 29.1042H63.8968C63.7381 29.1042 63.6094 29.2329 63.6094 29.3917V30.7102C63.6094 30.869 63.7381 30.9977 63.8968 30.9977H65.2322C65.3909 30.9977 65.5196 30.869 65.5196 30.7102V29.3917C65.5196 29.2329 65.3909 29.1042 65.2322 29.1042Z" fill="#87DFCA"/>
</g>
</g>
<g opacity="0.5">
<g style="mix-blend-mode:multiply">
<path d="M67.697 29.1042H66.3616C66.2029 29.1042 66.0742 29.2329 66.0742 29.3917V30.7102C66.0742 30.869 66.2029 30.9977 66.3616 30.9977H67.697C67.8557 30.9977 67.9844 30.869 67.9844 30.7102V29.3917C67.9844 29.2329 67.8557 29.1042 67.697 29.1042Z" fill="#87DFCA"/>
</g>
</g>
<g opacity="0.5">
<g style="mix-blend-mode:multiply">
<path d="M57.8415 31.7393H56.5062C56.3474 31.7393 56.2188 31.8679 56.2188 32.0267V33.3453C56.2188 33.504 56.3474 33.6327 56.5062 33.6327H57.8415C58.0003 33.6327 58.129 33.504 58.129 33.3453V32.0267C58.129 31.8679 58.0003 31.7393 57.8415 31.7393Z" fill="#87DFCA"/>
</g>
<g style="mix-blend-mode:multiply">
<path d="M60.3044 31.7393H58.9691C58.8103 31.7393 58.6816 31.8679 58.6816 32.0267V33.3453C58.6816 33.504 58.8103 33.6327 58.9691 33.6327H60.3044C60.4632 33.6327 60.5918 33.504 60.5918 33.3453V32.0267C60.5918 31.8679 60.4632 31.7393 60.3044 31.7393Z" fill="#87DFCA"/>
</g>
<g style="mix-blend-mode:multiply">
<path d="M62.7673 31.7393H61.432C61.2732 31.7393 61.1445 31.8679 61.1445 32.0267V33.3453C61.1445 33.504 61.2732 33.6327 61.432 33.6327H62.7673C62.9261 33.6327 63.0547 33.504 63.0547 33.3453V32.0267C63.0547 31.8679 62.9261 31.7393 62.7673 31.7393Z" fill="#87DFCA"/>
</g>
<g style="mix-blend-mode:multiply">
<path d="M65.2322 31.7393H63.8968C63.7381 31.7393 63.6094 31.8679 63.6094 32.0267V33.3453C63.6094 33.504 63.7381 33.6327 63.8968 33.6327H65.2322C65.3909 33.6327 65.5196 33.504 65.5196 33.3453V32.0267C65.5196 31.8679 65.3909 31.7393 65.2322 31.7393Z" fill="#87DFCA"/>
</g>
<g style="mix-blend-mode:multiply">
<path d="M67.697 31.7393H66.3616C66.2029 31.7393 66.0742 31.8679 66.0742 32.0267V33.3453C66.0742 33.504 66.2029 33.6327 66.3616 33.6327H67.697C67.8557 33.6327 67.9844 33.504 67.9844 33.3453V32.0267C67.9844 31.8679 67.8557 31.7393 67.697 31.7393Z" fill="#87DFCA"/>
</g>
</g>
<path d="M85.8715 35.9478H78.9062V42.8522H85.8715V35.9478Z" fill="#73CBB6"/>
<path d="M87.4653 37.5276H80.5V44.432H87.4653V37.5276Z" fill="#B8E9F4"/>
<path d="M85.0328 40.044C85.0527 41.3941 82.9138 41.3941 82.9337 40.044C82.9138 38.694 85.0527 38.694 85.0328 40.044Z" fill="#73CBB6"/>
<path d="M86.049 42.9571H81.916C81.9674 40.2612 85.9987 40.2622 86.049 42.9571Z" fill="#73CBB6"/>
</g>
<path d="M177.325 42H173.301L173.326 39.0293H177.325C178.324 39.0293 179.166 38.805 179.852 38.3564C180.537 37.8994 181.053 37.235 181.4 36.3633C181.756 35.4915 181.934 34.4378 181.934 33.2021V32.3008C181.934 31.3529 181.832 30.5192 181.629 29.7998C181.434 29.0804 181.142 28.4753 180.753 27.9844C180.364 27.4935 179.885 27.1253 179.318 26.8799C178.751 26.626 178.1 26.499 177.363 26.499H173.225V23.5156H177.363C178.599 23.5156 179.729 23.7272 180.753 24.1504C181.785 24.5651 182.678 25.1618 183.432 25.9404C184.185 26.7191 184.765 27.6501 185.171 28.7334C185.586 29.8083 185.793 31.0059 185.793 32.3262V33.2021C185.793 34.514 185.586 35.7116 185.171 36.7949C184.765 37.8783 184.185 38.8092 183.432 39.5879C182.687 40.3581 181.794 40.9548 180.753 41.3779C179.72 41.7926 178.578 42 177.325 42ZM175.459 23.5156V42H171.65V23.5156H175.459ZM192.191 28.2637V42H188.522V28.2637H192.191ZM188.294 24.6836C188.294 24.1504 188.48 23.7103 188.853 23.3633C189.225 23.0163 189.724 22.8428 190.351 22.8428C190.968 22.8428 191.464 23.0163 191.836 23.3633C192.217 23.7103 192.407 24.1504 192.407 24.6836C192.407 25.2168 192.217 25.6569 191.836 26.0039C191.464 26.3509 190.968 26.5244 190.351 26.5244C189.724 26.5244 189.225 26.3509 188.853 26.0039C188.48 25.6569 188.294 25.2168 188.294 24.6836ZM188.281 44.8564C188.281 44.3656 188.467 43.9551 188.84 43.625C189.212 43.3034 189.712 43.1426 190.338 43.1426C190.956 43.1426 191.451 43.3034 191.823 43.625C192.204 43.9551 192.395 44.3656 192.395 44.8564C192.395 45.3389 192.204 45.7451 191.823 46.0752C191.451 46.4053 190.956 46.5703 190.338 46.5703C189.712 46.5703 189.212 46.4053 188.84 46.0752C188.467 45.7451 188.281 45.3389 188.281 44.8564ZM200.888 39.3975C201.336 39.3975 201.734 39.3128 202.081 39.1436C202.428 38.9658 202.699 38.7204 202.894 38.4072C203.097 38.0856 203.202 37.709 203.211 37.2773H206.651C206.643 38.2422 206.385 39.1012 205.877 39.8545C205.369 40.5993 204.688 41.1875 203.833 41.6191C202.978 42.0423 202.022 42.2539 200.964 42.2539C199.897 42.2539 198.966 42.0762 198.171 41.7207C197.384 41.3652 196.728 40.8743 196.203 40.248C195.678 39.6133 195.285 38.877 195.022 38.0391C194.76 37.1927 194.629 36.2871 194.629 35.3223V34.9541C194.629 33.9808 194.76 33.0752 195.022 32.2373C195.285 31.391 195.678 30.6546 196.203 30.0283C196.728 29.3936 197.384 28.8984 198.171 28.543C198.958 28.1875 199.881 28.0098 200.938 28.0098C202.064 28.0098 203.05 28.2256 203.896 28.6572C204.751 29.0889 205.42 29.7067 205.902 30.5107C206.393 31.3063 206.643 32.25 206.651 33.3418H203.211C203.202 32.8848 203.105 32.4701 202.919 32.0977C202.741 31.7253 202.479 31.429 202.132 31.209C201.793 30.9805 201.374 30.8662 200.875 30.8662C200.342 30.8662 199.906 30.9805 199.567 31.209C199.229 31.429 198.966 31.7337 198.78 32.123C198.594 32.5039 198.463 32.9398 198.387 33.4307C198.319 33.9131 198.285 34.4209 198.285 34.9541V35.3223C198.285 35.8555 198.319 36.3675 198.387 36.8584C198.454 37.3493 198.581 37.7852 198.768 38.166C198.962 38.5469 199.229 38.8473 199.567 39.0674C199.906 39.2874 200.346 39.3975 200.888 39.3975ZM212.339 22.5V42H208.683V22.5H212.339ZM211.818 34.6494H210.815C210.824 33.693 210.951 32.8128 211.196 32.0088C211.442 31.1963 211.793 30.4938 212.25 29.9014C212.707 29.3005 213.253 28.835 213.888 28.5049C214.531 28.1748 215.242 28.0098 216.021 28.0098C216.698 28.0098 217.311 28.1071 217.861 28.3018C218.42 28.488 218.898 28.7926 219.296 29.2158C219.702 29.6305 220.015 30.1764 220.235 30.8535C220.455 31.5306 220.565 32.3516 220.565 33.3164V42H216.884V33.291C216.884 32.6816 216.795 32.2035 216.617 31.8564C216.448 31.501 216.198 31.2513 215.868 31.1074C215.547 30.9551 215.149 30.8789 214.675 30.8789C214.15 30.8789 213.701 30.9762 213.329 31.1709C212.965 31.3656 212.673 31.6364 212.453 31.9834C212.233 32.3219 212.072 32.7197 211.971 33.1768C211.869 33.6338 211.818 34.1247 211.818 34.6494ZM234.492 39.334L237.539 28.2637H241.36L236.727 42H234.416L234.492 39.334ZM232.397 28.2637L235.457 39.3467L235.521 42H233.197L228.563 28.2637H232.397ZM251.123 38.7119V28.2637H254.779V42H251.339L251.123 38.7119ZM251.529 35.8936L252.608 35.8682C252.608 36.7822 252.503 37.6328 252.291 38.4199C252.079 39.1986 251.762 39.8757 251.339 40.4512C250.916 41.0182 250.382 41.4626 249.739 41.7842C249.096 42.0973 248.339 42.2539 247.467 42.2539C246.798 42.2539 246.18 42.1608 245.613 41.9746C245.055 41.7799 244.572 41.4795 244.166 41.0732C243.768 40.6585 243.455 40.1296 243.227 39.4863C243.007 38.8346 242.896 38.0518 242.896 37.1377V28.2637H246.553V37.1631C246.553 37.5693 246.599 37.9121 246.692 38.1914C246.794 38.4707 246.934 38.6992 247.111 38.877C247.289 39.0547 247.496 39.1816 247.733 39.2578C247.979 39.334 248.25 39.3721 248.546 39.3721C249.299 39.3721 249.892 39.2197 250.323 38.915C250.763 38.6104 251.072 38.1956 251.25 37.6709C251.436 37.1377 251.529 36.5452 251.529 35.8936ZM245.486 44.9834C245.486 44.4925 245.673 44.082 246.045 43.752C246.417 43.4303 246.917 43.2695 247.543 43.2695C248.161 43.2695 248.656 43.4303 249.028 43.752C249.409 44.082 249.6 44.4925 249.6 44.9834C249.6 45.4658 249.409 45.8721 249.028 46.2021C248.656 46.5322 248.161 46.6973 247.543 46.6973C246.917 46.6973 246.417 46.5322 246.045 46.2021C245.673 45.8721 245.486 45.4658 245.486 44.9834ZM178.15 62.2637V64.8535H170.152V62.2637H178.15ZM172.133 58.874H175.789V71.8613C175.789 72.2591 175.84 72.5638 175.941 72.7754C176.051 72.987 176.212 73.1351 176.424 73.2197C176.635 73.2959 176.902 73.334 177.224 73.334C177.452 73.334 177.655 73.3255 177.833 73.3086C178.019 73.2832 178.176 73.2578 178.303 73.2324L178.315 75.9238C178.002 76.0254 177.664 76.1058 177.3 76.165C176.936 76.2243 176.534 76.2539 176.094 76.2539C175.29 76.2539 174.587 76.1227 173.986 75.8604C173.394 75.5895 172.937 75.1579 172.615 74.5654C172.294 73.973 172.133 73.1943 172.133 72.2295V58.874ZM183.889 65.2598V76H180.232V62.2637H183.673L183.889 65.2598ZM188.027 62.1748L187.964 65.5645C187.786 65.5391 187.57 65.5179 187.316 65.501C187.071 65.4756 186.847 65.4629 186.644 65.4629C186.127 65.4629 185.679 65.5306 185.298 65.666C184.925 65.793 184.612 65.9834 184.358 66.2373C184.113 66.4912 183.927 66.8001 183.8 67.1641C183.681 67.528 183.614 67.9427 183.597 68.4082L182.86 68.1797C182.86 67.291 182.949 66.4743 183.127 65.7295C183.305 64.9762 183.563 64.3203 183.901 63.7617C184.248 63.2031 184.672 62.7715 185.171 62.4668C185.67 62.1621 186.242 62.0098 186.885 62.0098C187.088 62.0098 187.295 62.0267 187.507 62.0605C187.718 62.0859 187.892 62.124 188.027 62.1748ZM203.084 61.0576H205.255C205.255 62.0986 205.103 62.9704 204.798 63.6729C204.493 64.3753 203.981 64.9085 203.262 65.2725C202.551 65.6279 201.569 65.8057 200.316 65.8057L200.329 64.1045C201.15 64.1045 201.755 63.9945 202.145 63.7744C202.542 63.5544 202.796 63.2201 202.906 62.7715C203.025 62.3145 203.084 61.7432 203.084 61.0576ZM197.879 72.7119V62.2637H201.535V76H198.095L197.879 72.7119ZM198.285 69.8936L199.364 69.8682C199.364 70.7822 199.258 71.6328 199.047 72.4199C198.835 73.1986 198.518 73.8757 198.095 74.4512C197.672 75.0182 197.138 75.4626 196.495 75.7842C195.852 76.0973 195.094 76.2539 194.223 76.2539C193.554 76.2539 192.936 76.1608 192.369 75.9746C191.811 75.7799 191.328 75.4795 190.922 75.0732C190.524 74.6585 190.211 74.1296 189.982 73.4863C189.762 72.8346 189.652 72.0518 189.652 71.1377V62.2637H193.309V71.1631C193.309 71.5693 193.355 71.9121 193.448 72.1914C193.55 72.4707 193.689 72.6992 193.867 72.877C194.045 73.0547 194.252 73.1816 194.489 73.2578C194.735 73.334 195.006 73.3721 195.302 73.3721C196.055 73.3721 196.647 73.2197 197.079 72.915C197.519 72.6104 197.828 72.1956 198.006 71.6709C198.192 71.1377 198.285 70.5452 198.285 69.8936ZM193.537 78.9834C193.537 78.4925 193.723 78.082 194.096 77.752C194.468 77.4303 194.967 77.2695 195.594 77.2695C196.212 77.2695 196.707 77.4303 197.079 77.752C197.46 78.082 197.65 78.4925 197.65 78.9834C197.65 79.4658 197.46 79.8721 197.079 80.2021C196.707 80.5322 196.212 80.6973 195.594 80.6973C194.967 80.6973 194.468 80.5322 194.096 80.2021C193.723 79.8721 193.537 79.4658 193.537 78.9834ZM211.222 73.3975C211.67 73.3975 212.068 73.3128 212.415 73.1436C212.762 72.9658 213.033 72.7204 213.228 72.4072C213.431 72.0856 213.536 71.709 213.545 71.2773H216.985C216.977 72.2422 216.719 73.1012 216.211 73.8545C215.703 74.5993 215.022 75.1875 214.167 75.6191C213.312 76.0423 212.356 76.2539 211.298 76.2539C210.231 76.2539 209.3 76.0762 208.505 75.7207C207.718 75.3652 207.062 74.8743 206.537 74.248C206.012 73.6133 205.619 72.877 205.356 72.0391C205.094 71.1927 204.963 70.2871 204.963 69.3223V68.9541C204.963 67.9808 205.094 67.0752 205.356 66.2373C205.619 65.391 206.012 64.6546 206.537 64.0283C207.062 63.3936 207.718 62.8984 208.505 62.543C209.292 62.1875 210.215 62.0098 211.272 62.0098C212.398 62.0098 213.384 62.2256 214.23 62.6572C215.085 63.0889 215.754 63.7067 216.236 64.5107C216.727 65.3063 216.977 66.25 216.985 67.3418H213.545C213.536 66.8848 213.439 66.4701 213.253 66.0977C213.075 65.7253 212.813 65.429 212.466 65.209C212.127 64.9805 211.708 64.8662 211.209 64.8662C210.676 64.8662 210.24 64.9805 209.901 65.209C209.563 65.429 209.3 65.7337 209.114 66.123C208.928 66.5039 208.797 66.9398 208.721 67.4307C208.653 67.9131 208.619 68.4209 208.619 68.9541V69.3223C208.619 69.8555 208.653 70.3675 208.721 70.8584C208.788 71.3493 208.915 71.7852 209.102 72.166C209.296 72.5469 209.563 72.8473 209.901 73.0674C210.24 73.2874 210.68 73.3975 211.222 73.3975ZM232.309 62.2637V64.8535H224.311V62.2637H232.309ZM226.291 58.874H229.947V71.8613C229.947 72.2591 229.998 72.5638 230.1 72.7754C230.21 72.987 230.37 73.1351 230.582 73.2197C230.794 73.2959 231.06 73.334 231.382 73.334C231.61 73.334 231.813 73.3255 231.991 73.3086C232.177 73.2832 232.334 73.2578 232.461 73.2324L232.474 75.9238C232.16 76.0254 231.822 76.1058 231.458 76.165C231.094 76.2243 230.692 76.2539 230.252 76.2539C229.448 76.2539 228.745 76.1227 228.145 75.8604C227.552 75.5895 227.095 75.1579 226.773 74.5654C226.452 73.973 226.291 73.1943 226.291 72.2295V58.874ZM242.516 72.7119V62.2637H246.172V76H242.731L242.516 72.7119ZM242.922 69.8936L244.001 69.8682C244.001 70.7822 243.895 71.6328 243.684 72.4199C243.472 73.1986 243.155 73.8757 242.731 74.4512C242.308 75.0182 241.775 75.4626 241.132 75.7842C240.489 76.0973 239.731 76.2539 238.859 76.2539C238.191 76.2539 237.573 76.1608 237.006 75.9746C236.447 75.7799 235.965 75.4795 235.559 75.0732C235.161 74.6585 234.848 74.1296 234.619 73.4863C234.399 72.8346 234.289 72.0518 234.289 71.1377V62.2637H237.945V71.1631C237.945 71.5693 237.992 71.9121 238.085 72.1914C238.187 72.4707 238.326 72.6992 238.504 72.877C238.682 73.0547 238.889 73.1816 239.126 73.2578C239.371 73.334 239.642 73.3721 239.938 73.3721C240.692 73.3721 241.284 73.2197 241.716 72.915C242.156 72.6104 242.465 72.1956 242.643 71.6709C242.829 71.1377 242.922 70.5452 242.922 69.8936ZM253.04 74.4512L256.684 62.2637H260.606L255.084 78.0693C254.965 78.4163 254.805 78.7887 254.602 79.1865C254.407 79.5843 254.14 79.9609 253.802 80.3164C253.472 80.6803 253.053 80.9766 252.545 81.2051C252.046 81.4336 251.432 81.5479 250.704 81.5479C250.357 81.5479 250.074 81.5267 249.854 81.4844C249.633 81.4421 249.371 81.3828 249.066 81.3066V78.6279C249.16 78.6279 249.257 78.6279 249.358 78.6279C249.46 78.6364 249.557 78.6406 249.65 78.6406C250.133 78.6406 250.526 78.5856 250.831 78.4756C251.136 78.3656 251.381 78.1963 251.567 77.9678C251.754 77.7477 251.902 77.46 252.012 77.1045L253.04 74.4512ZM251.517 62.2637L254.5 72.2168L255.021 76.0889L252.532 76.3555L247.594 62.2637H251.517ZM268.211 76.2539C267.145 76.2539 266.188 76.0846 265.342 75.7461C264.495 75.3991 263.776 74.9209 263.184 74.3115C262.6 73.7021 262.151 72.9954 261.838 72.1914C261.525 71.3789 261.368 70.5156 261.368 69.6016V69.0938C261.368 68.0527 261.516 67.1006 261.812 66.2373C262.109 65.374 262.532 64.625 263.082 63.9902C263.641 63.3555 264.318 62.8688 265.113 62.5303C265.909 62.1833 266.806 62.0098 267.805 62.0098C268.778 62.0098 269.641 62.1706 270.395 62.4922C271.148 62.8138 271.778 63.2708 272.286 63.8633C272.802 64.4557 273.192 65.1667 273.454 65.9961C273.716 66.8171 273.848 67.7311 273.848 68.7383V70.2617H262.93V67.8242H270.255V67.5449C270.255 67.0371 270.162 66.5843 269.976 66.1865C269.798 65.7803 269.527 65.4587 269.163 65.2217C268.799 64.9847 268.334 64.8662 267.767 64.8662C267.284 64.8662 266.869 64.972 266.522 65.1836C266.175 65.3952 265.892 65.6914 265.672 66.0723C265.46 66.4531 265.299 66.9017 265.189 67.418C265.088 67.9258 265.037 68.4844 265.037 69.0938V69.6016C265.037 70.1517 265.113 70.6595 265.266 71.125C265.426 71.5905 265.651 71.9925 265.938 72.3311C266.235 72.6696 266.59 72.932 267.005 73.1182C267.428 73.3044 267.906 73.3975 268.439 73.3975C269.1 73.3975 269.713 73.2705 270.28 73.0166C270.856 72.7542 271.351 72.3607 271.766 71.8359L273.543 73.7656C273.255 74.1803 272.862 74.5781 272.362 74.959C271.871 75.3398 271.279 75.653 270.585 75.8984C269.891 76.1354 269.1 76.2539 268.211 76.2539ZM262.739 60.4229L266.332 57.4775H268.363L271.969 60.4229H269.277L267.348 58.7852L265.418 60.4229H262.739ZM271.042 58.6836L273.124 55.2686H276.006L273.124 58.6836H271.042ZM279.51 65.1963V76H275.854V62.2637H279.281L279.51 65.1963ZM278.977 68.6494H277.986C277.986 67.6338 278.118 66.7197 278.38 65.9072C278.642 65.0863 279.01 64.388 279.484 63.8125C279.958 63.2285 280.521 62.7842 281.173 62.4795C281.833 62.1663 282.569 62.0098 283.382 62.0098C284.025 62.0098 284.613 62.1029 285.146 62.2891C285.68 62.4753 286.137 62.7715 286.518 63.1777C286.907 63.584 287.203 64.1214 287.406 64.79C287.618 65.4587 287.724 66.2754 287.724 67.2402V76H284.042V67.2275C284.042 66.6182 283.957 66.1442 283.788 65.8057C283.619 65.4671 283.369 65.2301 283.039 65.0947C282.717 64.9508 282.32 64.8789 281.846 64.8789C281.355 64.8789 280.927 64.9762 280.563 65.1709C280.208 65.3656 279.912 65.6364 279.675 65.9834C279.446 66.3219 279.273 66.7197 279.154 67.1768C279.036 67.6338 278.977 68.1247 278.977 68.6494Z" fill="#0DA480"/>
</g>
<defs>
<linearGradient id="paint0_linear_617_981" x1="64.8739" y1="78.414" x2="63.8857" y2="55.2555" gradientUnits="userSpaceOnUse">
<stop stop-color="#FF5600"/>
<stop offset="1" stop-color="#FFC15C"/>
</linearGradient>
<linearGradient id="paint1_linear_617_981" x1="63.6547" y1="108.787" x2="64.7257" y2="68.628" gradientUnits="userSpaceOnUse">
<stop stop-color="#FF5600"/>
<stop offset="1" stop-color="#FFC15C"/>
</linearGradient>
<linearGradient id="paint2_linear_617_981" x1="71.1157" y1="71.7435" x2="70.5272" y2="51.989" gradientUnits="userSpaceOnUse">
<stop stop-color="#00731D"/>
<stop offset="1" stop-color="#27E700"/>
</linearGradient>
<linearGradient id="paint3_linear_617_981" x1="58.155" y1="72.1264" x2="57.5675" y2="52.3729" gradientUnits="userSpaceOnUse">
<stop stop-color="#00731D"/>
<stop offset="1" stop-color="#27E700"/>
</linearGradient>
<linearGradient id="paint4_linear_617_981" x1="63.9866" y1="72.3424" x2="64.7429" y2="53.9348" gradientUnits="userSpaceOnUse">
<stop stop-color="#00731D"/>
<stop offset="1" stop-color="#27E700"/>
</linearGradient>
<linearGradient id="paint5_linear_617_981" x1="63.6917" y1="34.4153" x2="64.6987" y2="53.7156" gradientUnits="userSpaceOnUse">
<stop stop-color="#00B924"/>
<stop offset="1" stop-color="#001145"/>
</linearGradient>
<linearGradient id="paint6_linear_617_981" x1="64.4912" y1="51.3638" x2="64.4912" y2="53.9726" gradientUnits="userSpaceOnUse">
<stop stop-color="#F0877E"/>
<stop offset="1" stop-color="#FABEB2"/>
</linearGradient>
<linearGradient id="paint7_linear_617_981" x1="64.4375" y1="43.7785" x2="64.3253" y2="50.1784" gradientUnits="userSpaceOnUse">
<stop stop-color="#F0877E"/>
<stop offset="1" stop-color="#FABEB2"/>
</linearGradient>
<linearGradient id="paint8_linear_617_981" x1="63.9713" y1="34.3628" x2="64.9804" y2="53.703" gradientUnits="userSpaceOnUse">
<stop stop-color="#00B924"/>
<stop offset="1" stop-color="#001145"/>
</linearGradient>
<linearGradient id="paint9_linear_617_981" x1="52.7605" y1="75.1749" x2="69.9156" y2="61.5517" gradientUnits="userSpaceOnUse">
<stop stop-color="#0063B9"/>
<stop offset="1" stop-color="#00C3E7"/>
</linearGradient>
<linearGradient id="paint10_linear_617_981" x1="56.2337" y1="75.1364" x2="54.9097" y2="75.6162" gradientUnits="userSpaceOnUse">
<stop stop-color="#F0877E"/>
<stop offset="1" stop-color="#FABEB2"/>
</linearGradient>
<linearGradient id="paint11_linear_617_981" x1="55.0136" y1="75.7448" x2="51.0936" y2="75.8741" gradientUnits="userSpaceOnUse">
<stop stop-color="#333333"/>
<stop offset="1" stop-color="#005C1A"/>
</linearGradient>
<linearGradient id="paint12_linear_617_981" x1="73.3123" y1="71.969" x2="61.485" y2="74.1006" gradientUnits="userSpaceOnUse">
<stop stop-color="#333333"/>
<stop offset="1" stop-color="#005C1A"/>
</linearGradient>
<linearGradient id="paint13_linear_617_981" x1="65.4698" y1="84.1109" x2="66.1839" y2="85.1244" gradientUnits="userSpaceOnUse">
<stop stop-color="#F0877E"/>
<stop offset="1" stop-color="#FABEB2"/>
</linearGradient>
<linearGradient id="paint14_linear_617_981" x1="66.5543" y1="84.9527" x2="68.6166" y2="90.2211" gradientUnits="userSpaceOnUse">
<stop stop-color="#333333"/>
<stop offset="1" stop-color="#005C1A"/>
</linearGradient>
<linearGradient id="paint15_linear_617_981" x1="58.1722" y1="67.5255" x2="65.1647" y2="84.0544" gradientUnits="userSpaceOnUse">
<stop stop-color="#333333"/>
<stop offset="1" stop-color="#005C1A"/>
</linearGradient>
<clipPath id="clip0_617_981">
<rect width="375" height="100" fill="white"/>
</clipPath>
<clipPath id="clip1_617_981">
<rect width="108.979" height="80" fill="white" transform="translate(10 10)"/>
</clipPath>
</defs>
</svg>
