<svg width="298" height="100" viewBox="0 0 298 100" fill="none" xmlns="http://www.w3.org/2000/svg">
<g clip-path="url(#clip0_617_1407)">
<rect width="298" height="100" rx="6" fill="#8AD7F8"/>
<rect width="298" height="100" rx="6" fill="#F3705A"/>
<path d="M0 138V-70L207 138C176.898 138 33.5838 138 0 138Z" fill="white" fill-opacity="0.1"/>
<path d="M107.864 56.2031V69H105.236V56.2031H107.864ZM111.802 56.2031V58.2686H101.36V56.2031H111.802ZM116.943 66.8555V62.6191C116.943 62.3145 116.894 62.0537 116.794 61.8369C116.694 61.6143 116.539 61.4414 116.328 61.3184C116.123 61.1953 115.856 61.1338 115.528 61.1338C115.247 61.1338 115.004 61.1836 114.799 61.2832C114.594 61.377 114.436 61.5146 114.324 61.6963C114.213 61.8721 114.157 62.0801 114.157 62.3203H111.626C111.626 61.916 111.72 61.5322 111.907 61.1689C112.095 60.8057 112.367 60.4863 112.725 60.2109C113.082 59.9297 113.507 59.71 113.999 59.5518C114.497 59.3936 115.054 59.3145 115.669 59.3145C116.407 59.3145 117.063 59.4375 117.638 59.6836C118.212 59.9297 118.663 60.2988 118.991 60.791C119.325 61.2832 119.492 61.8984 119.492 62.6367V66.7061C119.492 67.2275 119.524 67.6553 119.589 67.9893C119.653 68.3174 119.747 68.6045 119.87 68.8506V69H117.312C117.189 68.7422 117.096 68.4199 117.031 68.0332C116.973 67.6406 116.943 67.248 116.943 66.8555ZM117.277 63.208L117.295 64.6406H115.88C115.546 64.6406 115.256 64.6787 115.01 64.7549C114.764 64.8311 114.562 64.9395 114.403 65.0801C114.245 65.2148 114.128 65.373 114.052 65.5547C113.981 65.7363 113.946 65.9355 113.946 66.1523C113.946 66.3691 113.996 66.5654 114.096 66.7412C114.195 66.9111 114.339 67.0459 114.526 67.1455C114.714 67.2393 114.934 67.2861 115.186 67.2861C115.566 67.2861 115.897 67.21 116.179 67.0576C116.46 66.9053 116.677 66.7178 116.829 66.4951C116.987 66.2725 117.069 66.0615 117.075 65.8623L117.743 66.9346C117.649 67.1748 117.521 67.4238 117.356 67.6816C117.198 67.9395 116.996 68.1826 116.75 68.4111C116.504 68.6338 116.208 68.8184 115.862 68.9648C115.517 69.1055 115.106 69.1758 114.632 69.1758C114.028 69.1758 113.48 69.0557 112.988 68.8154C112.502 68.5693 112.115 68.2324 111.828 67.8047C111.547 67.3711 111.406 66.8789 111.406 66.3281C111.406 65.8301 111.5 65.3877 111.688 65.001C111.875 64.6143 112.15 64.2891 112.514 64.0254C112.883 63.7559 113.343 63.5537 113.894 63.4189C114.444 63.2783 115.083 63.208 115.81 63.208H117.277ZM116.609 57.8906H114.702L114.562 56.7129C114.854 56.6953 115.089 56.666 115.265 56.625C115.446 56.5781 115.578 56.5137 115.66 56.4316C115.748 56.3496 115.792 56.2471 115.792 56.124C115.792 56.001 115.76 55.9014 115.695 55.8252C115.637 55.7432 115.549 55.6816 115.432 55.6406C115.314 55.5938 115.18 55.5615 115.027 55.5439C114.875 55.5205 114.708 55.5088 114.526 55.5088L114.588 54.3486C115.133 54.3486 115.613 54.3867 116.029 54.4629C116.451 54.5391 116.803 54.6533 117.084 54.8057C117.365 54.9521 117.576 55.1309 117.717 55.3418C117.863 55.5527 117.937 55.79 117.937 56.0537C117.937 56.458 117.799 56.7598 117.523 56.959C117.248 57.1523 116.943 57.2725 116.609 57.3193V57.8906ZM124.115 59.4902V69H121.575V59.4902H124.115ZM121.417 57.0117C121.417 56.6426 121.546 56.3379 121.804 56.0977C122.062 55.8574 122.407 55.7373 122.841 55.7373C123.269 55.7373 123.611 55.8574 123.869 56.0977C124.133 56.3379 124.265 56.6426 124.265 57.0117C124.265 57.3809 124.133 57.6855 123.869 57.9258C123.611 58.166 123.269 58.2861 122.841 58.2861C122.407 58.2861 122.062 58.166 121.804 57.9258C121.546 57.6855 121.417 57.3809 121.417 57.0117ZM133.159 55.5V69H130.628V55.5H133.159ZM132.799 63.9111H132.104C132.11 63.249 132.198 62.6396 132.368 62.083C132.538 61.5205 132.781 61.0342 133.098 60.624C133.414 60.208 133.792 59.8857 134.231 59.6572C134.677 59.4287 135.169 59.3145 135.708 59.3145C136.177 59.3145 136.602 59.3818 136.982 59.5166C137.369 59.6455 137.7 59.8564 137.976 60.1494C138.257 60.4365 138.474 60.8145 138.626 61.2832C138.778 61.752 138.854 62.3203 138.854 62.9883V69H136.306V62.9707C136.306 62.5488 136.244 62.2178 136.121 61.9775C136.004 61.7314 135.831 61.5586 135.603 61.459C135.38 61.3535 135.104 61.3008 134.776 61.3008C134.413 61.3008 134.103 61.3682 133.845 61.5029C133.593 61.6377 133.391 61.8252 133.238 62.0654C133.086 62.2998 132.975 62.5752 132.904 62.8916C132.834 63.208 132.799 63.5479 132.799 63.9111ZM140.375 64.3418V64.1572C140.375 63.46 140.475 62.8184 140.674 62.2324C140.873 61.6406 141.163 61.1279 141.544 60.6943C141.925 60.2607 142.394 59.9238 142.95 59.6836C143.507 59.4375 144.146 59.3145 144.866 59.3145C145.587 59.3145 146.229 59.4375 146.791 59.6836C147.354 59.9238 147.825 60.2607 148.206 60.6943C148.593 61.1279 148.886 61.6406 149.085 62.2324C149.284 62.8184 149.384 63.46 149.384 64.1572V64.3418C149.384 65.0332 149.284 65.6748 149.085 66.2666C148.886 66.8525 148.593 67.3652 148.206 67.8047C147.825 68.2383 147.356 68.5752 146.8 68.8154C146.243 69.0557 145.604 69.1758 144.884 69.1758C144.163 69.1758 143.521 69.0557 142.959 68.8154C142.402 68.5752 141.931 68.2383 141.544 67.8047C141.163 67.3652 140.873 66.8525 140.674 66.2666C140.475 65.6748 140.375 65.0332 140.375 64.3418ZM142.906 64.1572V64.3418C142.906 64.7402 142.941 65.1123 143.012 65.458C143.082 65.8037 143.193 66.1084 143.346 66.3721C143.504 66.6299 143.709 66.832 143.961 66.9785C144.213 67.125 144.521 67.1982 144.884 67.1982C145.235 67.1982 145.537 67.125 145.789 66.9785C146.041 66.832 146.243 66.6299 146.396 66.3721C146.548 66.1084 146.659 65.8037 146.729 65.458C146.806 65.1123 146.844 64.7402 146.844 64.3418V64.1572C146.844 63.7705 146.806 63.4072 146.729 63.0674C146.659 62.7217 146.545 62.417 146.387 62.1533C146.234 61.8838 146.032 61.6729 145.78 61.5205C145.528 61.3682 145.224 61.292 144.866 61.292C144.509 61.292 144.204 61.3682 143.952 61.5205C143.706 61.6729 143.504 61.8838 143.346 62.1533C143.193 62.417 143.082 62.7217 143.012 63.0674C142.941 63.4072 142.906 63.7705 142.906 64.1572ZM143.653 58.207L145.376 55.5H148.127L145.71 58.207H143.653ZM156.072 66.8555V62.6191C156.072 62.3145 156.022 62.0537 155.923 61.8369C155.823 61.6143 155.668 61.4414 155.457 61.3184C155.252 61.1953 154.985 61.1338 154.657 61.1338C154.376 61.1338 154.133 61.1836 153.928 61.2832C153.723 61.377 153.564 61.5146 153.453 61.6963C153.342 61.8721 153.286 62.0801 153.286 62.3203H150.755C150.755 61.916 150.849 61.5322 151.036 61.1689C151.224 60.8057 151.496 60.4863 151.854 60.2109C152.211 59.9297 152.636 59.71 153.128 59.5518C153.626 59.3936 154.183 59.3145 154.798 59.3145C155.536 59.3145 156.192 59.4375 156.767 59.6836C157.341 59.9297 157.792 60.2988 158.12 60.791C158.454 61.2832 158.621 61.8984 158.621 62.6367V66.7061C158.621 67.2275 158.653 67.6553 158.718 67.9893C158.782 68.3174 158.876 68.6045 158.999 68.8506V69H156.441C156.318 68.7422 156.225 68.4199 156.16 68.0332C156.102 67.6406 156.072 67.248 156.072 66.8555ZM156.406 63.208L156.424 64.6406H155.009C154.675 64.6406 154.385 64.6787 154.139 64.7549C153.893 64.8311 153.69 64.9395 153.532 65.0801C153.374 65.2148 153.257 65.373 153.181 65.5547C153.11 65.7363 153.075 65.9355 153.075 66.1523C153.075 66.3691 153.125 66.5654 153.225 66.7412C153.324 66.9111 153.468 67.0459 153.655 67.1455C153.843 67.2393 154.062 67.2861 154.314 67.2861C154.695 67.2861 155.026 67.21 155.308 67.0576C155.589 66.9053 155.806 66.7178 155.958 66.4951C156.116 66.2725 156.198 66.0615 156.204 65.8623L156.872 66.9346C156.778 67.1748 156.649 67.4238 156.485 67.6816C156.327 67.9395 156.125 68.1826 155.879 68.4111C155.633 68.6338 155.337 68.8184 154.991 68.9648C154.646 69.1055 154.235 69.1758 153.761 69.1758C153.157 69.1758 152.609 69.0557 152.117 68.8154C151.631 68.5693 151.244 68.2324 150.957 67.8047C150.676 67.3711 150.535 66.8789 150.535 66.3281C150.535 65.8301 150.629 65.3877 150.816 65.001C151.004 64.6143 151.279 64.2891 151.643 64.0254C152.012 63.7559 152.472 63.5537 153.022 63.4189C153.573 63.2783 154.212 63.208 154.938 63.208H156.406ZM170.671 66.9258V55.5H173.22V69H170.926L170.671 66.9258ZM164.659 64.3594V64.1748C164.659 63.4482 164.741 62.7891 164.905 62.1973C165.069 61.5996 165.31 61.0869 165.626 60.6592C165.942 60.2314 166.332 59.9004 166.795 59.666C167.258 59.4316 167.785 59.3145 168.377 59.3145C168.934 59.3145 169.42 59.4316 169.836 59.666C170.258 59.9004 170.615 60.2344 170.908 60.668C171.207 61.0957 171.447 61.6025 171.629 62.1885C171.811 62.7686 171.942 63.4043 172.024 64.0957V64.5C171.942 65.1621 171.811 65.7773 171.629 66.3457C171.447 66.9141 171.207 67.4121 170.908 67.8398C170.615 68.2617 170.258 68.5898 169.836 68.8242C169.414 69.0586 168.922 69.1758 168.359 69.1758C167.768 69.1758 167.24 69.0557 166.777 68.8154C166.32 68.5752 165.934 68.2383 165.617 67.8047C165.307 67.3711 165.069 66.8613 164.905 66.2754C164.741 65.6895 164.659 65.0508 164.659 64.3594ZM167.19 64.1748V64.3594C167.19 64.752 167.22 65.1182 167.278 65.458C167.343 65.7979 167.445 66.0996 167.586 66.3633C167.732 66.6211 167.92 66.8232 168.148 66.9697C168.383 67.1104 168.667 67.1807 169.001 67.1807C169.435 67.1807 169.792 67.084 170.073 66.8906C170.354 66.6914 170.568 66.4189 170.715 66.0732C170.867 65.7275 170.955 65.3291 170.979 64.8779V63.7266C170.961 63.3574 170.908 63.0264 170.82 62.7334C170.738 62.4346 170.615 62.1797 170.451 61.9688C170.293 61.7578 170.094 61.5938 169.854 61.4766C169.619 61.3594 169.341 61.3008 169.019 61.3008C168.69 61.3008 168.409 61.377 168.175 61.5293C167.94 61.6758 167.75 61.8779 167.604 62.1357C167.463 62.3936 167.357 62.6982 167.287 63.0498C167.223 63.3955 167.19 63.7705 167.19 64.1748ZM174.582 56.7041V58.2686H168.43V56.7041H174.582ZM184.487 58.585H185.999C185.999 59.2881 185.891 59.8916 185.674 60.3955C185.463 60.8936 185.126 61.2773 184.663 61.5469C184.206 61.8105 183.608 61.9424 182.87 61.9424V60.8701C183.31 60.8701 183.644 60.7764 183.872 60.5889C184.106 60.4014 184.268 60.1377 184.355 59.7979C184.443 59.458 184.487 59.0537 184.487 58.585ZM175.971 64.3418V64.1572C175.971 63.46 176.07 62.8184 176.27 62.2324C176.469 61.6406 176.759 61.1279 177.14 60.6943C177.526 60.2607 177.998 59.9238 178.555 59.6836C179.111 59.4375 179.75 59.3145 180.471 59.3145C181.191 59.3145 181.83 59.4375 182.387 59.6836C182.949 59.9238 183.421 60.2607 183.802 60.6943C184.188 61.1279 184.481 61.6406 184.681 62.2324C184.88 62.8184 184.979 63.46 184.979 64.1572V64.3418C184.979 65.0332 184.88 65.6748 184.681 66.2666C184.481 66.8525 184.188 67.3652 183.802 67.8047C183.421 68.2383 182.952 68.5752 182.396 68.8154C181.839 69.0557 181.203 69.1758 180.488 69.1758C179.768 69.1758 179.126 69.0557 178.563 68.8154C178.001 68.5752 177.526 68.2383 177.14 67.8047C176.759 67.3652 176.469 66.8525 176.27 66.2666C176.07 65.6748 175.971 65.0332 175.971 64.3418ZM178.502 64.1572V64.3418C178.502 64.7402 178.537 65.1123 178.607 65.458C178.684 65.8037 178.798 66.1084 178.95 66.3721C179.108 66.6299 179.313 66.832 179.565 66.9785C179.817 67.125 180.125 67.1982 180.488 67.1982C180.84 67.1982 181.139 67.125 181.385 66.9785C181.637 66.832 181.839 66.6299 181.991 66.3721C182.144 66.1084 182.255 65.8037 182.325 65.458C182.401 65.1123 182.439 64.7402 182.439 64.3418V64.1572C182.439 63.7705 182.404 63.4072 182.334 63.0674C182.264 62.7217 182.149 62.417 181.991 62.1533C181.839 61.8838 181.637 61.6729 181.385 61.5205C181.133 61.3682 180.828 61.292 180.471 61.292C180.113 61.292 179.809 61.3682 179.557 61.5205C179.311 61.6729 179.108 61.8838 178.95 62.1533C178.798 62.417 178.684 62.7217 178.607 63.0674C178.537 63.4072 178.502 63.7705 178.502 64.1572ZM189.33 61.5205V69H186.799V59.4902H189.172L189.33 61.5205ZM188.961 63.9111H188.275C188.275 63.208 188.366 62.5752 188.548 62.0127C188.729 61.4443 188.984 60.9609 189.312 60.5625C189.641 60.1582 190.03 59.8506 190.481 59.6396C190.938 59.4229 191.448 59.3145 192.011 59.3145C192.456 59.3145 192.863 59.3789 193.232 59.5078C193.602 59.6367 193.918 59.8418 194.182 60.123C194.451 60.4043 194.656 60.7764 194.797 61.2393C194.943 61.7021 195.017 62.2676 195.017 62.9355V69H192.468V62.9268C192.468 62.5049 192.409 62.1768 192.292 61.9424C192.175 61.708 192.002 61.5439 191.773 61.4502C191.551 61.3506 191.275 61.3008 190.947 61.3008C190.607 61.3008 190.312 61.3682 190.06 61.5029C189.813 61.6377 189.608 61.8252 189.444 62.0654C189.286 62.2998 189.166 62.5752 189.084 62.8916C189.002 63.208 188.961 63.5479 188.961 63.9111ZM207.04 66.9258V55.5H209.589V69H207.295L207.04 66.9258ZM201.028 64.3594V64.1748C201.028 63.4482 201.11 62.7891 201.274 62.1973C201.438 61.5996 201.679 61.0869 201.995 60.6592C202.312 60.2314 202.701 59.9004 203.164 59.666C203.627 59.4316 204.154 59.3145 204.746 59.3145C205.303 59.3145 205.789 59.4316 206.205 59.666C206.627 59.9004 206.984 60.2344 207.277 60.668C207.576 61.0957 207.816 61.6025 207.998 62.1885C208.18 62.7686 208.312 63.4043 208.394 64.0957V64.5C208.312 65.1621 208.18 65.7773 207.998 66.3457C207.816 66.9141 207.576 67.4121 207.277 67.8398C206.984 68.2617 206.627 68.5898 206.205 68.8242C205.783 69.0586 205.291 69.1758 204.729 69.1758C204.137 69.1758 203.609 69.0557 203.146 68.8154C202.689 68.5752 202.303 68.2383 201.986 67.8047C201.676 67.3711 201.438 66.8613 201.274 66.2754C201.11 65.6895 201.028 65.0508 201.028 64.3594ZM203.56 64.1748V64.3594C203.56 64.752 203.589 65.1182 203.647 65.458C203.712 65.7979 203.814 66.0996 203.955 66.3633C204.102 66.6211 204.289 66.8232 204.518 66.9697C204.752 67.1104 205.036 67.1807 205.37 67.1807C205.804 67.1807 206.161 67.084 206.442 66.8906C206.724 66.6914 206.938 66.4189 207.084 66.0732C207.236 65.7275 207.324 65.3291 207.348 64.8779V63.7266C207.33 63.3574 207.277 63.0264 207.189 62.7334C207.107 62.4346 206.984 62.1797 206.82 61.9688C206.662 61.7578 206.463 61.5938 206.223 61.4766C205.988 61.3594 205.71 61.3008 205.388 61.3008C205.06 61.3008 204.778 61.377 204.544 61.5293C204.31 61.6758 204.119 61.8779 203.973 62.1357C203.832 62.3936 203.727 62.6982 203.656 63.0498C203.592 63.3955 203.56 63.7705 203.56 64.1748ZM210.951 56.7041V58.2686H204.799V56.7041H210.951ZM215.434 59.4902V69H212.894V59.4902H215.434ZM212.735 57.0117C212.735 56.6426 212.864 56.3379 213.122 56.0977C213.38 55.8574 213.726 55.7373 214.159 55.7373C214.587 55.7373 214.93 55.8574 215.188 56.0977C215.451 56.3379 215.583 56.6426 215.583 57.0117C215.583 57.3809 215.451 57.6855 215.188 57.9258C214.93 58.166 214.587 58.2861 214.159 58.2861C213.726 58.2861 213.38 58.166 213.122 57.9258C212.864 57.6855 212.735 57.3809 212.735 57.0117ZM221.902 69.1758C221.164 69.1758 220.502 69.0586 219.916 68.8242C219.33 68.584 218.832 68.2529 218.422 67.8311C218.018 67.4092 217.707 66.9199 217.49 66.3633C217.273 65.8008 217.165 65.2031 217.165 64.5703V64.2188C217.165 63.498 217.268 62.8389 217.473 62.2412C217.678 61.6436 217.971 61.125 218.352 60.6855C218.738 60.2461 219.207 59.9092 219.758 59.6748C220.309 59.4346 220.93 59.3145 221.621 59.3145C222.295 59.3145 222.893 59.4258 223.414 59.6484C223.936 59.8711 224.372 60.1875 224.724 60.5977C225.081 61.0078 225.351 61.5 225.532 62.0742C225.714 62.6426 225.805 63.2754 225.805 63.9727V65.0273H218.246V63.3398H223.317V63.1465C223.317 62.7949 223.253 62.4814 223.124 62.2061C223.001 61.9248 222.813 61.7021 222.562 61.5381C222.31 61.374 221.987 61.292 221.595 61.292C221.261 61.292 220.974 61.3652 220.733 61.5117C220.493 61.6582 220.297 61.8633 220.145 62.127C219.998 62.3906 219.887 62.7012 219.811 63.0586C219.74 63.4102 219.705 63.7969 219.705 64.2188V64.5703C219.705 64.9512 219.758 65.3027 219.863 65.625C219.975 65.9473 220.13 66.2256 220.329 66.46C220.534 66.6943 220.78 66.876 221.067 67.0049C221.36 67.1338 221.691 67.1982 222.061 67.1982C222.518 67.1982 222.942 67.1104 223.335 66.9346C223.733 66.7529 224.076 66.4805 224.363 66.1172L225.594 67.4531C225.395 67.7402 225.122 68.0156 224.776 68.2793C224.437 68.543 224.026 68.7598 223.546 68.9297C223.065 69.0938 222.518 69.1758 221.902 69.1758ZM222.061 55.4912L224.715 57.9346V58.04H222.702L221.322 56.7568L219.96 58.04H217.982V57.9082L220.593 55.4912H222.061ZM220.118 71.0654C220.118 70.7256 220.247 70.4414 220.505 70.2129C220.763 69.9902 221.108 69.8789 221.542 69.8789C221.97 69.8789 222.312 69.9902 222.57 70.2129C222.834 70.4414 222.966 70.7256 222.966 71.0654C222.966 71.3994 222.834 71.6807 222.57 71.9092C222.312 72.1377 221.97 72.252 221.542 72.252C221.108 72.252 220.763 72.1377 220.505 71.9092C220.247 71.6807 220.118 71.3994 220.118 71.0654ZM229.725 61.5205V69H227.193V59.4902H229.566L229.725 61.5205ZM229.355 63.9111H228.67C228.67 63.208 228.761 62.5752 228.942 62.0127C229.124 61.4443 229.379 60.9609 229.707 60.5625C230.035 60.1582 230.425 59.8506 230.876 59.6396C231.333 59.4229 231.843 59.3145 232.405 59.3145C232.851 59.3145 233.258 59.3789 233.627 59.5078C233.996 59.6367 234.312 59.8418 234.576 60.123C234.846 60.4043 235.051 60.7764 235.191 61.2393C235.338 61.7021 235.411 62.2676 235.411 62.9355V69H232.862V62.9268C232.862 62.5049 232.804 62.1768 232.687 61.9424C232.569 61.708 232.396 61.5439 232.168 61.4502C231.945 61.3506 231.67 61.3008 231.342 61.3008C231.002 61.3008 230.706 61.3682 230.454 61.5029C230.208 61.6377 230.003 61.8252 229.839 62.0654C229.681 62.2998 229.561 62.5752 229.479 62.8916C229.396 63.208 229.355 63.5479 229.355 63.9111ZM246.477 59.4902V61.2832H240.939V59.4902H246.477ZM242.311 57.1436H244.842V66.1348C244.842 66.4102 244.877 66.6211 244.947 66.7676C245.023 66.9141 245.135 67.0166 245.281 67.0752C245.428 67.1279 245.612 67.1543 245.835 67.1543C245.993 67.1543 246.134 67.1484 246.257 67.1367C246.386 67.1191 246.494 67.1016 246.582 67.084L246.591 68.9473C246.374 69.0176 246.14 69.0732 245.888 69.1143C245.636 69.1553 245.357 69.1758 245.053 69.1758C244.496 69.1758 244.01 69.085 243.594 68.9033C243.184 68.7158 242.867 68.417 242.645 68.0068C242.422 67.5967 242.311 67.0576 242.311 66.3896V57.1436ZM257.146 58.6553H258.649C258.649 59.376 258.544 59.9795 258.333 60.4658C258.122 60.9521 257.768 61.3213 257.27 61.5732C256.777 61.8193 256.098 61.9424 255.23 61.9424L255.239 60.7646C255.808 60.7646 256.227 60.6885 256.496 60.5361C256.771 60.3838 256.947 60.1523 257.023 59.8418C257.105 59.5254 257.146 59.1299 257.146 58.6553ZM253.543 66.7236V59.4902H256.074V69H253.692L253.543 66.7236ZM253.824 64.7725L254.571 64.7549C254.571 65.3877 254.498 65.9766 254.352 66.5215C254.205 67.0605 253.985 67.5293 253.692 67.9277C253.399 68.3203 253.03 68.6279 252.585 68.8506C252.14 69.0674 251.615 69.1758 251.012 69.1758C250.549 69.1758 250.121 69.1113 249.729 68.9824C249.342 68.8477 249.008 68.6396 248.727 68.3584C248.451 68.0713 248.234 67.7051 248.076 67.2598C247.924 66.8086 247.848 66.2666 247.848 65.6338V59.4902H250.379V65.6514C250.379 65.9326 250.411 66.1699 250.476 66.3633C250.546 66.5566 250.643 66.7148 250.766 66.8379C250.889 66.9609 251.032 67.0488 251.196 67.1016C251.366 67.1543 251.554 67.1807 251.759 67.1807C252.28 67.1807 252.69 67.0752 252.989 66.8643C253.294 66.6533 253.508 66.3662 253.631 66.0029C253.76 65.6338 253.824 65.2236 253.824 64.7725ZM252.945 58.0752H251.038L250.897 56.8975C251.19 56.8799 251.425 56.8506 251.601 56.8096C251.782 56.7627 251.914 56.6982 251.996 56.6162C252.084 56.5342 252.128 56.4316 252.128 56.3086C252.128 56.1855 252.096 56.0859 252.031 56.0098C251.973 55.9277 251.885 55.8662 251.768 55.8252C251.65 55.7783 251.516 55.7461 251.363 55.7285C251.211 55.7051 251.044 55.6934 250.862 55.6934L250.924 54.5332C251.469 54.5332 251.949 54.5713 252.365 54.6475C252.787 54.7236 253.139 54.8379 253.42 54.9902C253.701 55.1367 253.912 55.3154 254.053 55.5264C254.199 55.7373 254.272 55.9746 254.272 56.2383C254.272 56.6426 254.135 56.9443 253.859 57.1436C253.584 57.3369 253.279 57.457 252.945 57.5039V58.0752Z" fill="white"/>
<path d="M110.677 35.415V37.4717H103.997V35.415H110.677ZM104.779 30.2031V43H102.143V30.2031H104.779ZM112.558 30.2031V43H109.93V30.2031H112.558ZM123.922 32.6553H125.425C125.425 33.376 125.319 33.9795 125.108 34.4658C124.897 34.9521 124.543 35.3213 124.045 35.5732C123.553 35.8193 122.873 35.9424 122.006 35.9424L122.015 34.7646C122.583 34.7646 123.002 34.6885 123.271 34.5361C123.547 34.3838 123.723 34.1523 123.799 33.8418C123.881 33.5254 123.922 33.1299 123.922 32.6553ZM120.318 40.7236V33.4902H122.85V43H120.468L120.318 40.7236ZM120.6 38.7725L121.347 38.7549C121.347 39.3877 121.273 39.9766 121.127 40.5215C120.98 41.0605 120.761 41.5293 120.468 41.9277C120.175 42.3203 119.806 42.6279 119.36 42.8506C118.915 43.0674 118.391 43.1758 117.787 43.1758C117.324 43.1758 116.896 43.1113 116.504 42.9824C116.117 42.8477 115.783 42.6396 115.502 42.3584C115.227 42.0713 115.01 41.7051 114.852 41.2598C114.699 40.8086 114.623 40.2666 114.623 39.6338V33.4902H117.154V39.6514C117.154 39.9326 117.187 40.1699 117.251 40.3633C117.321 40.5566 117.418 40.7148 117.541 40.8379C117.664 40.9609 117.808 41.0488 117.972 41.1016C118.142 41.1543 118.329 41.1807 118.534 41.1807C119.056 41.1807 119.466 41.0752 119.765 40.8643C120.069 40.6533 120.283 40.3662 120.406 40.0029C120.535 39.6338 120.6 39.2236 120.6 38.7725ZM133.722 32.585H135.233C135.233 33.2881 135.125 33.8916 134.908 34.3955C134.697 34.8936 134.36 35.2773 133.897 35.5469C133.44 35.8105 132.843 35.9424 132.104 35.9424V34.8701C132.544 34.8701 132.878 34.7764 133.106 34.5889C133.341 34.4014 133.502 34.1377 133.59 33.7979C133.678 33.458 133.722 33.0537 133.722 32.585ZM125.205 38.3418V38.1572C125.205 37.46 125.305 36.8184 125.504 36.2324C125.703 35.6406 125.993 35.1279 126.374 34.6943C126.761 34.2607 127.232 33.9238 127.789 33.6836C128.346 33.4375 128.984 33.3145 129.705 33.3145C130.426 33.3145 131.064 33.4375 131.621 33.6836C132.184 33.9238 132.655 34.2607 133.036 34.6943C133.423 35.1279 133.716 35.6406 133.915 36.2324C134.114 36.8184 134.214 37.46 134.214 38.1572V38.3418C134.214 39.0332 134.114 39.6748 133.915 40.2666C133.716 40.8525 133.423 41.3652 133.036 41.8047C132.655 42.2383 132.187 42.5752 131.63 42.8154C131.073 43.0557 130.438 43.1758 129.723 43.1758C129.002 43.1758 128.36 43.0557 127.798 42.8154C127.235 42.5752 126.761 42.2383 126.374 41.8047C125.993 41.3652 125.703 40.8525 125.504 40.2666C125.305 39.6748 125.205 39.0332 125.205 38.3418ZM127.736 38.1572V38.3418C127.736 38.7402 127.771 39.1123 127.842 39.458C127.918 39.8037 128.032 40.1084 128.185 40.3721C128.343 40.6299 128.548 40.832 128.8 40.9785C129.052 41.125 129.359 41.1982 129.723 41.1982C130.074 41.1982 130.373 41.125 130.619 40.9785C130.871 40.832 131.073 40.6299 131.226 40.3721C131.378 40.1084 131.489 39.8037 131.56 39.458C131.636 39.1123 131.674 38.7402 131.674 38.3418V38.1572C131.674 37.7705 131.639 37.4072 131.568 37.0674C131.498 36.7217 131.384 36.417 131.226 36.1533C131.073 35.8838 130.871 35.6729 130.619 35.5205C130.367 35.3682 130.062 35.292 129.705 35.292C129.348 35.292 129.043 35.3682 128.791 35.5205C128.545 35.6729 128.343 35.8838 128.185 36.1533C128.032 36.417 127.918 36.7217 127.842 37.0674C127.771 37.4072 127.736 37.7705 127.736 38.1572ZM128.51 32.207L130.232 29.5H132.983L130.566 32.207H128.51ZM138.564 35.5205V43H136.033V33.4902H138.406L138.564 35.5205ZM138.195 37.9111H137.51C137.51 37.208 137.601 36.5752 137.782 36.0127C137.964 35.4443 138.219 34.9609 138.547 34.5625C138.875 34.1582 139.265 33.8506 139.716 33.6396C140.173 33.4229 140.683 33.3145 141.245 33.3145C141.69 33.3145 142.098 33.3789 142.467 33.5078C142.836 33.6367 143.152 33.8418 143.416 34.123C143.686 34.4043 143.891 34.7764 144.031 35.2393C144.178 35.7021 144.251 36.2676 144.251 36.9355V43H141.702V36.9268C141.702 36.5049 141.644 36.1768 141.526 35.9424C141.409 35.708 141.236 35.5439 141.008 35.4502C140.785 35.3506 140.51 35.3008 140.182 35.3008C139.842 35.3008 139.546 35.3682 139.294 35.5029C139.048 35.6377 138.843 35.8252 138.679 36.0654C138.521 36.2998 138.4 36.5752 138.318 36.8916C138.236 37.208 138.195 37.5479 138.195 37.9111ZM152.196 33.4902H154.49V42.6836C154.49 43.5508 154.297 44.2861 153.91 44.8896C153.529 45.499 152.996 45.959 152.311 46.2695C151.625 46.5859 150.828 46.7441 149.92 46.7441C149.521 46.7441 149.1 46.6914 148.654 46.5859C148.215 46.4805 147.793 46.3164 147.389 46.0938C146.99 45.8711 146.656 45.5898 146.387 45.25L147.503 43.7559C147.796 44.0957 148.136 44.3594 148.522 44.5469C148.909 44.7402 149.337 44.8369 149.806 44.8369C150.263 44.8369 150.649 44.752 150.966 44.582C151.282 44.418 151.525 44.1748 151.695 43.8525C151.865 43.5361 151.95 43.1523 151.95 42.7012V35.6875L152.196 33.4902ZM145.798 38.3594V38.1748C145.798 37.4482 145.886 36.7891 146.062 36.1973C146.243 35.5996 146.498 35.0869 146.826 34.6592C147.16 34.2314 147.564 33.9004 148.039 33.666C148.514 33.4316 149.05 33.3145 149.647 33.3145C150.28 33.3145 150.811 33.4316 151.238 33.666C151.666 33.9004 152.018 34.2344 152.293 34.668C152.568 35.0957 152.782 35.6025 152.935 36.1885C153.093 36.7686 153.216 37.4043 153.304 38.0957V38.5C153.216 39.1621 153.084 39.7773 152.908 40.3457C152.732 40.9141 152.501 41.4121 152.214 41.8398C151.927 42.2617 151.569 42.5898 151.142 42.8242C150.72 43.0586 150.216 43.1758 149.63 43.1758C149.044 43.1758 148.514 43.0557 148.039 42.8154C147.57 42.5752 147.169 42.2383 146.835 41.8047C146.501 41.3711 146.243 40.8613 146.062 40.2754C145.886 39.6895 145.798 39.0508 145.798 38.3594ZM148.329 38.1748V38.3594C148.329 38.752 148.367 39.1182 148.443 39.458C148.52 39.7979 148.637 40.0996 148.795 40.3633C148.959 40.6211 149.161 40.8232 149.401 40.9697C149.647 41.1104 149.938 41.1807 150.271 41.1807C150.734 41.1807 151.112 41.084 151.405 40.8906C151.698 40.6914 151.918 40.4189 152.064 40.0732C152.211 39.7275 152.296 39.3291 152.319 38.8779V37.7266C152.308 37.3574 152.258 37.0264 152.17 36.7334C152.082 36.4346 151.959 36.1797 151.801 35.9688C151.643 35.7578 151.438 35.5938 151.186 35.4766C150.934 35.3594 150.635 35.3008 150.289 35.3008C149.955 35.3008 149.665 35.377 149.419 35.5293C149.179 35.6758 148.977 35.8779 148.812 36.1357C148.654 36.3936 148.534 36.6982 148.452 37.0498C148.37 37.3955 148.329 37.7705 148.329 38.1748ZM166.558 40.9258V29.5H169.106V43H166.812L166.558 40.9258ZM160.546 38.3594V38.1748C160.546 37.4482 160.628 36.7891 160.792 36.1973C160.956 35.5996 161.196 35.0869 161.513 34.6592C161.829 34.2314 162.219 33.9004 162.682 33.666C163.145 33.4316 163.672 33.3145 164.264 33.3145C164.82 33.3145 165.307 33.4316 165.723 33.666C166.145 33.9004 166.502 34.2344 166.795 34.668C167.094 35.0957 167.334 35.6025 167.516 36.1885C167.697 36.7686 167.829 37.4043 167.911 38.0957V38.5C167.829 39.1621 167.697 39.7773 167.516 40.3457C167.334 40.9141 167.094 41.4121 166.795 41.8398C166.502 42.2617 166.145 42.5898 165.723 42.8242C165.301 43.0586 164.809 43.1758 164.246 43.1758C163.654 43.1758 163.127 43.0557 162.664 42.8154C162.207 42.5752 161.82 42.2383 161.504 41.8047C161.193 41.3711 160.956 40.8613 160.792 40.2754C160.628 39.6895 160.546 39.0508 160.546 38.3594ZM163.077 38.1748V38.3594C163.077 38.752 163.106 39.1182 163.165 39.458C163.229 39.7979 163.332 40.0996 163.473 40.3633C163.619 40.6211 163.807 40.8232 164.035 40.9697C164.27 41.1104 164.554 41.1807 164.888 41.1807C165.321 41.1807 165.679 41.084 165.96 40.8906C166.241 40.6914 166.455 40.4189 166.602 40.0732C166.754 39.7275 166.842 39.3291 166.865 38.8779V37.7266C166.848 37.3574 166.795 37.0264 166.707 36.7334C166.625 36.4346 166.502 36.1797 166.338 35.9688C166.18 35.7578 165.98 35.5938 165.74 35.4766C165.506 35.3594 165.228 35.3008 164.905 35.3008C164.577 35.3008 164.296 35.377 164.062 35.5293C163.827 35.6758 163.637 35.8779 163.49 36.1357C163.35 36.3936 163.244 36.6982 163.174 37.0498C163.109 37.3955 163.077 37.7705 163.077 38.1748ZM176.217 40.8555V36.6191C176.217 36.3145 176.167 36.0537 176.067 35.8369C175.968 35.6143 175.812 35.4414 175.602 35.3184C175.396 35.1953 175.13 35.1338 174.802 35.1338C174.521 35.1338 174.277 35.1836 174.072 35.2832C173.867 35.377 173.709 35.5146 173.598 35.6963C173.486 35.8721 173.431 36.0801 173.431 36.3203H170.899C170.899 35.916 170.993 35.5322 171.181 35.1689C171.368 34.8057 171.641 34.4863 171.998 34.2109C172.355 33.9297 172.78 33.71 173.272 33.5518C173.771 33.3936 174.327 33.3145 174.942 33.3145C175.681 33.3145 176.337 33.4375 176.911 33.6836C177.485 33.9297 177.937 34.2988 178.265 34.791C178.599 35.2832 178.766 35.8984 178.766 36.6367V40.7061C178.766 41.2275 178.798 41.6553 178.862 41.9893C178.927 42.3174 179.021 42.6045 179.144 42.8506V43H176.586C176.463 42.7422 176.369 42.4199 176.305 42.0332C176.246 41.6406 176.217 41.248 176.217 40.8555ZM176.551 37.208L176.568 38.6406H175.153C174.819 38.6406 174.529 38.6787 174.283 38.7549C174.037 38.8311 173.835 38.9395 173.677 39.0801C173.519 39.2148 173.401 39.373 173.325 39.5547C173.255 39.7363 173.22 39.9355 173.22 40.1523C173.22 40.3691 173.27 40.5654 173.369 40.7412C173.469 40.9111 173.612 41.0459 173.8 41.1455C173.987 41.2393 174.207 41.2861 174.459 41.2861C174.84 41.2861 175.171 41.21 175.452 41.0576C175.733 40.9053 175.95 40.7178 176.103 40.4951C176.261 40.2725 176.343 40.0615 176.349 39.8623L177.017 40.9346C176.923 41.1748 176.794 41.4238 176.63 41.6816C176.472 41.9395 176.27 42.1826 176.023 42.4111C175.777 42.6338 175.481 42.8184 175.136 42.9648C174.79 43.1055 174.38 43.1758 173.905 43.1758C173.302 43.1758 172.754 43.0557 172.262 42.8154C171.775 42.5693 171.389 42.2324 171.102 41.8047C170.82 41.3711 170.68 40.8789 170.68 40.3281C170.68 39.8301 170.773 39.3877 170.961 39.001C171.148 38.6143 171.424 38.2891 171.787 38.0254C172.156 37.7559 172.616 37.5537 173.167 37.4189C173.718 37.2783 174.356 37.208 175.083 37.208H176.551ZM175.628 30.3438L178.133 32.3389H176.331L174.942 31.1963L173.554 32.3389H171.743L174.257 30.3438H175.628ZM176.313 28.1641L177.21 28.4717C177.21 28.7002 177.163 28.9199 177.069 29.1309C176.976 29.3418 176.841 29.5146 176.665 29.6494C176.489 29.7783 176.281 29.8428 176.041 29.8428C175.777 29.8428 175.546 29.7959 175.347 29.7021C175.147 29.6025 174.954 29.5059 174.767 29.4121C174.585 29.3184 174.386 29.2715 174.169 29.2715C174.028 29.2715 173.917 29.333 173.835 29.4561C173.759 29.5791 173.721 29.7256 173.721 29.8955L172.833 29.6494C172.833 29.4209 172.88 29.2012 172.974 28.9902C173.067 28.7793 173.202 28.6064 173.378 28.4717C173.554 28.3369 173.759 28.2695 173.993 28.2695C174.216 28.2695 174.43 28.3164 174.635 28.4102C174.84 28.5039 175.045 28.5977 175.25 28.6914C175.455 28.7852 175.657 28.832 175.856 28.832C175.997 28.832 176.108 28.7617 176.19 28.6211C176.272 28.4805 176.313 28.3281 176.313 28.1641ZM183.195 35.5205V43H180.664V33.4902H183.037L183.195 35.5205ZM182.826 37.9111H182.141C182.141 37.208 182.231 36.5752 182.413 36.0127C182.595 35.4443 182.85 34.9609 183.178 34.5625C183.506 34.1582 183.896 33.8506 184.347 33.6396C184.804 33.4229 185.313 33.3145 185.876 33.3145C186.321 33.3145 186.729 33.3789 187.098 33.5078C187.467 33.6367 187.783 33.8418 188.047 34.123C188.316 34.4043 188.521 34.7764 188.662 35.2393C188.809 35.7021 188.882 36.2676 188.882 36.9355V43H186.333V36.9268C186.333 36.5049 186.274 36.1768 186.157 35.9424C186.04 35.708 185.867 35.5439 185.639 35.4502C185.416 35.3506 185.141 35.3008 184.812 35.3008C184.473 35.3008 184.177 35.3682 183.925 35.5029C183.679 35.6377 183.474 35.8252 183.31 36.0654C183.151 36.2998 183.031 36.5752 182.949 36.8916C182.867 37.208 182.826 37.5479 182.826 37.9111Z" fill="white"/>
<g clip-path="url(#clip1_617_1407)">
<path d="M63.0069 77.9603L72.7431 31.0269C72.9927 29.6539 72.119 28.2808 70.7458 28.0312L32.9246 20.0425C31.5515 19.7929 30.1785 20.6667 29.9288 22.0397L20.0679 69.0978C19.8183 70.4709 20.692 71.844 22.0651 72.0936L60.0112 79.9574C61.3841 80.2071 62.6324 79.3333 63.0069 77.9603Z" fill="#E8EAE9"/>
<path d="M56.7648 76.4625L68.2485 65.2284V26.034C68.2485 24.661 67.1251 23.5376 65.7521 23.5376H27.057C25.684 23.5376 24.5605 24.661 24.5605 26.034V73.966C24.5605 75.339 25.684 76.4624 27.057 76.4624L56.7648 76.4625Z" fill="#F3F3F3"/>
<path d="M62.7563 37.0184H30.0527V39.6397H62.7563V37.0184Z" fill="#8AD7F8"/>
<path d="M62.7563 45.0071H30.0527V47.6284H62.7563V45.0071Z" fill="#CED6E0"/>
<path d="M62.7563 52.9957H30.0527V55.6169H62.7563V52.9957Z" fill="#CED6E0"/>
<path d="M45.5308 61.1092H30.0527V63.7305H45.5308V61.1092Z" fill="#CED6E0"/>
<path d="M56.7656 76.4624L68.2493 65.2284H56.7656V76.4624Z" fill="#CED6E0"/>
<path d="M32.1769 32.2752C32.6762 32.2752 32.9258 32.1504 33.3003 31.7759L33.9244 32.4C33.425 32.8993 32.9258 33.1489 32.3016 33.1489C31.6776 33.1489 31.1782 32.8993 30.8038 32.5249C30.4293 32.1504 30.1797 31.6511 30.1797 31.027C30.1797 30.4029 30.4293 29.9036 30.8038 29.5291C31.1782 29.1546 31.6776 28.905 32.3016 28.905C32.9257 28.905 33.5499 29.1546 33.9244 29.654L33.425 30.278C33.1754 29.9036 32.801 29.7787 32.4265 29.7787C32.052 29.7787 31.8024 29.9036 31.5527 30.1532C31.1782 30.4028 31.0534 30.6525 31.0534 31.027C31.0534 31.4014 31.1782 31.6511 31.4278 31.9008C31.6777 32.1504 31.9273 32.2752 32.1769 32.2752Z" fill="#F3705A"/>
<path d="M37.7936 32.5249C37.4192 32.8993 36.9199 33.1489 36.2958 33.1489C35.6717 33.1489 35.1724 32.8993 34.7979 32.5249C34.4234 32.1504 34.1738 31.6511 34.1738 31.027C34.1738 30.4029 34.4234 29.9036 34.7979 29.5291C35.1724 29.1546 35.6717 28.905 36.2958 28.905C36.9199 28.905 37.4192 29.1546 37.7936 29.5291C38.1681 29.9036 38.4177 30.4029 38.4177 31.027C38.4178 31.6511 38.293 32.1504 37.7936 32.5249ZM37.544 31.027C37.544 30.6525 37.4192 30.4029 37.1696 30.1532C36.92 29.9035 36.6702 29.7787 36.2958 29.7787C35.9213 29.7787 35.6717 29.9036 35.422 30.1532C35.1723 30.4028 35.0475 30.6525 35.0475 31.027C35.0475 31.4014 35.1724 31.6511 35.422 31.9008C35.6716 32.1505 35.9213 32.2752 36.2958 32.2752C36.6702 32.2752 36.9199 32.1504 37.1696 31.9008C37.4192 31.7759 37.544 31.4014 37.544 31.027Z" fill="#F3705A"/>
<path d="M42.0372 29.1547H42.911V33.149H42.0372L40.1648 30.6525V33.149H39.291V29.1547H40.04L42.0372 31.7759V29.1547Z" fill="#F3705A"/>
<path d="M45.5324 29.9036V33.149H44.6586V29.9036H43.5352V29.1547H46.6558V29.9036H45.5324Z" fill="#F3705A"/>
<path d="M50.5267 30.4029C50.5267 31.027 50.2771 31.4015 49.7778 31.6512L50.7763 33.0242H49.6529L48.7791 31.7759H48.155V33.0242H47.2812V29.1547H48.7791C49.4032 29.1547 49.9025 29.2795 50.1521 29.5291C50.402 29.654 50.5267 29.9036 50.5267 30.4029ZM49.5282 30.9021C49.653 30.7773 49.653 30.6525 49.653 30.4028C49.653 30.1531 49.653 30.0283 49.5282 29.9035C49.4033 29.7786 49.2786 29.7786 48.9041 29.7786H48.28V30.902H48.9041C49.1537 31.027 49.4033 31.027 49.5282 30.9021Z" fill="#F3705A"/>
<path d="M54.2706 33.149L53.8961 32.2752H52.2734L51.8989 33.149H50.9004L52.6479 29.1547H53.5217L55.2691 33.149H54.2706ZM53.1472 30.2781L52.6479 31.4015H53.6464L53.1472 30.2781Z" fill="#F3705A"/>
<path d="M57.5167 32.2752C58.0161 32.2752 58.2657 32.1504 58.6401 31.7759L59.2642 32.4C58.7649 32.8993 58.2657 33.1489 57.6415 33.1489C57.0174 33.1489 56.5181 32.8993 56.1436 32.5249C55.7691 32.1504 55.5195 31.6511 55.5195 31.027C55.5195 30.4029 55.7691 29.9036 56.1436 29.5291C56.5181 29.1546 57.0174 28.905 57.6415 28.905C58.2656 28.905 58.8897 29.1546 59.2642 29.654L58.7649 30.278C58.5153 29.9036 58.1408 29.7787 57.7663 29.7787C57.3919 29.7787 57.1423 29.9036 56.8925 30.1532C56.6428 30.4028 56.5181 30.6525 56.5181 31.027C56.5181 31.4014 56.6429 31.6511 56.8925 31.9008C56.8925 32.1504 57.267 32.2752 57.5167 32.2752Z" fill="#F3705A"/>
<path d="M61.6339 29.9036V33.149H60.7601V29.9036H59.6367V29.1547H62.7573V29.9036H61.6339Z" fill="#F3705A"/>
<path d="M29.8041 72.7178C29.6793 72.7178 29.5545 72.5929 29.5545 72.4682C29.5545 72.3433 29.5545 72.0937 29.6794 72.0937C30.5532 71.7192 31.1773 70.9703 31.4269 70.3462L30.4283 69.5973C30.1787 69.3477 29.929 69.2228 29.6794 68.8483C29.3049 68.2243 29.4298 67.2256 30.0538 66.8511C30.6779 66.3518 31.6766 66.4767 32.1758 67.1007C32.6751 67.6001 32.7999 68.349 32.4254 69.4724C32.3005 69.722 32.3005 69.9717 32.1758 70.2213C32.4254 70.3462 32.7999 70.471 32.9247 70.471C33.0496 70.3461 33.2992 70.2213 33.4241 69.9716C33.6737 69.722 33.9234 69.3475 34.2979 69.3475C34.4227 69.3475 34.5475 69.3476 34.5475 69.4724C34.6723 69.5973 34.6723 69.722 34.6723 69.722C34.6723 69.8469 34.6723 69.8469 34.6723 69.9716C34.7972 70.0965 34.7972 70.0965 34.9219 70.2212C35.1715 70.2212 35.4213 70.2212 35.6709 69.9716C35.7957 69.8468 35.9205 69.8468 35.9205 69.9716C36.0453 69.9716 36.0453 70.0965 36.1701 70.2212C36.2949 70.4708 36.6694 70.7206 37.0439 70.5957C37.4184 70.5957 37.9177 70.2212 38.1673 69.9716C38.2921 69.8468 38.4169 69.8468 38.5418 69.9716C38.9162 70.3461 39.4156 70.5957 40.0396 70.5957C40.1645 70.5957 40.4141 70.7206 40.4141 70.8453C40.4141 70.9702 40.2892 71.2198 40.1645 71.2198C39.5404 71.2198 38.9162 71.0949 38.417 70.5957C38.0425 70.8453 37.6681 71.095 37.1687 71.095C36.6694 71.2199 36.1702 70.9702 35.7957 70.5957C35.4213 70.7206 35.1717 70.8453 34.7972 70.7206C34.5476 70.7206 34.2979 70.471 34.0483 70.2212V70.0964C33.9234 70.2212 33.9234 70.2212 33.7986 70.346C33.549 70.5956 33.4242 70.8453 33.0497 70.9701C32.5504 71.0949 32.1759 70.97 31.8014 70.7204C31.4267 71.7191 30.6778 72.468 29.8041 72.7178ZM31.0523 67.1007C30.8027 67.1007 30.6778 67.1007 30.5529 67.2256C30.1785 67.4752 30.0536 68.0994 30.3033 68.4739C30.4282 68.7235 30.6778 68.8483 30.9274 68.9732L31.8012 69.5973C31.9261 69.3477 31.9261 69.2228 31.9261 69.0979C32.1757 68.2241 32.0509 67.7249 31.8012 67.3505C31.5516 67.2255 31.302 67.1007 31.0523 67.1007Z" fill="#344A5E"/>
<path d="M51.5233 63.2312C53.5205 62.1078 55.5176 60.8595 57.39 59.4865L78.8595 42.261C80.1078 41.2624 80.3574 39.2652 79.3589 38.017C78.3603 36.7687 76.3631 36.5191 75.1148 37.5176L53.6453 54.7432C51.8978 56.2411 50.2751 57.9885 48.6523 59.7361L51.5233 63.2312Z" fill="#F3705A"/>
<path d="M48.9009 59.4866C46.9037 61.6085 45.1562 63.9802 43.6584 66.4766C43.5335 66.6015 43.6584 66.8511 43.908 66.7262C46.6541 65.7277 49.2754 64.6043 51.8967 63.1064L48.9009 59.4866Z" fill="#E8EAE9"/>
<path d="M48.9009 59.4865C46.9037 61.6084 45.1562 63.9801 43.6584 66.4765C43.5335 66.6013 43.6584 66.851 43.908 66.7261C46.6541 65.7275 49.2754 64.6041 51.8967 63.1063L48.9009 59.4865Z" fill="#344A5E"/>
<path d="M56.889 52.1219L55.7656 52.9956L59.6352 57.739L60.6337 56.8652L56.889 52.1219Z" fill="#344A5E"/>
<path d="M75.3634 45.3815L71.3691 40.2637L73.2415 38.6411L77.3606 43.7588L75.3634 45.3815Z" fill="#344A5E"/>
<path d="M68.3732 53.495C68.1236 53.1205 68.1236 52.6212 68.498 52.3716L76.4867 46.0056L74.9889 44.1332L76.2371 43.1347L78.1095 45.5064C78.3591 45.8808 78.3591 46.3802 77.9846 46.6298L69.3718 53.4951C69.1221 53.8694 68.6228 53.8694 68.3732 53.495Z" fill="#344A5E"/>
</g>
</g>
<defs>
<clipPath id="clip0_617_1407">
<rect width="298" height="100" rx="6" fill="white"/>
</clipPath>
<clipPath id="clip1_617_1407">
<rect width="60" height="60" fill="white" transform="translate(20 20)"/>
</clipPath>
</defs>
</svg>
