<svg width="298" height="100" viewBox="0 0 298 100" fill="none" xmlns="http://www.w3.org/2000/svg">
<g clip-path="url(#clip0_617_2253)">
<rect width="298" height="100" rx="6" fill="#5094FF"/>
<path d="M0 138V-70L207 138C176.898 138 33.5838 138 0 138Z" fill="white" fill-opacity="0.1"/>
<path d="M109.095 67.1016L112.558 69.8438L110.896 71.2852L107.486 68.543L109.095 67.1016ZM112.646 62.3027V62.9092C112.646 63.8818 112.514 64.7549 112.25 65.5283C111.992 66.3018 111.62 66.9609 111.134 67.5059C110.647 68.0449 110.073 68.458 109.411 68.7451C108.749 69.0322 108.014 69.1758 107.205 69.1758C106.402 69.1758 105.667 69.0322 104.999 68.7451C104.331 68.458 103.754 68.0449 103.268 67.5059C102.781 66.9609 102.403 66.3018 102.134 65.5283C101.87 64.7549 101.738 63.8818 101.738 62.9092V62.3027C101.738 61.3242 101.87 60.4512 102.134 59.6836C102.403 58.9102 102.778 58.251 103.259 57.7061C103.739 57.1611 104.313 56.7451 104.981 56.458C105.649 56.1709 106.385 56.0273 107.188 56.0273C107.996 56.0273 108.731 56.1709 109.394 56.458C110.062 56.7451 110.639 57.1611 111.125 57.7061C111.611 58.251 111.986 58.9102 112.25 59.6836C112.514 60.4512 112.646 61.3242 112.646 62.3027ZM109.982 62.9092V62.2852C109.982 61.6055 109.918 61.0078 109.789 60.4922C109.666 59.9766 109.484 59.543 109.244 59.1914C109.01 58.8398 108.72 58.5762 108.374 58.4004C108.028 58.2188 107.633 58.1279 107.188 58.1279C106.742 58.1279 106.347 58.2188 106.001 58.4004C105.655 58.5762 105.365 58.8398 105.131 59.1914C104.896 59.543 104.718 59.9766 104.595 60.4922C104.472 61.0078 104.41 61.6055 104.41 62.2852V62.9092C104.41 63.583 104.472 64.1807 104.595 64.7021C104.718 65.2178 104.896 65.6543 105.131 66.0117C105.371 66.3633 105.664 66.6299 106.01 66.8115C106.361 66.9932 106.76 67.084 107.205 67.084C107.65 67.084 108.043 66.9932 108.383 66.8115C108.729 66.6299 109.019 66.3633 109.253 66.0117C109.493 65.6543 109.675 65.2178 109.798 64.7021C109.921 64.1807 109.982 63.583 109.982 62.9092ZM120.02 66.7236V59.4902H122.551V69H120.169L120.02 66.7236ZM120.301 64.7725L121.048 64.7549C121.048 65.3877 120.975 65.9766 120.828 66.5215C120.682 67.0605 120.462 67.5293 120.169 67.9277C119.876 68.3203 119.507 68.6279 119.062 68.8506C118.616 69.0674 118.092 69.1758 117.488 69.1758C117.025 69.1758 116.598 69.1113 116.205 68.9824C115.818 68.8477 115.484 68.6396 115.203 68.3584C114.928 68.0713 114.711 67.7051 114.553 67.2598C114.4 66.8086 114.324 66.2666 114.324 65.6338V59.4902H116.855V65.6514C116.855 65.9326 116.888 66.1699 116.952 66.3633C117.022 66.5566 117.119 66.7148 117.242 66.8379C117.365 66.9609 117.509 67.0488 117.673 67.1016C117.843 67.1543 118.03 67.1807 118.235 67.1807C118.757 67.1807 119.167 67.0752 119.466 66.8643C119.771 66.6533 119.984 66.3662 120.107 66.0029C120.236 65.6338 120.301 65.2236 120.301 64.7725ZM129.617 66.8555V62.6191C129.617 62.3145 129.567 62.0537 129.468 61.8369C129.368 61.6143 129.213 61.4414 129.002 61.3184C128.797 61.1953 128.53 61.1338 128.202 61.1338C127.921 61.1338 127.678 61.1836 127.473 61.2832C127.268 61.377 127.109 61.5146 126.998 61.6963C126.887 61.8721 126.831 62.0801 126.831 62.3203H124.3C124.3 61.916 124.394 61.5322 124.581 61.1689C124.769 60.8057 125.041 60.4863 125.398 60.2109C125.756 59.9297 126.181 59.71 126.673 59.5518C127.171 59.3936 127.728 59.3145 128.343 59.3145C129.081 59.3145 129.737 59.4375 130.312 59.6836C130.886 59.9297 131.337 60.2988 131.665 60.791C131.999 61.2832 132.166 61.8984 132.166 62.6367V66.7061C132.166 67.2275 132.198 67.6553 132.263 67.9893C132.327 68.3174 132.421 68.6045 132.544 68.8506V69H129.986C129.863 68.7422 129.77 68.4199 129.705 68.0332C129.646 67.6406 129.617 67.248 129.617 66.8555ZM129.951 63.208L129.969 64.6406H128.554C128.22 64.6406 127.93 64.6787 127.684 64.7549C127.438 64.8311 127.235 64.9395 127.077 65.0801C126.919 65.2148 126.802 65.373 126.726 65.5547C126.655 65.7363 126.62 65.9355 126.62 66.1523C126.62 66.3691 126.67 66.5654 126.77 66.7412C126.869 66.9111 127.013 67.0459 127.2 67.1455C127.388 67.2393 127.607 67.2861 127.859 67.2861C128.24 67.2861 128.571 67.21 128.853 67.0576C129.134 66.9053 129.351 66.7178 129.503 66.4951C129.661 66.2725 129.743 66.0615 129.749 65.8623L130.417 66.9346C130.323 67.1748 130.194 67.4238 130.03 67.6816C129.872 67.9395 129.67 68.1826 129.424 68.4111C129.178 68.6338 128.882 68.8184 128.536 68.9648C128.19 69.1055 127.78 69.1758 127.306 69.1758C126.702 69.1758 126.154 69.0557 125.662 68.8154C125.176 68.5693 124.789 68.2324 124.502 67.8047C124.221 67.3711 124.08 66.8789 124.08 66.3281C124.08 65.8301 124.174 65.3877 124.361 65.001C124.549 64.6143 124.824 64.2891 125.188 64.0254C125.557 63.7559 126.017 63.5537 126.567 63.4189C127.118 63.2783 127.757 63.208 128.483 63.208H129.951ZM141.078 61.5205V69H138.547V59.4902H140.92L141.078 61.5205ZM140.709 63.9111H140.023C140.023 63.208 140.114 62.5752 140.296 62.0127C140.478 61.4443 140.732 60.9609 141.061 60.5625C141.389 60.1582 141.778 59.8506 142.229 59.6396C142.687 59.4229 143.196 59.3145 143.759 59.3145C144.204 59.3145 144.611 59.3789 144.98 59.5078C145.35 59.6367 145.666 59.8418 145.93 60.123C146.199 60.4043 146.404 60.7764 146.545 61.2393C146.691 61.7021 146.765 62.2676 146.765 62.9355V69H144.216V62.9268C144.216 62.5049 144.157 62.1768 144.04 61.9424C143.923 61.708 143.75 61.5439 143.521 61.4502C143.299 61.3506 143.023 61.3008 142.695 61.3008C142.355 61.3008 142.06 61.3682 141.808 61.5029C141.562 61.6377 141.356 61.8252 141.192 62.0654C141.034 62.2998 140.914 62.5752 140.832 62.8916C140.75 63.208 140.709 63.5479 140.709 63.9111ZM154.71 59.4902H157.004V68.6836C157.004 69.5508 156.811 70.2861 156.424 70.8896C156.043 71.499 155.51 71.959 154.824 72.2695C154.139 72.5859 153.342 72.7441 152.434 72.7441C152.035 72.7441 151.613 72.6914 151.168 72.5859C150.729 72.4805 150.307 72.3164 149.902 72.0938C149.504 71.8711 149.17 71.5898 148.9 71.25L150.017 69.7559C150.31 70.0957 150.649 70.3594 151.036 70.5469C151.423 70.7402 151.851 70.8369 152.319 70.8369C152.776 70.8369 153.163 70.752 153.479 70.582C153.796 70.418 154.039 70.1748 154.209 69.8525C154.379 69.5361 154.464 69.1523 154.464 68.7012V61.6875L154.71 59.4902ZM148.312 64.3594V64.1748C148.312 63.4482 148.399 62.7891 148.575 62.1973C148.757 61.5996 149.012 61.0869 149.34 60.6592C149.674 60.2314 150.078 59.9004 150.553 59.666C151.027 59.4316 151.563 59.3145 152.161 59.3145C152.794 59.3145 153.324 59.4316 153.752 59.666C154.18 59.9004 154.531 60.2344 154.807 60.668C155.082 61.0957 155.296 61.6025 155.448 62.1885C155.606 62.7686 155.729 63.4043 155.817 64.0957V64.5C155.729 65.1621 155.598 65.7773 155.422 66.3457C155.246 66.9141 155.015 67.4121 154.728 67.8398C154.44 68.2617 154.083 68.5898 153.655 68.8242C153.233 69.0586 152.729 69.1758 152.144 69.1758C151.558 69.1758 151.027 69.0557 150.553 68.8154C150.084 68.5752 149.683 68.2383 149.349 67.8047C149.015 67.3711 148.757 66.8613 148.575 66.2754C148.399 65.6895 148.312 65.0508 148.312 64.3594ZM150.843 64.1748V64.3594C150.843 64.752 150.881 65.1182 150.957 65.458C151.033 65.7979 151.15 66.0996 151.309 66.3633C151.473 66.6211 151.675 66.8232 151.915 66.9697C152.161 67.1104 152.451 67.1807 152.785 67.1807C153.248 67.1807 153.626 67.084 153.919 66.8906C154.212 66.6914 154.432 66.4189 154.578 66.0732C154.725 65.7275 154.81 65.3291 154.833 64.8779V63.7266C154.821 63.3574 154.771 63.0264 154.684 62.7334C154.596 62.4346 154.473 62.1797 154.314 61.9688C154.156 61.7578 153.951 61.5938 153.699 61.4766C153.447 61.3594 153.148 61.3008 152.803 61.3008C152.469 61.3008 152.179 61.377 151.933 61.5293C151.692 61.6758 151.49 61.8779 151.326 62.1357C151.168 62.3936 151.048 62.6982 150.966 63.0498C150.884 63.3955 150.843 63.7705 150.843 64.1748ZM164.105 66.8555V62.6191C164.105 62.3145 164.056 62.0537 163.956 61.8369C163.856 61.6143 163.701 61.4414 163.49 61.3184C163.285 61.1953 163.019 61.1338 162.69 61.1338C162.409 61.1338 162.166 61.1836 161.961 61.2832C161.756 61.377 161.598 61.5146 161.486 61.6963C161.375 61.8721 161.319 62.0801 161.319 62.3203H158.788C158.788 61.916 158.882 61.5322 159.069 61.1689C159.257 60.8057 159.529 60.4863 159.887 60.2109C160.244 59.9297 160.669 59.71 161.161 59.5518C161.659 59.3936 162.216 59.3145 162.831 59.3145C163.569 59.3145 164.226 59.4375 164.8 59.6836C165.374 59.9297 165.825 60.2988 166.153 60.791C166.487 61.2832 166.654 61.8984 166.654 62.6367V66.7061C166.654 67.2275 166.687 67.6553 166.751 67.9893C166.815 68.3174 166.909 68.6045 167.032 68.8506V69H164.475C164.352 68.7422 164.258 68.4199 164.193 68.0332C164.135 67.6406 164.105 67.248 164.105 66.8555ZM164.439 63.208L164.457 64.6406H163.042C162.708 64.6406 162.418 64.6787 162.172 64.7549C161.926 64.8311 161.724 64.9395 161.565 65.0801C161.407 65.2148 161.29 65.373 161.214 65.5547C161.144 65.7363 161.108 65.9355 161.108 66.1523C161.108 66.3691 161.158 66.5654 161.258 66.7412C161.357 66.9111 161.501 67.0459 161.688 67.1455C161.876 67.2393 162.096 67.2861 162.348 67.2861C162.729 67.2861 163.06 67.21 163.341 67.0576C163.622 66.9053 163.839 66.7178 163.991 66.4951C164.149 66.2725 164.231 66.0615 164.237 65.8623L164.905 66.9346C164.812 67.1748 164.683 67.4238 164.519 67.6816C164.36 67.9395 164.158 68.1826 163.912 68.4111C163.666 68.6338 163.37 68.8184 163.024 68.9648C162.679 69.1055 162.269 69.1758 161.794 69.1758C161.19 69.1758 160.643 69.0557 160.15 68.8154C159.664 68.5693 159.277 68.2324 158.99 67.8047C158.709 67.3711 158.568 66.8789 158.568 66.3281C158.568 65.8301 158.662 65.3877 158.85 65.001C159.037 64.6143 159.312 64.2891 159.676 64.0254C160.045 63.7559 160.505 63.5537 161.056 63.4189C161.606 63.2783 162.245 63.208 162.972 63.208H164.439ZM163.561 55.5L166.215 57.9434V58.0488H164.202L162.822 56.7656L161.46 58.0488H159.482V57.917L162.093 55.5H163.561ZM171.084 61.5205V69H168.553V59.4902H170.926L171.084 61.5205ZM170.715 63.9111H170.029C170.029 63.208 170.12 62.5752 170.302 62.0127C170.483 61.4443 170.738 60.9609 171.066 60.5625C171.395 60.1582 171.784 59.8506 172.235 59.6396C172.692 59.4229 173.202 59.3145 173.765 59.3145C174.21 59.3145 174.617 59.3789 174.986 59.5078C175.355 59.6367 175.672 59.8418 175.936 60.123C176.205 60.4043 176.41 60.7764 176.551 61.2393C176.697 61.7021 176.771 62.2676 176.771 62.9355V69H174.222V62.9268C174.222 62.5049 174.163 62.1768 174.046 61.9424C173.929 61.708 173.756 61.5439 173.527 61.4502C173.305 61.3506 173.029 61.3008 172.701 61.3008C172.361 61.3008 172.065 61.3682 171.813 61.5029C171.567 61.6377 171.362 61.8252 171.198 62.0654C171.04 62.2998 170.92 62.5752 170.838 62.8916C170.756 63.208 170.715 63.5479 170.715 63.9111ZM185.647 55.5V69H183.116V55.5H185.647ZM185.287 63.9111H184.593C184.599 63.249 184.687 62.6396 184.856 62.083C185.026 61.5205 185.27 61.0342 185.586 60.624C185.902 60.208 186.28 59.8857 186.72 59.6572C187.165 59.4287 187.657 59.3145 188.196 59.3145C188.665 59.3145 189.09 59.3818 189.471 59.5166C189.857 59.6455 190.188 59.8564 190.464 60.1494C190.745 60.4365 190.962 60.8145 191.114 61.2832C191.267 61.752 191.343 62.3203 191.343 62.9883V69H188.794V62.9707C188.794 62.5488 188.732 62.2178 188.609 61.9775C188.492 61.7314 188.319 61.5586 188.091 61.459C187.868 61.3535 187.593 61.3008 187.265 61.3008C186.901 61.3008 186.591 61.3682 186.333 61.5029C186.081 61.6377 185.879 61.8252 185.727 62.0654C185.574 62.2998 185.463 62.5752 185.393 62.8916C185.322 63.208 185.287 63.5479 185.287 63.9111ZM198.4 66.8555V62.6191C198.4 62.3145 198.351 62.0537 198.251 61.8369C198.151 61.6143 197.996 61.4414 197.785 61.3184C197.58 61.1953 197.313 61.1338 196.985 61.1338C196.704 61.1338 196.461 61.1836 196.256 61.2832C196.051 61.377 195.893 61.5146 195.781 61.6963C195.67 61.8721 195.614 62.0801 195.614 62.3203H193.083C193.083 61.916 193.177 61.5322 193.364 61.1689C193.552 60.8057 193.824 60.4863 194.182 60.2109C194.539 59.9297 194.964 59.71 195.456 59.5518C195.954 59.3936 196.511 59.3145 197.126 59.3145C197.864 59.3145 198.521 59.4375 199.095 59.6836C199.669 59.9297 200.12 60.2988 200.448 60.791C200.782 61.2832 200.949 61.8984 200.949 62.6367V66.7061C200.949 67.2275 200.981 67.6553 201.046 67.9893C201.11 68.3174 201.204 68.6045 201.327 68.8506V69H198.77C198.646 68.7422 198.553 68.4199 198.488 68.0332C198.43 67.6406 198.4 67.248 198.4 66.8555ZM198.734 63.208L198.752 64.6406H197.337C197.003 64.6406 196.713 64.6787 196.467 64.7549C196.221 64.8311 196.019 64.9395 195.86 65.0801C195.702 65.2148 195.585 65.373 195.509 65.5547C195.438 65.7363 195.403 65.9355 195.403 66.1523C195.403 66.3691 195.453 66.5654 195.553 66.7412C195.652 66.9111 195.796 67.0459 195.983 67.1455C196.171 67.2393 196.391 67.2861 196.643 67.2861C197.023 67.2861 197.354 67.21 197.636 67.0576C197.917 66.9053 198.134 66.7178 198.286 66.4951C198.444 66.2725 198.526 66.0615 198.532 65.8623L199.2 66.9346C199.106 67.1748 198.978 67.4238 198.813 67.6816C198.655 67.9395 198.453 68.1826 198.207 68.4111C197.961 68.6338 197.665 68.8184 197.319 68.9648C196.974 69.1055 196.563 69.1758 196.089 69.1758C195.485 69.1758 194.938 69.0557 194.445 68.8154C193.959 68.5693 193.572 68.2324 193.285 67.8047C193.004 67.3711 192.863 66.8789 192.863 66.3281C192.863 65.8301 192.957 65.3877 193.145 65.001C193.332 64.6143 193.607 64.2891 193.971 64.0254C194.34 63.7559 194.8 63.5537 195.351 63.4189C195.901 63.2783 196.54 63.208 197.267 63.208H198.734ZM196.634 55.5L198.365 58.207H196.291L193.883 55.5H196.634ZM205.379 61.5205V69H202.848V59.4902H205.221L205.379 61.5205ZM205.01 63.9111H204.324C204.324 63.208 204.415 62.5752 204.597 62.0127C204.778 61.4443 205.033 60.9609 205.361 60.5625C205.689 60.1582 206.079 59.8506 206.53 59.6396C206.987 59.4229 207.497 59.3145 208.06 59.3145C208.505 59.3145 208.912 59.3789 209.281 59.5078C209.65 59.6367 209.967 59.8418 210.23 60.123C210.5 60.4043 210.705 60.7764 210.846 61.2393C210.992 61.7021 211.065 62.2676 211.065 62.9355V69H208.517V62.9268C208.517 62.5049 208.458 62.1768 208.341 61.9424C208.224 61.708 208.051 61.5439 207.822 61.4502C207.6 61.3506 207.324 61.3008 206.996 61.3008C206.656 61.3008 206.36 61.3682 206.108 61.5029C205.862 61.6377 205.657 61.8252 205.493 62.0654C205.335 62.2998 205.215 62.5752 205.133 62.8916C205.051 63.208 205.01 63.5479 205.01 63.9111ZM219.011 59.4902H221.305V68.6836C221.305 69.5508 221.111 70.2861 220.725 70.8896C220.344 71.499 219.811 71.959 219.125 72.2695C218.439 72.5859 217.643 72.7441 216.734 72.7441C216.336 72.7441 215.914 72.6914 215.469 72.5859C215.029 72.4805 214.607 72.3164 214.203 72.0938C213.805 71.8711 213.471 71.5898 213.201 71.25L214.317 69.7559C214.61 70.0957 214.95 70.3594 215.337 70.5469C215.724 70.7402 216.151 70.8369 216.62 70.8369C217.077 70.8369 217.464 70.752 217.78 70.582C218.097 70.418 218.34 70.1748 218.51 69.8525C218.68 69.5361 218.765 69.1523 218.765 68.7012V61.6875L219.011 59.4902ZM212.612 64.3594V64.1748C212.612 63.4482 212.7 62.7891 212.876 62.1973C213.058 61.5996 213.312 61.0869 213.641 60.6592C213.975 60.2314 214.379 59.9004 214.854 59.666C215.328 59.4316 215.864 59.3145 216.462 59.3145C217.095 59.3145 217.625 59.4316 218.053 59.666C218.48 59.9004 218.832 60.2344 219.107 60.668C219.383 61.0957 219.597 61.6025 219.749 62.1885C219.907 62.7686 220.03 63.4043 220.118 64.0957V64.5C220.03 65.1621 219.898 65.7773 219.723 66.3457C219.547 66.9141 219.315 67.4121 219.028 67.8398C218.741 68.2617 218.384 68.5898 217.956 68.8242C217.534 69.0586 217.03 69.1758 216.444 69.1758C215.858 69.1758 215.328 69.0557 214.854 68.8154C214.385 68.5752 213.983 68.2383 213.649 67.8047C213.315 67.3711 213.058 66.8613 212.876 66.2754C212.7 65.6895 212.612 65.0508 212.612 64.3594ZM215.144 64.1748V64.3594C215.144 64.752 215.182 65.1182 215.258 65.458C215.334 65.7979 215.451 66.0996 215.609 66.3633C215.773 66.6211 215.976 66.8232 216.216 66.9697C216.462 67.1104 216.752 67.1807 217.086 67.1807C217.549 67.1807 217.927 67.084 218.22 66.8906C218.513 66.6914 218.732 66.4189 218.879 66.0732C219.025 65.7275 219.11 65.3291 219.134 64.8779V63.7266C219.122 63.3574 219.072 63.0264 218.984 62.7334C218.896 62.4346 218.773 62.1797 218.615 61.9688C218.457 61.7578 218.252 61.5938 218 61.4766C217.748 61.3594 217.449 61.3008 217.104 61.3008C216.77 61.3008 216.479 61.377 216.233 61.5293C215.993 61.6758 215.791 61.8779 215.627 62.1357C215.469 62.3936 215.349 62.6982 215.267 63.0498C215.185 63.3955 215.144 63.7705 215.144 64.1748Z" fill="white"/>
<path d="M107.864 30.2031V43H105.236V30.2031H107.864ZM111.802 30.2031V32.2686H101.36V30.2031H111.802ZM115.616 29.5V43H113.085V29.5H115.616ZM115.256 37.9111H114.562C114.567 37.249 114.655 36.6396 114.825 36.083C114.995 35.5205 115.238 35.0342 115.555 34.624C115.871 34.208 116.249 33.8857 116.688 33.6572C117.134 33.4287 117.626 33.3145 118.165 33.3145C118.634 33.3145 119.059 33.3818 119.439 33.5166C119.826 33.6455 120.157 33.8564 120.433 34.1494C120.714 34.4365 120.931 34.8145 121.083 35.2832C121.235 35.752 121.312 36.3203 121.312 36.9883V43H118.763V36.9707C118.763 36.5488 118.701 36.2178 118.578 35.9775C118.461 35.7314 118.288 35.5586 118.06 35.459C117.837 35.3535 117.562 35.3008 117.233 35.3008C116.87 35.3008 116.56 35.3682 116.302 35.5029C116.05 35.6377 115.848 35.8252 115.695 36.0654C115.543 36.2998 115.432 36.5752 115.361 36.8916C115.291 37.208 115.256 37.5479 115.256 37.9111ZM128.369 40.8555V36.6191C128.369 36.3145 128.319 36.0537 128.22 35.8369C128.12 35.6143 127.965 35.4414 127.754 35.3184C127.549 35.1953 127.282 35.1338 126.954 35.1338C126.673 35.1338 126.43 35.1836 126.225 35.2832C126.02 35.377 125.861 35.5146 125.75 35.6963C125.639 35.8721 125.583 36.0801 125.583 36.3203H123.052C123.052 35.916 123.146 35.5322 123.333 35.1689C123.521 34.8057 123.793 34.4863 124.15 34.2109C124.508 33.9297 124.933 33.71 125.425 33.5518C125.923 33.3936 126.479 33.3145 127.095 33.3145C127.833 33.3145 128.489 33.4375 129.063 33.6836C129.638 33.9297 130.089 34.2988 130.417 34.791C130.751 35.2832 130.918 35.8984 130.918 36.6367V40.7061C130.918 41.2275 130.95 41.6553 131.015 41.9893C131.079 42.3174 131.173 42.6045 131.296 42.8506V43H128.738C128.615 42.7422 128.521 42.4199 128.457 42.0332C128.398 41.6406 128.369 41.248 128.369 40.8555ZM128.703 37.208L128.721 38.6406H127.306C126.972 38.6406 126.682 38.6787 126.436 38.7549C126.189 38.8311 125.987 38.9395 125.829 39.0801C125.671 39.2148 125.554 39.373 125.478 39.5547C125.407 39.7363 125.372 39.9355 125.372 40.1523C125.372 40.3691 125.422 40.5654 125.521 40.7412C125.621 40.9111 125.765 41.0459 125.952 41.1455C126.14 41.2393 126.359 41.2861 126.611 41.2861C126.992 41.2861 127.323 41.21 127.604 41.0576C127.886 40.9053 128.103 40.7178 128.255 40.4951C128.413 40.2725 128.495 40.0615 128.501 39.8623L129.169 40.9346C129.075 41.1748 128.946 41.4238 128.782 41.6816C128.624 41.9395 128.422 42.1826 128.176 42.4111C127.93 42.6338 127.634 42.8184 127.288 42.9648C126.942 43.1055 126.532 43.1758 126.058 43.1758C125.454 43.1758 124.906 43.0557 124.414 42.8154C123.928 42.5693 123.541 42.2324 123.254 41.8047C122.973 41.3711 122.832 40.8789 122.832 40.3281C122.832 39.8301 122.926 39.3877 123.113 39.001C123.301 38.6143 123.576 38.2891 123.939 38.0254C124.309 37.7559 124.769 37.5537 125.319 37.4189C125.87 37.2783 126.509 37.208 127.235 37.208H128.703ZM135.348 35.5205V43H132.816V33.4902H135.189L135.348 35.5205ZM134.979 37.9111H134.293C134.293 37.208 134.384 36.5752 134.565 36.0127C134.747 35.4443 135.002 34.9609 135.33 34.5625C135.658 34.1582 136.048 33.8506 136.499 33.6396C136.956 33.4229 137.466 33.3145 138.028 33.3145C138.474 33.3145 138.881 33.3789 139.25 33.5078C139.619 33.6367 139.936 33.8418 140.199 34.123C140.469 34.4043 140.674 34.7764 140.814 35.2393C140.961 35.7021 141.034 36.2676 141.034 36.9355V43H138.485V36.9268C138.485 36.5049 138.427 36.1768 138.31 35.9424C138.192 35.708 138.02 35.5439 137.791 35.4502C137.568 35.3506 137.293 35.3008 136.965 35.3008C136.625 35.3008 136.329 35.3682 136.077 35.5029C135.831 35.6377 135.626 35.8252 135.462 36.0654C135.304 36.2998 135.184 36.5752 135.102 36.8916C135.02 37.208 134.979 37.5479 134.979 37.9111ZM145.429 29.5V43H142.897V29.5H145.429ZM145.068 37.9111H144.374C144.38 37.249 144.468 36.6396 144.638 36.083C144.808 35.5205 145.051 35.0342 145.367 34.624C145.684 34.208 146.062 33.8857 146.501 33.6572C146.946 33.4287 147.438 33.3145 147.978 33.3145C148.446 33.3145 148.871 33.3818 149.252 33.5166C149.639 33.6455 149.97 33.8564 150.245 34.1494C150.526 34.4365 150.743 34.8145 150.896 35.2832C151.048 35.752 151.124 36.3203 151.124 36.9883V43H148.575V36.9707C148.575 36.5488 148.514 36.2178 148.391 35.9775C148.273 35.7314 148.101 35.5586 147.872 35.459C147.649 35.3535 147.374 35.3008 147.046 35.3008C146.683 35.3008 146.372 35.3682 146.114 35.5029C145.862 35.6377 145.66 35.8252 145.508 36.0654C145.355 36.2998 145.244 36.5752 145.174 36.8916C145.104 37.208 145.068 37.5479 145.068 37.9111ZM162.189 33.4902V35.2832H156.652V33.4902H162.189ZM158.023 31.1436H160.555V40.1348C160.555 40.4102 160.59 40.6211 160.66 40.7676C160.736 40.9141 160.848 41.0166 160.994 41.0752C161.141 41.1279 161.325 41.1543 161.548 41.1543C161.706 41.1543 161.847 41.1484 161.97 41.1367C162.099 41.1191 162.207 41.1016 162.295 41.084L162.304 42.9473C162.087 43.0176 161.853 43.0732 161.601 43.1143C161.349 43.1553 161.07 43.1758 160.766 43.1758C160.209 43.1758 159.723 43.085 159.307 42.9033C158.896 42.7158 158.58 42.417 158.357 42.0068C158.135 41.5967 158.023 41.0576 158.023 40.3896V31.1436ZM162.998 38.3418V38.1572C162.998 37.46 163.098 36.8184 163.297 36.2324C163.496 35.6406 163.786 35.1279 164.167 34.6943C164.548 34.2607 165.017 33.9238 165.573 33.6836C166.13 33.4375 166.769 33.3145 167.489 33.3145C168.21 33.3145 168.852 33.4375 169.414 33.6836C169.977 33.9238 170.448 34.2607 170.829 34.6943C171.216 35.1279 171.509 35.6406 171.708 36.2324C171.907 36.8184 172.007 37.46 172.007 38.1572V38.3418C172.007 39.0332 171.907 39.6748 171.708 40.2666C171.509 40.8525 171.216 41.3652 170.829 41.8047C170.448 42.2383 169.979 42.5752 169.423 42.8154C168.866 43.0557 168.228 43.1758 167.507 43.1758C166.786 43.1758 166.145 43.0557 165.582 42.8154C165.025 42.5752 164.554 42.2383 164.167 41.8047C163.786 41.3652 163.496 40.8525 163.297 40.2666C163.098 39.6748 162.998 39.0332 162.998 38.3418ZM165.529 38.1572V38.3418C165.529 38.7402 165.564 39.1123 165.635 39.458C165.705 39.8037 165.816 40.1084 165.969 40.3721C166.127 40.6299 166.332 40.832 166.584 40.9785C166.836 41.125 167.144 41.1982 167.507 41.1982C167.858 41.1982 168.16 41.125 168.412 40.9785C168.664 40.832 168.866 40.6299 169.019 40.3721C169.171 40.1084 169.282 39.8037 169.353 39.458C169.429 39.1123 169.467 38.7402 169.467 38.3418V38.1572C169.467 37.7705 169.429 37.4072 169.353 37.0674C169.282 36.7217 169.168 36.417 169.01 36.1533C168.857 35.8838 168.655 35.6729 168.403 35.5205C168.151 35.3682 167.847 35.292 167.489 35.292C167.132 35.292 166.827 35.3682 166.575 35.5205C166.329 35.6729 166.127 35.8838 165.969 36.1533C165.816 36.417 165.705 36.7217 165.635 37.0674C165.564 37.4072 165.529 37.7705 165.529 38.1572ZM178.695 40.8555V36.6191C178.695 36.3145 178.646 36.0537 178.546 35.8369C178.446 35.6143 178.291 35.4414 178.08 35.3184C177.875 35.1953 177.608 35.1338 177.28 35.1338C176.999 35.1338 176.756 35.1836 176.551 35.2832C176.346 35.377 176.188 35.5146 176.076 35.6963C175.965 35.8721 175.909 36.0801 175.909 36.3203H173.378C173.378 35.916 173.472 35.5322 173.659 35.1689C173.847 34.8057 174.119 34.4863 174.477 34.2109C174.834 33.9297 175.259 33.71 175.751 33.5518C176.249 33.3936 176.806 33.3145 177.421 33.3145C178.159 33.3145 178.815 33.4375 179.39 33.6836C179.964 33.9297 180.415 34.2988 180.743 34.791C181.077 35.2832 181.244 35.8984 181.244 36.6367V40.7061C181.244 41.2275 181.276 41.6553 181.341 41.9893C181.405 42.3174 181.499 42.6045 181.622 42.8506V43H179.064C178.941 42.7422 178.848 42.4199 178.783 42.0332C178.725 41.6406 178.695 41.248 178.695 40.8555ZM179.029 37.208L179.047 38.6406H177.632C177.298 38.6406 177.008 38.6787 176.762 38.7549C176.516 38.8311 176.313 38.9395 176.155 39.0801C175.997 39.2148 175.88 39.373 175.804 39.5547C175.733 39.7363 175.698 39.9355 175.698 40.1523C175.698 40.3691 175.748 40.5654 175.848 40.7412C175.947 40.9111 176.091 41.0459 176.278 41.1455C176.466 41.2393 176.686 41.2861 176.938 41.2861C177.318 41.2861 177.649 41.21 177.931 41.0576C178.212 40.9053 178.429 40.7178 178.581 40.4951C178.739 40.2725 178.821 40.0615 178.827 39.8623L179.495 40.9346C179.401 41.1748 179.272 41.4238 179.108 41.6816C178.95 41.9395 178.748 42.1826 178.502 42.4111C178.256 42.6338 177.96 42.8184 177.614 42.9648C177.269 43.1055 176.858 43.1758 176.384 43.1758C175.78 43.1758 175.232 43.0557 174.74 42.8154C174.254 42.5693 173.867 42.2324 173.58 41.8047C173.299 41.3711 173.158 40.8789 173.158 40.3281C173.158 39.8301 173.252 39.3877 173.439 39.001C173.627 38.6143 173.902 38.2891 174.266 38.0254C174.635 37.7559 175.095 37.5537 175.646 37.4189C176.196 37.2783 176.835 37.208 177.562 37.208H179.029ZM176.208 32.207L177.931 29.5H180.682L178.265 32.207H176.208ZM185.674 35.5205V43H183.143V33.4902H185.516L185.674 35.5205ZM185.305 37.9111H184.619C184.619 37.208 184.71 36.5752 184.892 36.0127C185.073 35.4443 185.328 34.9609 185.656 34.5625C185.984 34.1582 186.374 33.8506 186.825 33.6396C187.282 33.4229 187.792 33.3145 188.354 33.3145C188.8 33.3145 189.207 33.3789 189.576 33.5078C189.945 33.6367 190.262 33.8418 190.525 34.123C190.795 34.4043 191 34.7764 191.141 35.2393C191.287 35.7021 191.36 36.2676 191.36 36.9355V43H188.812V36.9268C188.812 36.5049 188.753 36.1768 188.636 35.9424C188.519 35.708 188.346 35.5439 188.117 35.4502C187.895 35.3506 187.619 35.3008 187.291 35.3008C186.951 35.3008 186.655 35.3682 186.403 35.5029C186.157 35.6377 185.952 35.8252 185.788 36.0654C185.63 36.2998 185.51 36.5752 185.428 36.8916C185.346 37.208 185.305 37.5479 185.305 37.9111Z" fill="white"/>
<path d="M76.1031 51.9985L39.7462 72.0076C37.753 73.1045 35.248 72.378 34.151 70.3848L23.0718 50.2535C21.9748 48.2604 22.7014 45.7553 24.6945 44.6584L61.0515 24.6493C63.0446 23.5523 65.5497 24.2789 66.6466 26.272L77.7259 46.4033C78.8228 48.3965 78.0963 50.9015 76.1031 51.9985Z" fill="#FEBC1F"/>
<path d="M75.3082 50.5557L38.9513 70.5648C36.9581 71.6618 34.4531 70.9352 33.3561 68.942L22.2768 48.8108C21.1799 46.8176 21.9064 44.3126 23.8996 43.2156L60.2565 23.2065C62.2497 22.1096 64.7547 22.8361 65.8517 24.8293L76.931 44.9606C78.0279 46.9537 77.3014 49.4588 75.3082 50.5557Z" fill="#FFD475"/>
<path d="M60.2565 23.2065L23.8996 43.2156C21.9064 44.3126 21.1799 46.8176 22.2768 48.8108L33.3561 68.9421C33.3561 68.9421 23.0324 49.1986 63.9322 23.0634C62.7923 22.5512 61.4357 22.5575 60.2565 23.2065Z" fill="#FEBC1F"/>
<path d="M25.5326 51.2795L26.9238 53.8074C27.2745 54.4447 28.0754 54.6769 28.7126 54.3262L67.0666 33.2181C67.7038 32.8674 67.9361 32.0665 67.5854 31.4293L66.1941 28.9014C65.8434 28.2641 65.0426 28.0319 64.4053 28.3826L26.0514 49.4907C25.4142 49.8414 25.1819 50.6423 25.5326 51.2795Z" fill="#1D2943"/>
<path d="M25.1478 50.5789L26.5391 53.1068C26.8898 53.744 27.6906 53.9763 28.3279 53.6256L66.6818 32.5175C67.319 32.1668 67.5513 31.3659 67.2006 30.7287L65.8094 28.2007C65.4587 27.5635 64.6578 27.3312 64.0206 27.6819L25.6666 48.7901C25.0294 49.1408 24.7971 49.9417 25.1478 50.5789Z" fill="#4C5C75"/>
<path d="M69.5289 77.3046L28.0296 77.3046C25.7545 77.3046 23.9102 75.4603 23.9102 73.1852L23.9102 50.2066C23.9102 47.9315 25.7545 46.0872 28.0296 46.0872L69.5289 46.0872C71.8039 46.0872 73.6483 47.9315 73.6483 50.2066L73.6483 73.1852C73.6483 75.4603 71.804 77.3046 69.5289 77.3046Z" fill="#5094FF"/>
<path d="M28.0296 75.6579L69.5289 75.6579C71.8039 75.6579 73.6483 73.8136 73.6483 71.5385L73.6483 48.5599C73.6483 46.2848 71.804 44.4404 69.5289 44.4404L28.0296 44.4404C25.7545 44.4404 23.9102 46.2848 23.9102 48.5598L23.9102 71.5385C23.9102 73.8136 25.7545 75.6579 28.0296 75.6579Z" fill="#57B3FE"/>
<path d="M28.0292 44.4404L69.5285 44.4404C71.8036 44.4404 73.6479 46.2848 73.6479 48.5598L73.6479 71.5385C73.6479 71.5385 73.1729 49.2639 24.74 46.0872C25.4917 45.0889 26.6832 44.4404 28.0292 44.4404Z" fill="#5094FF"/>
<path d="M70.4188 68.2644V68.9038H70.4103C70.4269 69.7684 69.7057 70.4946 68.8363 70.4946L64.6567 70.4946C63.8027 70.4946 63.0658 69.7817 63.0827 68.9038H63.0742V68.2644H63.1763C63.4231 67.6434 64.0952 67.218 64.8013 67.218L68.6917 67.218C69.3978 67.218 70.07 67.6434 70.3167 68.2644H70.4188Z" fill="#E3E7F0"/>
<path d="M68.8325 69.8601L64.7922 69.8602C63.9782 69.8602 63.2089 69.3074 63.0946 68.5015C62.9555 67.52 63.7146 66.6779 64.6692 66.6779L68.6937 66.6779C69.5569 66.6778 70.3608 67.3043 70.4134 68.1659C70.4717 69.1224 69.7155 69.8601 68.8325 69.8601Z" fill="white"/>
<path d="M58.4403 68.2644V68.9038H58.4318C58.4484 69.7684 57.7272 70.4946 56.8578 70.4946L52.6782 70.4946C51.8242 70.4946 51.0873 69.7817 51.1042 68.9038H51.0957V68.2644H51.1978C51.4446 67.6434 52.1167 67.218 52.8227 67.218L56.7132 67.218C57.4193 67.218 58.0914 67.6434 58.3382 68.2644H58.4403Z" fill="#E3E7F0"/>
<path d="M56.8521 69.8601L52.8117 69.8602C51.9977 69.8602 51.2284 69.3074 51.1142 68.5015C50.975 67.52 51.7341 66.6779 52.6888 66.6779L56.7132 66.6779C57.5764 66.6778 58.3803 67.3043 58.4329 68.1659C58.4913 69.1224 57.735 69.8601 56.8521 69.8601Z" fill="white"/>
<path d="M46.4598 68.2644V68.9038H46.4513C46.468 69.7684 45.7468 70.4946 44.8774 70.4946H40.6977C39.8437 70.4946 39.1068 69.7817 39.1238 68.9038H39.1152V68.2644H39.2173C39.4641 67.6434 40.1363 67.218 40.8423 67.218H44.7327C45.4388 67.218 46.111 67.6434 46.3577 68.2644H46.4598Z" fill="#E3E7F0"/>
<path d="M44.8716 69.8601L40.8313 69.8602C40.0172 69.8602 39.248 69.3074 39.1337 68.5015C38.9945 67.52 39.7536 66.6779 40.7083 66.6779L44.7327 66.6779C45.596 66.6778 46.3999 67.3043 46.4524 68.1659C46.5108 69.1224 45.7545 69.8601 44.8716 69.8601Z" fill="white"/>
<path d="M34.4813 68.2644V68.9038H34.4728C34.4894 69.7684 33.7682 70.4946 32.8988 70.4946L28.7192 70.4946C27.8652 70.4946 27.1283 69.7817 27.1452 68.9038H27.1367V68.2644H27.2388C27.4856 67.6434 28.1577 67.218 28.8638 67.218L32.7542 67.218C33.4603 67.218 34.1325 67.6434 34.3792 68.2644H34.4813Z" fill="#E3E7F0"/>
<path d="M32.895 69.8601L28.8547 69.8602C28.0407 69.8602 27.2714 69.3074 27.1571 68.5015C27.018 67.52 27.7771 66.6779 28.7317 66.6779L32.7562 66.6779C33.6194 66.6778 34.4233 67.3043 34.4759 68.1659C34.5342 69.1224 33.778 69.8601 32.895 69.8601Z" fill="white"/>
<path d="M27.1406 51.6991L27.1406 55.5431C27.1406 56.512 27.9261 57.2975 28.8951 57.2975L36.0927 57.2975C37.0616 57.2975 37.8471 56.512 37.8471 55.543L37.8471 51.6991C37.8471 50.7302 37.0616 49.9447 36.0927 49.9447L28.895 49.9447C27.9261 49.9447 27.1406 50.7302 27.1406 51.6991Z" fill="#FEBC1F"/>
<path d="M27.1406 51.1001L27.1406 54.9441C27.1406 55.913 27.9261 56.6985 28.8951 56.6985L36.0927 56.6985C37.0616 56.6985 37.8471 55.913 37.8471 54.944V51.1001C37.8471 50.1312 37.0616 49.3457 36.0927 49.3457L28.895 49.3457C27.9261 49.3457 27.1406 50.1312 27.1406 51.1001Z" fill="#FFD475"/>
<path d="M32.3074 52.6074V49.3457H31.4741V52.6074H27.1406V53.4407H29.5115V56.6984H30.3448V53.4407H34.097V56.6984H34.9303V53.4407H37.8471V52.6074H32.3074Z" fill="#FEBC1F"/>
<path d="M69.6594 55.485L64.9677 55.485C64.5768 55.4851 64.2073 55.2196 64.1525 54.8325C64.0856 54.3612 64.4502 53.9568 64.9086 53.9568L69.5927 53.9568C70.0073 53.9568 70.3934 54.2576 70.4186 54.6714C70.4466 55.1307 70.0834 55.485 69.6594 55.485Z" fill="white"/>
<path d="M69.6599 52.2138L61.4228 52.2138C61.0318 52.2138 60.6624 51.9484 60.6075 51.5613C60.5407 51.09 60.9052 50.6856 61.3637 50.6856L69.5932 50.6855C70.0077 50.6855 70.3938 50.9864 70.419 51.4002C70.4471 51.8595 70.0839 52.2138 69.6599 52.2138Z" fill="white"/>
<path d="M68.4082 34.4003C70.3693 36.9168 71.9721 39.6516 73.2002 42.5966C71.2362 40.082 69.6392 37.3436 68.4082 34.4003Z" fill="white"/>
<path d="M31.8633 42.5948C34.7211 40.408 37.7989 38.5784 41.0898 37.1221C38.2338 39.3118 35.1525 41.1354 31.8633 42.5948Z" fill="white"/>
<path d="M55.4648 73.5896C59.0383 73.1669 62.6186 73.1633 66.1919 73.5896C62.6186 74.0159 59.0383 74.0125 55.4648 73.5896Z" fill="white"/>
</g>
<defs>
<clipPath id="clip0_617_2253">
<rect width="298" height="100" rx="6" fill="white"/>
</clipPath>
</defs>
</svg>
