<svg width="375" height="100" viewBox="0 0 375 100" fill="none" xmlns="http://www.w3.org/2000/svg">
<g clip-path="url(#clip0_617_1095)">
<rect width="375" height="100" fill="#F1F8FE"/>
<path d="M0 138V-70L207 138C176.898 138 33.5838 138 0 138Z" fill="#E6F3FF"/>
<g clip-path="url(#clip1_617_1095)">
<g opacity="0.6">
<path d="M101.119 56.2109C101.195 56.4266 101.264 56.6439 101.326 56.8623C101.332 56.8837 101.338 56.9045 101.344 56.9253C101.53 57.5969 101.65 58.2834 101.688 58.9721C101.689 58.9967 101.69 59.0213 101.691 59.0454C101.828 61.9884 100.463 64.9708 96.4459 67.0329C95.3779 67.5809 94.8912 68.4787 94.6241 69.6091C94.6181 69.6332 94.6131 69.6562 94.6077 69.6808C94.1692 71.6143 94.34 74.2097 93.3535 76.897C93.3431 76.926 93.3322 76.9545 93.3218 76.9835C91.9817 80.5439 88.5794 84.256 79.0126 86.7944C78.9803 86.8032 78.9486 86.8119 78.9163 86.8202C78.9163 86.8202 78.8807 86.7906 78.815 86.7331C77.7459 85.8041 68.6307 77.6103 70.8456 70.0126C72.5054 64.3182 75.2934 63.635 76.8881 61.5702C76.9017 61.5532 76.9149 61.5362 76.928 61.5182C77.5718 60.6653 78.013 59.5737 78.0935 57.8066C78.3409 52.3778 82.9568 50.083 86.8753 49.9045C86.8966 49.9034 86.918 49.9029 86.9382 49.9018C87.4222 49.8821 87.8946 49.8952 88.3462 49.939C92.4716 50.3364 97.936 42.0862 102.879 44.5978C107.823 47.1088 99.8022 52.4774 101.119 56.2109Z" fill="#CFE6FF"/>
<path d="M103.015 44.8973C102.766 45.0528 102.518 45.2115 102.272 45.3736C100.604 46.4772 99.0235 47.716 97.5241 49.0446C97.5066 49.0594 97.4896 49.0747 97.4721 49.09C96.5771 49.8849 95.711 50.7115 94.8729 51.5611C91.8802 54.5922 89.2301 57.9665 87.0125 61.6036C86.4004 62.6071 85.8262 63.628 85.2886 64.667C85.2809 64.6802 85.2744 64.6939 85.2673 64.7075C84.9476 65.3261 84.641 65.9502 84.3487 66.5803C84.3383 66.6011 84.3284 66.6213 84.3197 66.6416C83.3507 68.7284 82.5258 70.8798 81.8442 73.0897C81.7654 73.3443 81.6887 73.5994 81.6127 73.855C81.6066 73.8747 81.6012 73.8955 81.5951 73.9152C80.7422 76.8007 80.0667 79.7453 79.5757 82.7156C79.5719 82.7364 79.5686 82.7572 79.5647 82.7791C79.4531 83.4596 79.3501 84.1422 79.2582 84.8254C79.17 85.4758 79.0868 86.1338 79.014 86.7956C78.9817 86.8044 78.95 86.8131 78.9177 86.8213C78.9177 86.8213 78.8821 86.7918 78.8164 86.7343C78.9336 85.657 79.0825 84.5862 79.2461 83.528C79.5045 81.8589 79.8165 80.1953 80.1866 78.5448C80.1915 78.5218 80.1965 78.4994 80.2019 78.4758C80.7182 76.1794 81.345 73.9065 82.09 71.6768C82.2148 71.3035 82.344 70.9312 82.4781 70.5612C82.4853 70.5415 82.4924 70.5217 82.4995 70.502C83.6162 67.4288 85.0434 64.4793 86.7344 61.6819C86.7453 61.6628 86.7568 61.6441 86.7678 61.6261C87.0809 61.1088 87.4033 60.5969 87.734 60.09C87.8079 59.9767 87.8829 59.8639 87.9573 59.7512C87.9704 59.7309 87.9841 59.7101 87.9984 59.6898C89.76 57.043 91.751 54.5473 93.939 52.2405C93.9538 52.2241 93.9691 52.2082 93.9845 52.1923C94.5434 51.6044 95.1149 51.029 95.699 50.4663C97.909 48.3373 100.3 46.3535 102.909 44.7303C103.018 44.6619 103.124 44.8311 103.015 44.8984L103.015 44.8973Z" fill="#B3D6F9"/>
<path d="M72.2095 66.9064C73.0629 71.8124 76.8079 75.3909 80.2868 78.6382C80.3152 78.6651 80.3568 78.6202 80.3278 78.5928C76.8555 75.3521 73.1199 71.7856 72.2681 66.8889C72.2615 66.85 72.2029 66.8681 72.2095 66.9064Z" fill="#B3D6F9"/>
<path d="M81.5017 73.9096C85.1399 74.1165 88.7951 72.8213 91.9893 71.1851C92.8947 70.7214 93.7772 70.2134 94.6334 69.6649C94.6668 69.6435 94.6339 69.5921 94.6005 69.6134C91.5399 71.5738 88.0643 73.1476 84.4491 73.6961C83.473 73.8439 82.4849 73.9052 81.499 73.8494C81.4596 73.8472 81.4623 73.9085 81.5012 73.9107L81.5017 73.9096Z" fill="#B3D6F9"/>
<path d="M86.888 49.8416C86.219 53.1765 86.7555 56.6997 87.9916 59.8403C88.0058 59.877 88.0644 59.8595 88.0501 59.8228C86.8173 56.6915 86.2809 53.1809 86.9476 49.8553C86.9553 49.8169 86.8956 49.8033 86.888 49.8416Z" fill="#B3D6F9"/>
<path d="M84.7693 50.2517C84.4945 52.2963 84.5022 54.3738 84.8055 56.4152C85.0868 58.3104 85.5489 60.2373 86.791 61.7509C86.8156 61.781 86.8676 61.7487 86.8424 61.7181C85.585 60.1853 85.1257 58.2228 84.8504 56.3029C84.5635 54.3021 84.5591 52.2679 84.8285 50.2654C84.8339 50.2265 84.7743 50.2128 84.7688 50.2517H84.7693Z" fill="#B3D6F9"/>
<path d="M84.2636 66.6415C89.3514 66.6251 94.4211 64.8667 98.5137 61.8619C99.6649 61.0167 100.737 60.068 101.711 59.0235C101.738 58.9945 101.693 58.9534 101.666 58.9825C98.2137 62.6825 93.5091 65.1924 88.5522 66.157C87.1382 66.4324 85.7017 66.5752 84.2609 66.5802C84.2215 66.5802 84.2237 66.6415 84.2631 66.6415H84.2636Z" fill="#B3D6F9"/>
<path d="M85.2944 64.726C90.052 64.4282 94.6307 62.4394 98.3899 59.5588C99.4431 58.7514 100.435 57.8667 101.357 56.912C101.384 56.8835 101.339 56.8425 101.311 56.8709C98.0335 60.2661 93.809 62.8455 89.2292 64.0324C87.9395 64.3668 86.6219 64.582 85.2922 64.6652C85.2527 64.6674 85.2549 64.7287 85.2944 64.7265V64.726Z" fill="#B3D6F9"/>
<path d="M93.3181 47.878C93.0313 49.3599 93.357 50.972 93.9789 52.3297C93.9953 52.3652 94.0467 52.3324 94.0303 52.2968C93.4156 50.9545 93.0942 49.3566 93.3778 47.8911C93.3854 47.8523 93.3258 47.8391 93.3181 47.8775V47.878Z" fill="#B3D6F9"/>
<path d="M97.3646 49.0506C99.4487 49.8421 101.792 49.7819 103.831 48.8798C103.866 48.8639 103.849 48.8053 103.813 48.8212C101.789 49.7168 99.4629 49.7819 97.3931 48.9958C97.3569 48.9821 97.3279 49.0363 97.3646 49.05V49.0506Z" fill="#B3D6F9"/>
<path d="M76.8819 61.5598C77.7239 63.2398 78.4509 64.9735 79.2693 66.6645C80.0121 68.2001 81.0145 69.6518 82.4854 70.5666C82.5188 70.5874 82.5467 70.5332 82.5139 70.5124C80.9838 69.561 79.9782 68.0276 79.2238 66.4275C78.4547 64.7967 77.7419 63.1397 76.9339 61.5269C76.9164 61.4919 76.865 61.5248 76.8825 61.5598H76.8819Z" fill="#B3D6F9"/>
<path d="M93.3222 76.9031C90.3392 79.54 86.4372 81.0701 82.6271 82.0566C81.581 82.3275 80.5239 82.5531 79.4592 82.7359C79.4203 82.7425 79.4384 82.8011 79.4767 82.7945C83.399 82.1222 87.3498 80.9015 90.7723 78.835C91.6903 78.2804 92.564 77.6553 93.3676 76.9447C93.3972 76.919 93.3517 76.8774 93.3222 76.9036V76.9031Z" fill="#B3D6F9"/>
</g>
<path d="M112.551 75.9659C111.226 77.5747 107.15 78.1835 106.621 80.3239C106.58 80.4925 106.533 80.66 106.481 80.8248C106.476 80.8407 106.471 80.8566 106.466 80.8724C106.304 81.3783 106.094 81.8644 105.83 82.3182C105.821 82.3341 105.812 82.3505 105.802 82.3658C104.66 84.2949 102.547 85.6219 99.1309 85.2562C98.2228 85.1588 97.5379 85.5266 96.8963 86.1337C96.8827 86.1469 96.8695 86.1595 96.8558 86.1726C95.7697 87.2193 94.7948 88.9415 93.0447 90.2389C93.026 90.2526 93.0074 90.2662 92.9888 90.2805C92.9888 90.2805 92.9886 90.2805 92.9883 90.2805C92.3314 90.7595 91.5655 91.1777 90.6464 91.4793L83.0892 91.4717C82.0786 91.2472 80.9821 90.9429 79.7899 90.5454C79.7658 90.5378 79.7417 90.5296 79.7176 90.5219C79.7176 90.5219 79.7077 90.488 79.6897 90.4239C79.3968 89.3865 77.0215 80.3683 81.6029 76.4607C84.9165 73.6344 86.9502 74.2152 88.7747 73.6771C88.8404 73.6579 88.9067 73.6371 88.9724 73.6141C88.9882 73.6092 89.0036 73.6037 89.0194 73.5977C89.7847 73.324 90.5216 72.8143 91.3104 71.7239C93.7355 68.3742 97.6288 68.8417 100.196 70.3646C100.209 70.3728 100.223 70.381 100.237 70.3892C100.553 70.5792 100.848 70.7845 101.116 71.0007C103.574 72.9758 110.495 70.0104 112.591 73.6721C113.153 74.6531 113.037 75.3763 112.551 75.9653L112.551 75.9659Z" fill="#BEDEFF"/>
<path d="M112.552 73.9191C112.328 73.9136 112.104 73.9114 111.881 73.912C110.359 73.9175 108.836 74.045 107.328 74.264C107.31 74.2662 107.293 74.2689 107.276 74.2711C106.375 74.403 105.479 74.5673 104.591 74.7572C101.421 75.4355 98.3265 76.475 95.3973 77.8622C94.5893 78.2449 93.7971 78.6543 93.0214 79.0906C93.011 79.0961 93.0012 79.1016 92.9908 79.1076C92.5293 79.3676 92.0739 79.6364 91.6244 79.9151C91.6091 79.9238 91.5943 79.9331 91.5806 79.9419C90.0927 80.8648 88.67 81.8885 87.3134 83.0096C87.1569 83.1388 87.002 83.2686 86.8465 83.3994C86.8344 83.4098 86.8224 83.4202 86.8104 83.4306C85.063 84.9098 83.4037 86.5006 81.8507 88.185C81.8397 88.1965 81.8288 88.2085 81.8173 88.2206C81.462 88.6071 81.1117 88.9979 80.7679 89.3943C80.44 89.7714 80.1126 90.1546 79.7896 90.5455C79.7655 90.5378 79.7415 90.5296 79.7174 90.522C79.7174 90.522 79.707 90.4886 79.6895 90.424C80.2139 89.7873 80.7553 89.1687 81.3016 88.5638C82.1627 87.6102 83.0561 86.6823 83.9807 85.7867C83.9933 85.7741 84.0059 85.7621 84.019 85.7495C85.306 84.5041 86.6543 83.3206 88.059 82.2137C88.2944 82.0281 88.532 81.8458 88.7718 81.6663C88.7844 81.657 88.7975 81.6471 88.8101 81.6378C90.8038 80.1494 92.9432 78.8695 95.1871 77.796C95.2018 77.7883 95.2172 77.7812 95.2319 77.7741C95.6474 77.5754 96.0662 77.3849 96.4883 77.2004C96.5824 77.1593 96.6777 77.1188 96.7719 77.0783C96.7888 77.0706 96.8063 77.0635 96.8233 77.0564C99.0491 76.1083 101.358 75.3523 103.713 74.7988C103.729 74.7944 103.746 74.7906 103.762 74.7873C104.363 74.6466 104.967 74.5191 105.573 74.4052C107.868 73.9738 110.217 73.7105 112.554 73.7675C112.652 73.7697 112.649 73.9213 112.551 73.9186L112.552 73.9191Z" fill="#A8CCFC"/>
<path d="M83.7668 75.0543C82.2609 78.531 83.1483 82.3712 84.005 85.8895C84.0121 85.9186 84.057 85.9071 84.0499 85.878C83.1948 82.3669 82.308 78.5382 83.8112 75.068C83.8232 75.0407 83.7783 75.0275 83.7663 75.0549L83.7668 75.0543Z" fill="#A8CCFC"/>
<path d="M86.7522 83.3902C88.9796 85.0412 91.846 85.7436 94.5606 86.037C95.3303 86.1202 96.1033 86.1656 96.8773 86.1744C96.9074 86.1744 96.908 86.1284 96.8784 86.1279C94.1128 86.0967 91.2449 85.6461 88.7169 84.4856C88.0342 84.1719 87.3801 83.7986 86.7762 83.3508C86.7522 83.3327 86.7281 83.3727 86.7522 83.3907V83.3902Z" fill="#A8CCFC"/>
<path d="M100.228 70.3301C98.4099 72.1722 97.2794 74.6367 96.7545 77.1505C96.7484 77.1795 96.7928 77.1932 96.7994 77.1636C97.3227 74.6575 98.4476 72.2001 100.26 70.3635C100.281 70.3421 100.249 70.3087 100.228 70.3301Z" fill="#A8CCFC"/>
<path d="M98.7106 69.7054C97.682 70.8911 96.8193 72.2159 96.1602 73.6409C95.5482 74.964 95.0369 76.3824 95.1951 77.8637C95.1984 77.8933 95.2449 77.8944 95.2416 77.8648C95.0818 76.3648 95.6095 74.9246 96.2357 73.5883C96.8888 72.1957 97.7357 70.9004 98.7435 69.7388C98.7632 69.7164 98.7309 69.6824 98.7112 69.7054H98.7106Z" fill="#A8CCFC"/>
<path d="M91.5458 79.9206C94.7888 82.0347 98.7477 83.0332 102.605 82.8312C103.69 82.7743 104.769 82.6183 105.825 82.361C105.854 82.3539 105.842 82.309 105.813 82.3161C102.072 83.2281 98.0317 82.8597 94.4762 81.4035C93.4618 80.988 92.4885 80.4795 91.5699 79.8806C91.5447 79.8642 91.5206 79.9041 91.5458 79.9206Z" fill="#A8CCFC"/>
<path d="M92.9996 79.1328C96.1501 80.93 99.8928 81.577 103.487 81.3148C104.494 81.2414 105.494 81.0925 106.479 80.8703C106.508 80.8637 106.497 80.8188 106.468 80.8254C102.965 81.6159 99.2009 81.4927 95.7921 80.3349C94.8324 80.0092 93.904 79.5953 93.0237 79.0933C92.9974 79.0786 92.9734 79.118 92.9996 79.1333V79.1328Z" fill="#A8CCFC"/>
<path d="M105.14 71.7666C104.339 72.5893 103.873 73.751 103.701 74.8737C103.697 74.9033 103.744 74.9039 103.748 74.8748C103.918 73.7641 104.38 72.6134 105.172 71.8C105.193 71.7786 105.161 71.7452 105.14 71.7666Z" fill="#A8CCFC"/>
<path d="M107.223 74.202C108.218 75.5755 109.733 76.516 111.407 76.7935C111.436 76.7984 111.45 76.7536 111.42 76.7486C109.759 76.4727 108.252 75.5432 107.264 74.179C107.246 74.1549 107.206 74.1774 107.223 74.202Z" fill="#A8CCFC"/>
<path d="M88.9727 73.6053C88.8068 75.0253 88.5452 76.4316 88.3596 77.8489C88.191 79.1359 88.2222 80.4782 88.7756 81.6738C88.7882 81.7012 88.8287 81.6782 88.8161 81.6508C88.2403 80.407 88.2408 79.0117 88.4291 77.6787C88.6213 76.32 88.8599 74.9684 89.0187 73.6053C89.022 73.5757 88.9754 73.5752 88.9722 73.6042L88.9727 73.6053Z" fill="#A8CCFC"/>
<path d="M93.0199 90.2297C90.0211 90.661 86.9003 90.0052 84.0652 89.0412C83.2867 88.7768 82.5198 88.479 81.7665 88.15C81.7391 88.1379 81.726 88.1828 81.7534 88.1949C84.5288 89.4052 87.5517 90.2789 90.5916 90.3933C91.4067 90.424 92.2234 90.3911 93.0314 90.2751C93.061 90.2707 93.0495 90.2258 93.0199 90.2302V90.2297Z" fill="#A8CCFC"/>
<path d="M52.4052 99.9787L51.0038 99.9803H50.7333L46.7585 99.9847H46.5915L33.1199 100C32.2961 99.1614 31.5483 98.3298 30.8186 97.7359C30.8005 97.7205 30.783 97.7069 30.7655 97.6926H30.7649C29.9191 97.0165 29.0471 96.6383 27.9489 96.8496C23.817 97.6444 21.1034 96.2403 19.5126 94.003C19.4989 93.9844 19.4858 93.9663 19.4726 93.9471C19.1047 93.4205 18.7982 92.8474 18.5491 92.2479C18.5414 92.2288 18.5338 92.2102 18.5261 92.191C18.4462 91.9939 18.3723 91.7958 18.3044 91.5938C17.1253 88.0984 8.15788 88.7685 10.341 84.0864C12.5252 79.4037 21.2731 82.3171 24.071 79.6555C24.3775 79.3637 24.7164 79.0823 25.0832 78.819C25.0985 78.8081 25.1144 78.796 25.1308 78.7845C28.1072 76.6638 32.8112 75.6965 36.1122 79.5367C37.0942 80.6803 37.9739 81.2359 38.8531 81.5178C38.9347 81.5441 39.0173 81.5682 39.0989 81.5896C39.1186 81.5956 39.1378 81.6005 39.158 81.6054C41.5141 82.2038 43.9518 81.1034 48.4402 84.3272C53.5455 87.9922 52.8727 96.6821 52.4041 99.9781L52.4052 99.9787Z" fill="#CFE6FF"/>
<path d="M51.0054 99.9802H50.7349L50.7333 99.9786C50.2888 99.5467 49.8377 99.1197 49.3811 98.7004C49.3658 98.6861 49.3516 98.673 49.3368 98.6593C47.2703 96.7625 45.0833 94.991 42.8 93.3641C42.7841 93.3531 42.7682 93.3411 42.7524 93.3296C42.5493 93.1861 42.3467 93.0433 42.1425 92.902C40.9229 92.0541 39.6687 91.2658 38.3812 90.5388C37.8015 90.2109 37.2152 89.8961 36.6223 89.5934C36.6042 89.5835 36.5851 89.5742 36.5659 89.5649C35.99 89.271 35.4065 88.989 34.8169 88.7186C34.8038 88.7131 34.7912 88.7071 34.778 88.7016C33.7866 88.2478 32.7794 87.829 31.7541 87.4442C28.0381 86.0505 24.1552 85.0974 20.2187 84.5932C19.1156 84.452 18.006 84.343 16.8926 84.2735C16.8707 84.2724 16.8493 84.2708 16.828 84.2697C14.9651 84.1564 13.0934 84.1564 11.236 84.3053C10.9628 84.3272 10.6902 84.3529 10.4176 84.3825C10.2988 84.395 10.2797 84.21 10.3984 84.1974C13.2445 83.8892 16.1382 83.9713 18.9826 84.2637C19.7337 84.3408 20.4831 84.435 21.2309 84.545H21.232C21.2522 84.5478 21.2725 84.5505 21.2922 84.5538C24.2231 84.9896 27.1168 85.6766 29.9295 86.6061C29.9514 86.6132 29.9733 86.6203 29.9952 86.6274C30.1145 86.6674 30.2344 86.7074 30.3537 86.7479C30.8875 86.9296 31.4174 87.1196 31.9446 87.3194C31.9632 87.3271 31.9823 87.3342 32.0015 87.3413C34.2038 88.1772 36.342 89.1708 38.3938 90.3242C38.9954 90.6625 39.5888 91.014 40.1745 91.3791C40.1745 91.3791 40.1751 91.3791 40.1751 91.3796C40.1921 91.3895 40.2079 91.3994 40.2249 91.4098C40.5358 91.6046 40.844 91.8034 41.1506 92.0054C42.9779 93.213 44.7434 94.5202 46.4409 95.9085C46.4584 95.9227 46.4754 95.9364 46.4924 95.9506C47.712 96.9491 48.8961 97.9898 50.0446 99.0655C50.3654 99.366 50.6851 99.6704 51.0032 99.9781C51.0037 99.9786 51.0043 99.9791 51.0048 99.9797L51.0054 99.9802Z" fill="#B3D6F9"/>
<path d="M45.6562 82.8321C47.8486 86.9214 47.1572 91.6977 46.4707 96.0782C46.4653 96.1143 46.4089 96.105 46.4144 96.0688C47.0997 91.6966 47.7917 86.934 45.6031 82.8529C45.5856 82.8206 45.6392 82.8004 45.6562 82.8321Z" fill="#B3D6F9"/>
<path d="M42.8646 93.3084C40.3147 95.5506 36.8889 96.6997 33.6054 97.3347C32.6748 97.5148 31.736 97.6489 30.7922 97.7387C30.7555 97.742 30.7501 97.6856 30.7862 97.6818C34.1578 97.3615 37.6115 96.5196 40.5785 94.845C41.3794 94.3928 42.1398 93.87 42.8306 93.2624C42.858 93.2383 42.8914 93.2843 42.864 93.3084H42.8646Z" fill="#B3D6F9"/>
<path d="M25.0853 78.7468C27.4917 80.8089 29.1225 83.7015 30.0192 86.7157C30.0296 86.7507 29.9765 86.7715 29.9661 86.7365C29.0716 83.7311 27.4485 80.8473 25.0491 78.7911C25.0212 78.767 25.0573 78.7233 25.0853 78.7468Z" fill="#B3D6F9"/>
<path d="M26.8753 77.8292C28.2516 79.1715 29.4395 80.6999 30.3893 82.3717C31.2712 83.9237 32.0398 85.6026 31.9982 87.4266C31.9976 87.4628 31.9407 87.4688 31.9412 87.4327C31.9834 85.5862 31.1929 83.8821 30.2918 82.3159C29.353 80.6835 28.1875 79.1884 26.8392 77.8741C26.8129 77.8489 26.8491 77.804 26.8753 77.8297V77.8292Z" fill="#B3D6F9"/>
<path d="M36.6598 89.5632C32.9182 92.4739 28.189 94.0965 23.4603 94.2437C22.1301 94.2853 20.7987 94.2049 19.4838 93.9985C19.4477 93.993 19.457 93.9366 19.4931 93.9421C24.1512 94.6729 29.0441 93.8118 33.2346 91.6719C34.4296 91.0615 35.5661 90.3411 36.6254 89.5172C36.6544 89.4948 36.6878 89.5408 36.6587 89.5632H36.6598Z" fill="#B3D6F9"/>
<path d="M34.8049 88.7504C31.1437 91.2652 26.6422 92.4362 22.23 92.4827C20.9933 92.4958 19.7572 92.4165 18.5327 92.2457C18.4965 92.2407 18.5058 92.1844 18.542 92.1893C22.8973 92.7964 27.4776 92.2621 31.5192 90.5021C32.6573 90.0067 33.7478 89.4073 34.7709 88.7044C34.801 88.6836 34.835 88.7296 34.8043 88.7504H34.8049Z" fill="#B3D6F9"/>
<path d="M19.2381 81.0006C20.3002 81.923 20.9872 83.2927 21.3107 84.6454C21.3195 84.6809 21.2625 84.6864 21.2538 84.6514C20.9335 83.3135 20.2514 81.9564 19.2015 81.0449C19.1735 81.0209 19.2097 80.9765 19.2376 81.0006H19.2381Z" fill="#B3D6F9"/>
<path d="M16.9469 84.185C15.8729 85.963 14.12 87.2648 12.1055 87.7744C12.0705 87.7832 12.0491 87.7301 12.0847 87.7213C14.0839 87.2155 15.828 85.9269 16.8949 84.1614C16.9136 84.1302 16.9656 84.1538 16.9469 84.185Z" fill="#B3D6F9"/>
<path d="M39.1572 81.5951C39.5048 83.3113 39.9668 85.0006 40.3385 86.7113C40.6757 88.2644 40.7743 89.9056 40.2208 91.4214C40.2082 91.4559 40.1562 91.4323 40.1688 91.3978C40.7447 89.8213 40.6018 88.1188 40.2356 86.5115C39.8628 84.8736 39.4336 83.2483 39.1002 81.6011C39.0931 81.565 39.1495 81.5595 39.1572 81.5951Z" fill="#B3D6F9"/>
<path d="M49.4526 98.6621C49.4286 98.6752 49.4039 98.6884 49.3798 98.701C48.5319 99.157 47.6615 99.5862 46.7724 99.9792C46.7681 99.9814 46.7631 99.983 46.7588 99.9852H46.5918C46.5967 99.9836 46.6017 99.9814 46.6066 99.9792C46.6438 99.9628 46.6799 99.9469 46.7177 99.9305C47.6073 99.5429 48.4799 99.1192 49.3349 98.6599C49.3678 98.6435 49.4001 98.6265 49.4318 98.6084C49.4641 98.5909 49.4844 98.6446 49.4526 98.6621Z" fill="#B3D6F9"/>
<path d="M79.16 41.7578C76.0944 44.4435 68.6834 47.8873 67.6028 52.8569C64.3193 67.9565 59.4582 66.4615 58.1761 68.2472C55.8884 71.4326 58.8697 97.8842 58.5812 99.9858H37.6515C37.8699 99.4116 40.3826 65.1953 38.3588 59.5793C37.0844 56.044 37.7905 55.9876 37.6893 50.6847C37.6893 50.6847 40.8162 49.3736 44.2896 45.7245C47.8166 42.0266 50.2242 37.4616 51.6656 32.6437C52.7205 29.1183 54.9113 27.383 56.5366 25.0312C58.0951 22.7769 59.9859 20.4225 61.6161 18.4594C64.3363 15.1858 67.2272 17.549 66.0229 20.5856C63.7122 26.4064 57.0293 36.0263 58.2971 36.0192C58.9786 36.0148 63.2294 31.6129 66.2468 26.3286C68.7841 21.8863 73.5637 15.3095 75.8853 16.8866C77.7132 18.1282 77.128 19.9062 70.786 29.0773C67.023 34.5176 62.3929 41.2898 63.1763 41.5345C63.9607 41.7792 67.7451 36.6104 71.0532 32.8348C74.168 29.2804 77.8812 22.5476 79.9259 24.2862C82.4046 26.3927 79.5766 29.2481 74.2753 36.6394C71.0346 41.1578 66.7937 45.8712 68.1272 45.8591C70.6519 45.8383 77.4274 33.9291 80.9961 36.918C81.2649 37.143 82.3904 38.9254 79.1595 41.7573L79.16 41.7578Z" fill="#FDBAA0"/>
<g opacity="0.5">
<path d="M54.9922 62.8511C57.8645 62.1017 64.4128 62.406 64.4128 62.406L64.4145 62.4038C64.9455 61.4125 65.4748 60.2076 65.9889 58.7334L64.2918 57.8219L54.9922 62.8511Z" fill="#F18E7B"/>
</g>
<path d="M60.6234 66.7692C59.3692 67.4459 57.9941 67.8011 56.5697 67.8165C56.4794 67.8176 56.4794 67.6774 56.5697 67.6763C57.9717 67.6615 59.3189 67.3139 60.5528 66.6483C60.6321 66.6056 60.7033 66.7266 60.6234 66.7692Z" fill="#F18E7B"/>
<path d="M37.9116 58.9897C35.7772 55.7227 37.4085 48.985 37.8897 42.4542C38.2253 37.9007 38.4552 36.6274 39.8544 34.6287C40.9274 33.0965 41.4064 29.7955 41.5454 27.9386C41.5509 27.8708 41.5531 27.8341 41.5531 27.8341C41.6642 26.6703 43.907 26.9155 45.1431 29.1983C46.3786 31.4816 45.1316 36.0876 45.1316 36.0876C45.2312 37.3155 44.6564 40.5546 44.282 41.604C43.9081 42.6523 46.8347 47.8792 47.2792 54.1948C47.7248 60.5115 40.7664 63.3614 37.9116 58.9897Z" fill="#FDBAA0"/>
<path opacity="0.5" d="M57.3215 67.7862L57.3138 67.7698L57.2498 67.6351L45.9837 43.7646C45.6903 44.1353 45.3958 44.4889 45.1018 44.8245C45.0175 44.5787 44.936 44.3444 44.8599 44.121C44.7351 44.6684 44.5561 45.2323 44.302 45.691C44.2971 45.6998 44.2922 45.7086 44.2878 45.7173C43.5313 47.0957 42.922 49.3829 43.5718 52.6439C43.8143 53.8597 43.8871 56.9406 43.984 60.5191C44.1499 66.5956 44.3869 74.1062 45.652 76.3594C47.3348 79.3571 55.0173 81.0706 57.4704 81.5479C57.224 76.2538 57.1917 71.327 57.7977 69.1329L57.3209 67.7868L57.3215 67.7862Z" fill="#F07B7E"/>
<path d="M74.863 20.8867H49.3305C47.2991 20.8867 45.6523 22.5335 45.6523 24.5649V73.4987C45.6523 75.53 47.2991 77.1768 49.3305 77.1768H74.863C76.8943 77.1768 78.5411 75.53 78.5411 73.4987V24.5649C78.5411 22.5335 76.8943 20.8867 74.863 20.8867Z" fill="white"/>
<path d="M75.1572 77.6359H49.0368C46.9177 77.6359 45.1934 75.9121 45.1934 73.7924V24.2707C45.1934 22.1516 46.9172 20.4272 49.0368 20.4272H75.1572C77.2763 20.4272 79.0007 22.1511 79.0007 24.2707V73.7924C79.0007 75.9115 77.2769 77.6359 75.1572 77.6359ZM49.0368 21.3458C47.4241 21.3458 46.1119 22.658 46.1119 24.2707V73.7924C46.1119 75.4052 47.4241 76.7173 49.0368 76.7173H75.1572C76.7699 76.7173 78.0821 75.4052 78.0821 73.7924V24.2707C78.0821 22.658 76.7699 21.3458 75.1572 21.3458H49.0368Z" fill="#383463"/>
<path d="M75.1084 77.5856H48.988C46.8689 77.5856 45.1445 75.8617 45.1445 73.7421V24.2209C45.1445 22.1018 46.8684 20.3774 48.988 20.3774H75.1084C77.2275 20.3774 78.9519 22.1013 78.9519 24.2209V73.7426C78.9519 75.8617 77.228 77.5861 75.1084 77.5861V77.5856ZM48.988 21.296C47.3753 21.296 46.0631 22.6082 46.0631 24.2209V73.7426C46.0631 75.3554 47.3753 76.6675 48.988 76.6675H75.1084C76.7211 76.6675 78.0333 75.3554 78.0333 73.7426V24.2209C78.0333 22.6082 76.7211 21.296 75.1084 21.296H48.988Z" fill="#383463"/>
<path d="M67.7647 53.8711H54.8476C52.4616 53.8711 50.5273 55.8054 50.5273 58.1914C50.5273 60.5774 52.4616 62.5117 54.8476 62.5117H67.7647C70.1507 62.5117 72.0849 60.5774 72.0849 58.1914C72.0849 55.8054 70.1507 53.8711 67.7647 53.8711Z" fill="#0D5C97"/>
<path d="M68.6006 53.8712H55.6836C53.2975 53.8712 51.3633 55.8055 51.3633 58.1915C51.3633 60.5775 53.2975 62.5118 55.6836 62.5118H68.6006C70.9866 62.5118 72.9209 60.5775 72.9209 58.1915C72.9209 55.8055 70.9866 53.8712 68.6006 53.8712Z" fill="#0F75BD"/>
<path d="M37.3356 57.7251C37.7379 58.7854 38.4277 59.7183 39.3293 60.408C40.4034 61.2291 41.6898 61.5456 42.9888 61.8237C43.0622 61.8395 43.0934 61.7268 43.02 61.7114C41.7905 61.4481 40.5588 61.1569 39.5225 60.4075C38.5837 59.7281 37.8589 58.7778 37.4483 57.6944C37.4221 57.6249 37.3093 57.655 37.3361 57.7256L37.3356 57.7251Z" fill="#F18E7B"/>
<path d="M42.9783 41.5907C43.3653 41.7336 43.7524 41.8765 44.1388 42.0199C44.1345 41.9843 44.1295 41.9487 44.1252 41.9137C43.8575 42.1184 43.5679 42.2777 43.2498 42.3916C43.1798 42.4168 43.2099 42.5295 43.281 42.5038C43.6084 42.3867 43.9078 42.2257 44.1843 42.0144C44.2248 41.9832 44.2199 41.9263 44.1706 41.9082C43.7836 41.7653 43.3965 41.6225 43.0101 41.479C42.9394 41.4528 42.9093 41.5655 42.9788 41.5913L42.9783 41.5907Z" fill="#F18E7B"/>
<path d="M42.3963 32.711C42.0497 32.8599 41.2905 32.74 40.7578 32.5599C40.7578 29.9514 41.1421 28.2248 41.5461 27.9314C41.8893 28.0677 42.2621 28.2839 42.3963 28.6064C42.6689 29.2605 42.9962 32.4537 42.3963 32.711Z" fill="#FFC6B2"/>
<path d="M78.0338 51.5741H50.4414C49.5179 51.5741 48.7695 50.7935 48.7695 49.83V28.896C48.7695 27.933 49.5179 27.1519 50.4414 27.1519H58.1562L77.748 34.9373L78.0338 51.5741Z" fill="#CFE6FF"/>
<path d="M89.2763 28.1538V48.2229C89.2763 49.1459 88.5279 49.8948 87.6044 49.8948H50.4414C49.5179 49.8948 48.7695 49.1459 48.7695 48.2229V28.1538C48.7695 27.2308 49.5179 26.4819 50.4414 26.4819H87.6044C88.5279 26.4819 89.2763 27.2308 89.2763 28.1538Z" fill="#1188D2"/>
<path d="M84.2837 49.8948H50.4414C49.5179 49.8948 48.7695 49.1459 48.7695 48.2229V28.1538C48.7695 27.2308 49.5179 26.4819 50.4414 26.4819H58.1562L84.2837 49.8948Z" fill="#1C92DB"/>
<path d="M42.7582 22.6718L41.1641 22.2738C41.5577 20.6972 42.4905 19.2893 43.7906 18.3083C45.0573 17.353 46.5617 16.8543 48.1443 16.8674L48.1311 18.5108C46.9159 18.4999 45.7559 18.8847 44.7804 19.6204C43.7649 20.3868 43.0653 21.4423 42.7582 22.6723V22.6718Z" fill="#383463"/>
<path d="M39.4105 21.8325L37.8164 21.434C38.4011 19.096 39.7849 17.0075 41.713 15.553C43.5912 14.1357 45.8241 13.3973 48.1704 13.4159L48.1573 15.0592C46.1739 15.0428 44.2897 15.6674 42.7027 16.8646C41.05 18.1117 39.9114 19.8295 39.4105 21.8331V21.8325Z" fill="#383463"/>
<path d="M36.098 21.0022L34.5039 20.6036C35.2769 17.5112 37.1069 14.7489 39.6557 12.8258C42.1076 10.9761 45.0183 10 48.0779 10C48.1167 10 48.1556 10 48.1945 10L48.1813 11.6434C45.4409 11.6198 42.8374 12.4837 40.6455 14.1374C38.3956 15.835 36.7801 18.2727 36.098 21.0016V21.0022Z" fill="#383463"/>
<path d="M58.1546 29.8486V34.9413C58.1546 35.4105 57.7742 35.7909 57.3056 35.7909H52.2123C51.7437 35.7909 51.3633 35.4105 51.3633 34.9413V29.8486C51.3633 29.3795 51.7437 28.999 52.2123 28.999H57.3056C57.7742 28.999 58.1546 29.3795 58.1546 29.8486Z" fill="white"/>
<path d="M54.1442 28.999V30.1875C54.1442 31.0672 53.4287 31.7838 52.5479 31.7838H51.3633V31.0705H52.5479C53.0346 31.0705 53.4304 30.6747 53.4304 30.188V28.9996H54.1437L54.1442 28.999Z" fill="#1C92DB"/>
<path d="M58.1546 32.0383V32.7516H57.472C57.0291 32.7516 56.6684 33.1118 56.6684 33.5552V35.7909H55.9551V33.5552C55.9551 32.7188 56.6355 32.0383 57.472 32.0383H58.1546Z" fill="#1C92DB"/>
<path d="M58.1552 30.2466V30.9599H56.7538C55.8511 30.9599 55.1159 31.6945 55.1159 32.5978C55.1159 33.501 54.3484 34.3079 53.4057 34.3079H51.3633V33.5946H53.4057C53.9559 33.5946 54.4026 33.1474 54.4026 32.5978C54.4026 31.3015 55.4575 30.2466 56.7538 30.2466H58.1552Z" fill="#1C92DB"/>
<path d="M63.2469 45.9198H51.9135C51.7323 45.9198 51.584 45.7715 51.584 45.5903C51.584 45.4091 51.7323 45.2607 51.9135 45.2607H63.2469C63.4281 45.2607 63.5764 45.4091 63.5764 45.5903C63.5764 45.7715 63.4281 45.9198 63.2469 45.9198Z" fill="white"/>
<path d="M58.0467 47.1768H51.7682C51.6681 47.1768 51.5859 47.0947 51.5859 46.9945C51.5859 46.8944 51.6681 46.8123 51.7682 46.8123H58.0467C58.1468 46.8123 58.2289 46.8944 58.2289 46.9945C58.2289 47.0947 58.1468 47.1768 58.0467 47.1768Z" fill="white"/>
<path d="M65.4099 47.1768H59.1315C59.0313 47.1768 58.9492 47.0947 58.9492 46.9945C58.9492 46.8944 59.0313 46.8123 59.1315 46.8123H65.4099C65.5101 46.8123 65.5922 46.8944 65.5922 46.9945C65.5922 47.0947 65.5101 47.1768 65.4099 47.1768Z" fill="white"/>
<path d="M59.1855 56.7409C59.1855 56.6478 59.2551 56.5701 59.3476 56.5597C59.4981 56.5427 59.6875 56.5317 59.9262 56.5317C60.264 56.5317 60.5048 56.5963 60.6669 56.7261C60.8251 56.8481 60.9258 57.0496 60.9258 57.2872C60.9258 57.5248 60.8503 57.7295 60.703 57.8625C60.5158 58.035 60.2393 58.1176 59.9158 58.1176H59.9131C59.8118 58.1176 59.7291 58.1986 59.7291 58.2999V58.791C59.7291 58.8917 59.6476 58.9733 59.5468 58.9733H59.3684C59.2677 58.9733 59.1861 58.8917 59.1861 58.791V56.7409H59.1855ZM59.7286 57.5144C59.7286 57.6145 59.8091 57.6967 59.9092 57.6967H59.912C60.2032 57.6967 60.3828 57.5494 60.3828 57.3047C60.3828 57.0819 60.2284 56.9489 59.9514 56.9489C59.9355 56.9489 59.9202 56.9489 59.9054 56.9489C59.8069 56.9511 59.728 57.0321 59.728 57.1312V57.5138L59.7286 57.5144Z" fill="white"/>
<path d="M61.9456 58.4845L61.847 58.8392C61.8252 58.918 61.7534 58.9728 61.6713 58.9728H61.4912C61.3686 58.9728 61.281 58.8545 61.3166 58.7374L61.9428 56.6785C61.9664 56.6019 62.037 56.5493 62.1175 56.5493H62.5675C62.6474 56.5493 62.718 56.6013 62.7415 56.6774L63.3831 58.7363C63.4198 58.8534 63.3322 58.9728 63.209 58.9728H62.9988C62.9184 58.9728 62.8472 58.9202 62.8242 58.843L62.7153 58.4806C62.6923 58.4034 62.6211 58.3509 62.5406 58.3509H62.1208C62.0386 58.3509 61.9669 58.4056 61.945 58.4845H61.9456ZM62.354 57.9409C62.4755 57.9409 62.5631 57.8237 62.5286 57.7071L62.4465 57.4268C62.4032 57.2829 62.36 57.1033 62.3244 56.9593H62.3173C62.2812 57.1033 62.2456 57.2867 62.2056 57.4268L62.1262 57.7093C62.0939 57.8254 62.181 57.9409 62.302 57.9409H62.354Z" fill="white"/>
<path d="M64.3566 58.7904V58.0262C64.3566 57.9961 64.349 57.9665 64.3353 57.9403L63.7348 56.818C63.6696 56.6965 63.7578 56.5498 63.8957 56.5498H64.0994C64.1727 56.5498 64.239 56.5936 64.2674 56.6615L64.465 57.1323C64.5406 57.3085 64.5942 57.4377 64.6523 57.5959H64.6594C64.7136 57.4448 64.771 57.3047 64.8428 57.1323L65.0404 56.6615C65.0688 56.5936 65.1351 56.5498 65.2084 56.5498H65.3896C65.5292 56.5498 65.6168 56.7003 65.5484 56.8219L64.9276 57.9211C64.9123 57.9485 64.9041 57.9791 64.9041 58.0109V58.791C64.9041 58.8917 64.8225 58.9733 64.7218 58.9733H64.54C64.4393 58.9733 64.3577 58.8917 64.3577 58.791L64.3566 58.7904Z" fill="white"/>
<path d="M62.9241 76.6676C62.9241 76.6676 60.0386 65.9096 60.8542 62.359C61.6699 58.8079 68.2938 76.6785 68.2938 76.6785L62.9241 76.6676Z" fill="#CFE6FF"/>
<path d="M97.9156 99.9787H74.3588C73.7413 99.5002 73.08 98.9616 72.3672 98.355C72.3601 98.3479 72.2463 98.2581 72.0984 98.0983C69.7976 95.6365 71.7284 89.9849 73.4238 90.0845C72.116 87.7881 70.0024 83.6528 68.3141 79.8832C66.9094 76.7454 65.9186 74.1758 64.8018 71.7496C63.7316 69.4241 62.7178 67.264 61.647 65.1334C59.032 59.9318 62.345 58.3859 64.2117 60.7994C67.7886 65.4236 73.5869 77.1839 74.1825 76.1591C74.5044 75.6089 73.8425 72.3638 77.5689 72.4799C79.5577 72.5423 80.525 75.5071 80.9388 74.8612C81.3899 74.1577 80.7686 72.2625 83.8128 71.9521C85.5498 71.7753 86.5176 73.2605 86.7722 72.9402C87.7833 71.6724 88.831 71.9401 89.9013 72.2937C92.1922 73.0503 92.4955 77.139 94.6447 84.0037C95.6191 87.1158 96.9992 96.7697 97.9145 99.9792L97.9156 99.9787Z" fill="#FDBAA0"/>
<path d="M61.0215 60.9883C61.0215 60.9883 61.4753 63.0844 62.2893 63.4462C63.1028 63.8081 64.4484 62.9721 64.4637 62.5632C64.479 62.1548 63.2626 60.1978 63.0097 60.0954C62.7568 59.9936 61.3023 60.4901 61.022 60.9877L61.0215 60.9883Z" fill="#FFC6B2"/>
<path d="M73.0913 89.6226C73.9486 90.8844 74.6876 92.2157 75.3056 93.61C75.3396 93.6866 75.4523 93.6204 75.419 93.5438C74.8009 92.1495 74.0619 90.8181 73.2046 89.5563C73.1575 89.4868 73.0442 89.5525 73.0913 89.6226Z" fill="#F18E7B"/>
<path d="M83.8121 99.9788H74.1862C71.9078 98.0841 69.4006 95.4072 67.8131 93.3779C65.3185 90.1913 64.8274 89.2744 64.3358 87.169C63.8448 85.0636 60.8586 82.0314 60.8548 82.0259C60.1535 81.2667 61.6392 79.9288 63.8798 80.4647C66.1182 81.0001 68.4202 84.5474 68.4202 84.5474C69.29 85.2076 71.0883 87.5046 71.5597 88.3728C71.6905 88.6137 72.1843 88.8764 72.9238 89.2049H72.9244C73.9579 89.7222 78.1315 91.1138 81.6449 93.8427C83.8937 95.589 84.4263 98.0578 83.8121 99.9793V99.9788Z" fill="#FDBAA0"/>
<path d="M72.0501 87.5701C73.1126 89.6136 74.0268 91.73 74.7861 93.9049C74.8107 93.975 74.9235 93.9449 74.8983 93.8737C74.1357 91.69 73.2177 89.5638 72.1508 87.5115C72.1163 87.4447 72.0156 87.5039 72.0501 87.5701Z" fill="#F18E7B"/>
<path d="M68.3122 84.4712C67.9657 84.4833 67.6361 84.5583 67.3175 84.6957C67.2491 84.7252 67.3082 84.8254 67.3761 84.7964C67.675 84.6677 67.9865 84.5993 68.3122 84.5878C68.3872 84.5851 68.3872 84.469 68.3122 84.4712Z" fill="#F18E7B"/>
<path d="M68.1782 84.555C68.0402 84.665 67.9154 84.7892 67.8048 84.9272C67.7583 84.9852 67.8404 85.0679 67.8869 85.0093C67.9975 84.8714 68.1218 84.7471 68.2603 84.6371C68.3189 84.5905 68.2362 84.5084 68.1782 84.555Z" fill="#F18E7B"/>
<path d="M72.0541 88.8003C71.8494 88.6574 71.62 88.577 71.372 88.554C71.2976 88.5474 71.2981 88.6635 71.372 88.6706C71.5998 88.6914 71.8078 88.7702 71.995 88.9011C72.0569 88.9443 72.1149 88.843 72.0536 88.8003H72.0541Z" fill="#F18E7B"/>
<path d="M73.5479 75.819C73.9436 76.2313 74.3394 76.6435 74.7347 77.0551C74.7867 77.1093 74.8688 77.0267 74.8168 76.973C74.421 76.5608 74.0252 76.1486 73.63 75.7369C73.578 75.6827 73.4958 75.7654 73.5479 75.819Z" fill="#F18E7B"/>
<path d="M80.3911 74.8129C80.672 75.0302 80.9889 75.1698 81.3409 75.224C81.4143 75.235 81.446 75.1228 81.3721 75.1118C81.042 75.0615 80.7388 74.9355 80.4738 74.7308C80.4152 74.6854 80.332 74.7675 80.3917 74.8129H80.3911Z" fill="#F18E7B"/>
<path d="M86.3006 72.7601C86.6044 73.0934 86.9903 73.3212 87.4294 73.4257C87.5022 73.4433 87.5334 73.331 87.4606 73.3135C87.0402 73.2133 86.6745 72.9971 86.3832 72.678C86.3329 72.6227 86.2502 72.7048 86.3011 72.7601H86.3006Z" fill="#F18E7B"/>
<path d="M63.6829 83.8815C63.7004 84.2664 63.3846 84.5751 63.1218 84.764C61.6005 83.3806 60.8029 82.1473 60.856 82.0279L60.8544 82.0263C60.8544 82.0263 61.26 81.2725 61.7883 81.6453C62.316 82.0181 63.6523 83.2295 63.6829 83.8821V83.8815Z" fill="#FFC6B2"/>
<path d="M66.6122 71.3473C67.1274 70.9504 67.7169 70.6947 68.3585 70.5896C68.4324 70.5776 68.4012 70.4654 68.3273 70.4774C67.6764 70.5842 67.0759 70.8442 66.5537 71.2465C66.4951 71.2914 66.5531 71.3927 66.6122 71.3473Z" fill="#F18E7B"/>
<path d="M67.4284 71.5767C67.614 71.5115 67.799 71.4464 67.9846 71.3812C68.0547 71.3566 68.0246 71.2438 67.9534 71.269C67.7678 71.3342 67.5828 71.3993 67.3972 71.4645C67.3271 71.4891 67.3572 71.6019 67.4284 71.5767Z" fill="#F18E7B"/>
<g opacity="0.5">
<path d="M71.5602 88.3721C70.6586 88.6212 67.1956 85.1215 65.8785 82.9997C64.5614 80.8773 61.5527 80.6036 61.5527 80.6036C62.1226 80.3463 62.9339 80.2379 63.8804 80.464C66.1188 80.9994 68.4207 84.5467 68.4207 84.5467C69.2906 85.2069 71.0889 87.5039 71.5602 88.3721Z" fill="#F07B7E"/>
</g>
<path d="M52.08 41.3654C51.8068 41.3654 51.584 41.1421 51.584 40.8694V39.2617C51.584 38.9885 51.8073 38.7657 52.08 38.7657C52.3531 38.7657 52.5759 38.989 52.5759 39.2617V40.8694C52.5759 41.1426 52.3526 41.3654 52.08 41.3654Z" fill="white"/>
<path d="M53.7811 41.3652C53.508 41.3652 53.2852 41.1419 53.2852 40.8693V39.2615C53.2852 38.9883 53.5085 38.7655 53.7811 38.7655C54.0543 38.7655 54.2771 38.9889 54.2771 39.2615V40.8693C54.2771 41.1424 54.0537 41.3652 53.7811 41.3652Z" fill="white"/>
<path d="M55.4828 38.765H55.4823C55.2084 38.765 54.9863 38.9871 54.9863 39.261V40.8693C54.9863 41.1432 55.2084 41.3653 55.4823 41.3653H55.4828C55.7568 41.3653 55.9788 41.1432 55.9788 40.8693V39.261C55.9788 38.9871 55.7568 38.765 55.4828 38.765Z" fill="white"/>
<path d="M57.1815 41.3652C56.9083 41.3652 56.6855 41.1419 56.6855 40.8693V39.2615C56.6855 38.9883 56.9089 38.7655 57.1815 38.7655C57.4547 38.7655 57.6775 38.9889 57.6775 39.2615V40.8693C57.6775 41.1424 57.4541 41.3652 57.1815 41.3652Z" fill="white"/>
<path d="M61.7186 41.3652C61.4455 41.3652 61.2227 41.1419 61.2227 40.8693V39.2615C61.2227 38.9883 61.446 38.7655 61.7186 38.7655C61.9918 38.7655 62.2146 38.9889 62.2146 39.2615V40.8693C62.2146 41.1424 61.9912 41.3652 61.7186 41.3652Z" fill="white"/>
<path d="M63.4198 41.3652C63.1466 41.3652 62.9238 41.1419 62.9238 40.8693V39.2615C62.9238 38.9883 63.1472 38.7655 63.4198 38.7655C63.693 38.7655 63.9158 38.9889 63.9158 39.2615V40.8693C63.9158 41.1424 63.6924 41.3652 63.4198 41.3652Z" fill="white"/>
<path d="M65.121 41.3652C64.8478 41.3652 64.625 41.1419 64.625 40.8693V39.2615C64.625 38.9883 64.8483 38.7655 65.121 38.7655C65.3941 38.7655 65.6169 38.9889 65.6169 39.2615V40.8693C65.6169 41.1424 65.3936 41.3652 65.121 41.3652Z" fill="white"/>
<path d="M66.8202 41.3652C66.547 41.3652 66.3242 41.1419 66.3242 40.8693V39.2615C66.3242 38.9883 66.5476 38.7655 66.8202 38.7655C67.0933 38.7655 67.3162 38.9889 67.3162 39.2615V40.8693C67.3162 41.1424 67.0928 41.3652 66.8202 41.3652Z" fill="white"/>
<path d="M80.9979 41.3654C80.7248 41.3654 80.502 41.1421 80.502 40.8694V39.2617C80.502 38.9885 80.7253 38.7657 80.9979 38.7657C81.2711 38.7657 81.4939 38.989 81.4939 39.2617V40.8694C81.4939 41.1426 81.2705 41.3654 80.9979 41.3654Z" fill="white"/>
<path d="M82.6991 41.3652C82.4259 41.3652 82.2031 41.1419 82.2031 40.8693V39.2615C82.2031 38.9883 82.4265 38.7655 82.6991 38.7655C82.9723 38.7655 83.1951 38.9889 83.1951 39.2615V40.8693C83.1951 41.1424 82.9717 41.3652 82.6991 41.3652Z" fill="white"/>
<path d="M84.4003 41.3652C84.1271 41.3652 83.9043 41.1419 83.9043 40.8693V39.2615C83.9043 38.9883 84.1276 38.7655 84.4003 38.7655C84.6734 38.7655 84.8962 38.9889 84.8962 39.2615V40.8693C84.8962 41.1424 84.6729 41.3652 84.4003 41.3652Z" fill="white"/>
<path d="M86.1 38.765H86.0995C85.8256 38.765 85.6035 38.9871 85.6035 39.261V40.8693C85.6035 41.1432 85.8256 41.3653 86.0995 41.3653H86.1C86.3739 41.3653 86.596 41.1432 86.596 40.8693V39.261C86.596 38.9871 86.3739 38.765 86.1 38.765Z" fill="white"/>
<path d="M71.3592 41.3652C71.0861 41.3652 70.8633 41.1419 70.8633 40.8693V39.2615C70.8633 38.9883 71.0866 38.7655 71.3592 38.7655C71.6324 38.7655 71.8552 38.9889 71.8552 39.2615V40.8693C71.8552 41.1424 71.6319 41.3652 71.3592 41.3652Z" fill="white"/>
<path d="M73.0604 41.3652C72.7873 41.3652 72.5645 41.1419 72.5645 40.8693V39.2615C72.5645 38.9883 72.7878 38.7655 73.0604 38.7655C73.3336 38.7655 73.5564 38.9889 73.5564 39.2615V40.8693C73.5564 41.1424 73.333 41.3652 73.0604 41.3652Z" fill="white"/>
<path d="M74.7616 41.3652C74.4884 41.3652 74.2656 41.1419 74.2656 40.8693V39.2615C74.2656 38.9883 74.489 38.7655 74.7616 38.7655C75.0348 38.7655 75.2576 38.9889 75.2576 39.2615V40.8693C75.2576 41.1424 75.0342 41.3652 74.7616 41.3652Z" fill="white"/>
<path d="M76.4608 41.3652C76.1876 41.3652 75.9648 41.1419 75.9648 40.8693V39.2615C75.9648 38.9883 76.1882 38.7655 76.4608 38.7655C76.734 38.7655 76.9568 38.9889 76.9568 39.2615V40.8693C76.9568 41.1424 76.7334 41.3652 76.4608 41.3652Z" fill="white"/>
</g>
<path d="M179.915 23.5156V42H176.119V23.5156H179.915ZM185.603 23.5156V26.499H170.521V23.5156H185.603ZM191.112 22.5V42H187.456V22.5H191.112ZM190.592 34.6494H189.589C189.597 33.693 189.724 32.8128 189.97 32.0088C190.215 31.1963 190.566 30.4938 191.023 29.9014C191.48 29.3005 192.026 28.835 192.661 28.5049C193.304 28.1748 194.015 28.0098 194.794 28.0098C195.471 28.0098 196.085 28.1071 196.635 28.3018C197.193 28.488 197.672 28.7926 198.069 29.2158C198.476 29.6305 198.789 30.1764 199.009 30.8535C199.229 31.5306 199.339 32.3516 199.339 33.3164V42H195.657V33.291C195.657 32.6816 195.568 32.2035 195.391 31.8564C195.221 31.501 194.972 31.2513 194.642 31.1074C194.32 30.9551 193.922 30.8789 193.448 30.8789C192.924 30.8789 192.475 30.9762 192.103 31.1709C191.739 31.3656 191.447 31.6364 191.227 31.9834C191.007 32.3219 190.846 32.7197 190.744 33.1768C190.643 33.6338 190.592 34.1247 190.592 34.6494ZM209.533 38.9023V32.7832C209.533 32.3431 209.461 31.9665 209.317 31.6533C209.174 31.3317 208.949 31.082 208.645 30.9043C208.348 30.7266 207.963 30.6377 207.489 30.6377C207.083 30.6377 206.732 30.7096 206.436 30.8535C206.139 30.9889 205.911 31.1878 205.75 31.4502C205.589 31.7041 205.509 32.0046 205.509 32.3516H201.853C201.853 31.7676 201.988 31.2132 202.259 30.6885C202.53 30.1637 202.923 29.7025 203.439 29.3047C203.956 28.8984 204.569 28.5811 205.28 28.3525C206 28.124 206.804 28.0098 207.692 28.0098C208.759 28.0098 209.707 28.1875 210.536 28.543C211.366 28.8984 212.017 29.4316 212.491 30.1426C212.974 30.8535 213.215 31.7422 213.215 32.8086V38.6865C213.215 39.4398 213.261 40.0576 213.354 40.54C213.448 41.014 213.583 41.4287 213.761 41.7842V42H210.066C209.889 41.6276 209.753 41.1621 209.66 40.6035C209.576 40.0365 209.533 39.4694 209.533 38.9023ZM210.016 33.6338L210.041 35.7031H207.997C207.515 35.7031 207.096 35.7581 206.74 35.8682C206.385 35.9782 206.093 36.1348 205.864 36.3379C205.636 36.5326 205.466 36.7611 205.356 37.0234C205.255 37.2858 205.204 37.5736 205.204 37.8867C205.204 38.1999 205.276 38.4834 205.42 38.7373C205.564 38.9827 205.771 39.1774 206.042 39.3213C206.313 39.4567 206.63 39.5244 206.994 39.5244C207.544 39.5244 208.022 39.4144 208.429 39.1943C208.835 38.9743 209.148 38.7035 209.368 38.3818C209.597 38.0602 209.715 37.7555 209.724 37.4678L210.688 39.0166C210.553 39.3636 210.367 39.7233 210.13 40.0957C209.901 40.4681 209.609 40.8193 209.254 41.1494C208.898 41.471 208.471 41.7376 207.972 41.9492C207.472 42.1523 206.88 42.2539 206.194 42.2539C205.323 42.2539 204.531 42.0804 203.82 41.7334C203.118 41.3779 202.559 40.8913 202.145 40.2734C201.738 39.6471 201.535 38.9362 201.535 38.1406C201.535 37.4212 201.671 36.7822 201.941 36.2236C202.212 35.665 202.61 35.1953 203.135 34.8145C203.668 34.4251 204.332 34.1331 205.128 33.9385C205.924 33.7354 206.846 33.6338 207.896 33.6338H210.016ZM219.613 31.1963V42H215.957V28.2637H219.385L219.613 31.1963ZM219.08 34.6494H218.09C218.09 33.6338 218.221 32.7197 218.483 31.9072C218.746 31.0863 219.114 30.388 219.588 29.8125C220.062 29.2285 220.625 28.7842 221.276 28.4795C221.937 28.1663 222.673 28.0098 223.485 28.0098C224.129 28.0098 224.717 28.1029 225.25 28.2891C225.783 28.4753 226.24 28.7715 226.621 29.1777C227.01 29.584 227.307 30.1214 227.51 30.79C227.721 31.4587 227.827 32.2754 227.827 33.2402V42H224.146V33.2275C224.146 32.6182 224.061 32.1442 223.892 31.8057C223.722 31.4671 223.473 31.2301 223.143 31.0947C222.821 30.9508 222.423 30.8789 221.949 30.8789C221.458 30.8789 221.031 30.9762 220.667 31.1709C220.312 31.3656 220.015 31.6364 219.778 31.9834C219.55 32.3219 219.376 32.7197 219.258 33.1768C219.139 33.6338 219.08 34.1247 219.08 34.6494ZM234.175 22.5V42H230.519V22.5H234.175ZM233.654 34.6494H232.651C232.66 33.693 232.787 32.8128 233.032 32.0088C233.278 31.1963 233.629 30.4938 234.086 29.9014C234.543 29.3005 235.089 28.835 235.724 28.5049C236.367 28.1748 237.078 28.0098 237.856 28.0098C238.534 28.0098 239.147 28.1071 239.697 28.3018C240.256 28.488 240.734 28.7926 241.132 29.2158C241.538 29.6305 241.851 30.1764 242.071 30.8535C242.291 31.5306 242.401 32.3516 242.401 33.3164V42H238.72V33.291C238.72 32.6816 238.631 32.2035 238.453 31.8564C238.284 31.501 238.034 31.2513 237.704 31.1074C237.382 30.9551 236.985 30.8789 236.511 30.8789C235.986 30.8789 235.537 30.9762 235.165 31.1709C234.801 31.3656 234.509 31.6364 234.289 31.9834C234.069 32.3219 233.908 32.7197 233.807 33.1768C233.705 33.6338 233.654 34.1247 233.654 34.6494ZM258.385 28.2637V30.8535H250.387V28.2637H258.385ZM252.367 24.874H256.023V37.8613C256.023 38.2591 256.074 38.5638 256.176 38.7754C256.286 38.987 256.447 39.1351 256.658 39.2197C256.87 39.2959 257.136 39.334 257.458 39.334C257.687 39.334 257.89 39.3255 258.067 39.3086C258.254 39.2832 258.41 39.2578 258.537 39.2324L258.55 41.9238C258.237 42.0254 257.898 42.1058 257.534 42.165C257.17 42.2243 256.768 42.2539 256.328 42.2539C255.524 42.2539 254.822 42.1227 254.221 41.8604C253.628 41.5895 253.171 41.1579 252.85 40.5654C252.528 39.973 252.367 39.1943 252.367 38.2295V24.874ZM259.553 35.2715V35.0049C259.553 33.9977 259.697 33.071 259.984 32.2246C260.272 31.3698 260.691 30.6292 261.241 30.0029C261.791 29.3766 262.468 28.89 263.272 28.543C264.076 28.1875 264.999 28.0098 266.04 28.0098C267.081 28.0098 268.008 28.1875 268.82 28.543C269.633 28.89 270.314 29.3766 270.864 30.0029C271.423 30.6292 271.846 31.3698 272.134 32.2246C272.422 33.071 272.565 33.9977 272.565 35.0049V35.2715C272.565 36.2702 272.422 37.1969 272.134 38.0518C271.846 38.8981 271.423 39.6387 270.864 40.2734C270.314 40.8997 269.637 41.3864 268.833 41.7334C268.029 42.0804 267.106 42.2539 266.065 42.2539C265.024 42.2539 264.098 42.0804 263.285 41.7334C262.481 41.3864 261.8 40.8997 261.241 40.2734C260.691 39.6387 260.272 38.8981 259.984 38.0518C259.697 37.1969 259.553 36.2702 259.553 35.2715ZM263.209 35.0049V35.2715C263.209 35.847 263.26 36.3844 263.361 36.8838C263.463 37.3831 263.624 37.8232 263.844 38.2041C264.072 38.5765 264.368 38.8685 264.732 39.0801C265.096 39.2917 265.541 39.3975 266.065 39.3975C266.573 39.3975 267.009 39.2917 267.373 39.0801C267.737 38.8685 268.029 38.5765 268.249 38.2041C268.469 37.8232 268.63 37.3831 268.731 36.8838C268.841 36.3844 268.896 35.847 268.896 35.2715V35.0049C268.896 34.4463 268.841 33.9215 268.731 33.4307C268.63 32.9313 268.465 32.4912 268.236 32.1104C268.016 31.721 267.724 31.4163 267.36 31.1963C266.996 30.9762 266.556 30.8662 266.04 30.8662C265.524 30.8662 265.084 30.9762 264.72 31.1963C264.364 31.4163 264.072 31.721 263.844 32.1104C263.624 32.4912 263.463 32.9313 263.361 33.4307C263.26 33.9215 263.209 34.4463 263.209 35.0049ZM282.227 38.9023V32.7832C282.227 32.3431 282.155 31.9665 282.011 31.6533C281.867 31.3317 281.643 31.082 281.338 30.9043C281.042 30.7266 280.657 30.6377 280.183 30.6377C279.776 30.6377 279.425 30.7096 279.129 30.8535C278.833 30.9889 278.604 31.1878 278.443 31.4502C278.283 31.7041 278.202 32.0046 278.202 32.3516H274.546C274.546 31.7676 274.681 31.2132 274.952 30.6885C275.223 30.1637 275.617 29.7025 276.133 29.3047C276.649 28.8984 277.263 28.5811 277.974 28.3525C278.693 28.124 279.497 28.0098 280.386 28.0098C281.452 28.0098 282.4 28.1875 283.229 28.543C284.059 28.8984 284.711 29.4316 285.185 30.1426C285.667 30.8535 285.908 31.7422 285.908 32.8086V38.6865C285.908 39.4398 285.955 40.0576 286.048 40.54C286.141 41.014 286.276 41.4287 286.454 41.7842V42H282.76C282.582 41.6276 282.447 41.1621 282.354 40.6035C282.269 40.0365 282.227 39.4694 282.227 38.9023ZM282.709 33.6338L282.734 35.7031H280.69C280.208 35.7031 279.789 35.7581 279.434 35.8682C279.078 35.9782 278.786 36.1348 278.558 36.3379C278.329 36.5326 278.16 36.7611 278.05 37.0234C277.948 37.2858 277.897 37.5736 277.897 37.8867C277.897 38.1999 277.969 38.4834 278.113 38.7373C278.257 38.9827 278.465 39.1774 278.735 39.3213C279.006 39.4567 279.324 39.5244 279.688 39.5244C280.238 39.5244 280.716 39.4144 281.122 39.1943C281.528 38.9743 281.841 38.7035 282.062 38.3818C282.29 38.0602 282.409 37.7555 282.417 37.4678L283.382 39.0166C283.246 39.3636 283.06 39.7233 282.823 40.0957C282.595 40.4681 282.303 40.8193 281.947 41.1494C281.592 41.471 281.164 41.7376 280.665 41.9492C280.166 42.1523 279.573 42.2539 278.888 42.2539C278.016 42.2539 277.225 42.0804 276.514 41.7334C275.811 41.3779 275.253 40.8913 274.838 40.2734C274.432 39.6471 274.229 38.9362 274.229 38.1406C274.229 37.4212 274.364 36.7822 274.635 36.2236C274.906 35.665 275.303 35.1953 275.828 34.8145C276.361 34.4251 277.026 34.1331 277.821 33.9385C278.617 33.7354 279.539 33.6338 280.589 33.6338H282.709ZM278.634 26.4102L281.122 22.5H285.096L281.604 26.4102H278.634ZM292.307 31.1963V42H288.65V28.2637H292.078L292.307 31.1963ZM291.773 34.6494H290.783C290.783 33.6338 290.914 32.7197 291.177 31.9072C291.439 31.0863 291.807 30.388 292.281 29.8125C292.755 29.2285 293.318 28.7842 293.97 28.4795C294.63 28.1663 295.366 28.0098 296.179 28.0098C296.822 28.0098 297.41 28.1029 297.943 28.2891C298.477 28.4753 298.934 28.7715 299.314 29.1777C299.704 29.584 300 30.1214 300.203 30.79C300.415 31.4587 300.521 32.2754 300.521 33.2402V42H296.839V33.2275C296.839 32.6182 296.754 32.1442 296.585 31.8057C296.416 31.4671 296.166 31.2301 295.836 31.0947C295.514 30.9508 295.117 30.8789 294.643 30.8789C294.152 30.8789 293.724 30.9762 293.36 31.1709C293.005 31.3656 292.709 31.6364 292.472 31.9834C292.243 32.3219 292.07 32.7197 291.951 33.1768C291.833 33.6338 291.773 34.1247 291.773 34.6494ZM178.15 62.2637V64.8535H170.152V62.2637H178.15ZM172.133 58.874H175.789V71.8613C175.789 72.2591 175.84 72.5638 175.941 72.7754C176.051 72.987 176.212 73.1351 176.424 73.2197C176.635 73.2959 176.902 73.334 177.224 73.334C177.452 73.334 177.655 73.3255 177.833 73.3086C178.019 73.2832 178.176 73.2578 178.303 73.2324L178.315 75.9238C178.002 76.0254 177.664 76.1058 177.3 76.165C176.936 76.2243 176.534 76.2539 176.094 76.2539C175.29 76.2539 174.587 76.1227 173.986 75.8604C173.394 75.5895 172.937 75.1579 172.615 74.5654C172.294 73.973 172.133 73.1943 172.133 72.2295V58.874ZM183.889 65.2598V76H180.232V62.2637H183.673L183.889 65.2598ZM188.027 62.1748L187.964 65.5645C187.786 65.5391 187.57 65.5179 187.316 65.501C187.071 65.4756 186.847 65.4629 186.644 65.4629C186.127 65.4629 185.679 65.5306 185.298 65.666C184.925 65.793 184.612 65.9834 184.358 66.2373C184.113 66.4912 183.927 66.8001 183.8 67.1641C183.681 67.528 183.614 67.9427 183.597 68.4082L182.86 68.1797C182.86 67.291 182.949 66.4743 183.127 65.7295C183.305 64.9762 183.563 64.3203 183.901 63.7617C184.248 63.2031 184.672 62.7715 185.171 62.4668C185.67 62.1621 186.242 62.0098 186.885 62.0098C187.088 62.0098 187.295 62.0267 187.507 62.0605C187.718 62.0859 187.892 62.124 188.027 62.1748ZM203.084 61.0576H205.255C205.255 62.0986 205.103 62.9704 204.798 63.6729C204.493 64.3753 203.981 64.9085 203.262 65.2725C202.551 65.6279 201.569 65.8057 200.316 65.8057L200.329 64.1045C201.15 64.1045 201.755 63.9945 202.145 63.7744C202.542 63.5544 202.796 63.2201 202.906 62.7715C203.025 62.3145 203.084 61.7432 203.084 61.0576ZM197.879 72.7119V62.2637H201.535V76H198.095L197.879 72.7119ZM198.285 69.8936L199.364 69.8682C199.364 70.7822 199.258 71.6328 199.047 72.4199C198.835 73.1986 198.518 73.8757 198.095 74.4512C197.672 75.0182 197.138 75.4626 196.495 75.7842C195.852 76.0973 195.094 76.2539 194.223 76.2539C193.554 76.2539 192.936 76.1608 192.369 75.9746C191.811 75.7799 191.328 75.4795 190.922 75.0732C190.524 74.6585 190.211 74.1296 189.982 73.4863C189.762 72.8346 189.652 72.0518 189.652 71.1377V62.2637H193.309V71.1631C193.309 71.5693 193.355 71.9121 193.448 72.1914C193.55 72.4707 193.689 72.6992 193.867 72.877C194.045 73.0547 194.252 73.1816 194.489 73.2578C194.735 73.334 195.006 73.3721 195.302 73.3721C196.055 73.3721 196.647 73.2197 197.079 72.915C197.519 72.6104 197.828 72.1956 198.006 71.6709C198.192 71.1377 198.285 70.5452 198.285 69.8936ZM193.537 78.9834C193.537 78.4925 193.723 78.082 194.096 77.752C194.468 77.4303 194.967 77.2695 195.594 77.2695C196.212 77.2695 196.707 77.4303 197.079 77.752C197.46 78.082 197.65 78.4925 197.65 78.9834C197.65 79.4658 197.46 79.8721 197.079 80.2021C196.707 80.5322 196.212 80.6973 195.594 80.6973C194.967 80.6973 194.468 80.5322 194.096 80.2021C193.723 79.8721 193.537 79.4658 193.537 78.9834ZM211.222 73.3975C211.67 73.3975 212.068 73.3128 212.415 73.1436C212.762 72.9658 213.033 72.7204 213.228 72.4072C213.431 72.0856 213.536 71.709 213.545 71.2773H216.985C216.977 72.2422 216.719 73.1012 216.211 73.8545C215.703 74.5993 215.022 75.1875 214.167 75.6191C213.312 76.0423 212.356 76.2539 211.298 76.2539C210.231 76.2539 209.3 76.0762 208.505 75.7207C207.718 75.3652 207.062 74.8743 206.537 74.248C206.012 73.6133 205.619 72.877 205.356 72.0391C205.094 71.1927 204.963 70.2871 204.963 69.3223V68.9541C204.963 67.9808 205.094 67.0752 205.356 66.2373C205.619 65.391 206.012 64.6546 206.537 64.0283C207.062 63.3936 207.718 62.8984 208.505 62.543C209.292 62.1875 210.215 62.0098 211.272 62.0098C212.398 62.0098 213.384 62.2256 214.23 62.6572C215.085 63.0889 215.754 63.7067 216.236 64.5107C216.727 65.3063 216.977 66.25 216.985 67.3418H213.545C213.536 66.8848 213.439 66.4701 213.253 66.0977C213.075 65.7253 212.813 65.429 212.466 65.209C212.127 64.9805 211.708 64.8662 211.209 64.8662C210.676 64.8662 210.24 64.9805 209.901 65.209C209.563 65.429 209.3 65.7337 209.114 66.123C208.928 66.5039 208.797 66.9398 208.721 67.4307C208.653 67.9131 208.619 68.4209 208.619 68.9541V69.3223C208.619 69.8555 208.653 70.3675 208.721 70.8584C208.788 71.3493 208.915 71.7852 209.102 72.166C209.296 72.5469 209.563 72.8473 209.901 73.0674C210.24 73.2874 210.68 73.3975 211.222 73.3975ZM232.309 62.2637V64.8535H224.311V62.2637H232.309ZM226.291 58.874H229.947V71.8613C229.947 72.2591 229.998 72.5638 230.1 72.7754C230.21 72.987 230.37 73.1351 230.582 73.2197C230.794 73.2959 231.06 73.334 231.382 73.334C231.61 73.334 231.813 73.3255 231.991 73.3086C232.177 73.2832 232.334 73.2578 232.461 73.2324L232.474 75.9238C232.16 76.0254 231.822 76.1058 231.458 76.165C231.094 76.2243 230.692 76.2539 230.252 76.2539C229.448 76.2539 228.745 76.1227 228.145 75.8604C227.552 75.5895 227.095 75.1579 226.773 74.5654C226.452 73.973 226.291 73.1943 226.291 72.2295V58.874ZM242.516 72.7119V62.2637H246.172V76H242.731L242.516 72.7119ZM242.922 69.8936L244.001 69.8682C244.001 70.7822 243.895 71.6328 243.684 72.4199C243.472 73.1986 243.155 73.8757 242.731 74.4512C242.308 75.0182 241.775 75.4626 241.132 75.7842C240.489 76.0973 239.731 76.2539 238.859 76.2539C238.191 76.2539 237.573 76.1608 237.006 75.9746C236.447 75.7799 235.965 75.4795 235.559 75.0732C235.161 74.6585 234.848 74.1296 234.619 73.4863C234.399 72.8346 234.289 72.0518 234.289 71.1377V62.2637H237.945V71.1631C237.945 71.5693 237.992 71.9121 238.085 72.1914C238.187 72.4707 238.326 72.6992 238.504 72.877C238.682 73.0547 238.889 73.1816 239.126 73.2578C239.371 73.334 239.642 73.3721 239.938 73.3721C240.692 73.3721 241.284 73.2197 241.716 72.915C242.156 72.6104 242.465 72.1956 242.643 71.6709C242.829 71.1377 242.922 70.5452 242.922 69.8936ZM253.04 74.4512L256.684 62.2637H260.606L255.084 78.0693C254.965 78.4163 254.805 78.7887 254.602 79.1865C254.407 79.5843 254.14 79.9609 253.802 80.3164C253.472 80.6803 253.053 80.9766 252.545 81.2051C252.046 81.4336 251.432 81.5479 250.704 81.5479C250.357 81.5479 250.074 81.5267 249.854 81.4844C249.633 81.4421 249.371 81.3828 249.066 81.3066V78.6279C249.16 78.6279 249.257 78.6279 249.358 78.6279C249.46 78.6364 249.557 78.6406 249.65 78.6406C250.133 78.6406 250.526 78.5856 250.831 78.4756C251.136 78.3656 251.381 78.1963 251.567 77.9678C251.754 77.7477 251.902 77.46 252.012 77.1045L253.04 74.4512ZM251.517 62.2637L254.5 72.2168L255.021 76.0889L252.532 76.3555L247.594 62.2637H251.517ZM268.211 76.2539C267.145 76.2539 266.188 76.0846 265.342 75.7461C264.495 75.3991 263.776 74.9209 263.184 74.3115C262.6 73.7021 262.151 72.9954 261.838 72.1914C261.525 71.3789 261.368 70.5156 261.368 69.6016V69.0938C261.368 68.0527 261.516 67.1006 261.812 66.2373C262.109 65.374 262.532 64.625 263.082 63.9902C263.641 63.3555 264.318 62.8688 265.113 62.5303C265.909 62.1833 266.806 62.0098 267.805 62.0098C268.778 62.0098 269.641 62.1706 270.395 62.4922C271.148 62.8138 271.778 63.2708 272.286 63.8633C272.802 64.4557 273.192 65.1667 273.454 65.9961C273.716 66.8171 273.848 67.7311 273.848 68.7383V70.2617H262.93V67.8242H270.255V67.5449C270.255 67.0371 270.162 66.5843 269.976 66.1865C269.798 65.7803 269.527 65.4587 269.163 65.2217C268.799 64.9847 268.334 64.8662 267.767 64.8662C267.284 64.8662 266.869 64.972 266.522 65.1836C266.175 65.3952 265.892 65.6914 265.672 66.0723C265.46 66.4531 265.299 66.9017 265.189 67.418C265.088 67.9258 265.037 68.4844 265.037 69.0938V69.6016C265.037 70.1517 265.113 70.6595 265.266 71.125C265.426 71.5905 265.651 71.9925 265.938 72.3311C266.235 72.6696 266.59 72.932 267.005 73.1182C267.428 73.3044 267.906 73.3975 268.439 73.3975C269.1 73.3975 269.713 73.2705 270.28 73.0166C270.856 72.7542 271.351 72.3607 271.766 71.8359L273.543 73.7656C273.255 74.1803 272.862 74.5781 272.362 74.959C271.871 75.3398 271.279 75.653 270.585 75.8984C269.891 76.1354 269.1 76.2539 268.211 76.2539ZM262.739 60.4229L266.332 57.4775H268.363L271.969 60.4229H269.277L267.348 58.7852L265.418 60.4229H262.739ZM271.042 58.6836L273.124 55.2686H276.006L273.124 58.6836H271.042ZM279.51 65.1963V76H275.854V62.2637H279.281L279.51 65.1963ZM278.977 68.6494H277.986C277.986 67.6338 278.118 66.7197 278.38 65.9072C278.642 65.0863 279.01 64.388 279.484 63.8125C279.958 63.2285 280.521 62.7842 281.173 62.4795C281.833 62.1663 282.569 62.0098 283.382 62.0098C284.025 62.0098 284.613 62.1029 285.146 62.2891C285.68 62.4753 286.137 62.7715 286.518 63.1777C286.907 63.584 287.203 64.1214 287.406 64.79C287.618 65.4587 287.724 66.2754 287.724 67.2402V76H284.042V67.2275C284.042 66.6182 283.957 66.1442 283.788 65.8057C283.619 65.4671 283.369 65.2301 283.039 65.0947C282.717 64.9508 282.32 64.8789 281.846 64.8789C281.355 64.8789 280.927 64.9762 280.563 65.1709C280.208 65.3656 279.912 65.6364 279.675 65.9834C279.446 66.3219 279.273 66.7197 279.154 67.1768C279.036 67.6338 278.977 68.1247 278.977 68.6494Z" fill="#1C92DB"/>
</g>
<defs>
<clipPath id="clip0_617_1095">
<rect width="375" height="100" fill="white"/>
</clipPath>
<clipPath id="clip1_617_1095">
<rect width="102.965" height="90" fill="white" transform="translate(10 10)"/>
</clipPath>
</defs>
</svg>
