<svg width="16" height="13" viewBox="0 0 16 13" fill="none" xmlns="http://www.w3.org/2000/svg">
<path d="M1.53568 4.08934C1.73808 4.23216 2.34818 4.65635 3.36602 5.36168C4.38389 6.067 5.16364 6.61009 5.70532 6.99096C5.76483 7.03271 5.89127 7.12346 6.08469 7.26335C6.27815 7.40332 6.43889 7.51644 6.56679 7.60272C6.69479 7.68897 6.84953 7.78573 7.03116 7.89284C7.21273 7.99985 7.38389 8.08035 7.5446 8.13364C7.70534 8.18736 7.85414 8.21398 7.99102 8.21398H8.009C8.14589 8.21398 8.29474 8.18733 8.45549 8.13364C8.61613 8.08035 8.78745 7.99976 8.96886 7.89284C9.15037 7.7856 9.30511 7.68894 9.43311 7.60272C9.56111 7.51644 9.72172 7.40332 9.91524 7.26335C10.1086 7.12334 10.2352 7.03271 10.2947 6.99096C10.8423 6.61009 12.2352 5.64279 14.4733 4.08915C14.9078 3.78571 15.2708 3.41957 15.5624 2.99098C15.8542 2.56257 16 2.11315 16 1.64296C16 1.25005 15.8585 0.91371 15.5758 0.633974C15.293 0.354176 14.9582 0.214355 14.5714 0.214355H1.42851C0.970208 0.214355 0.617513 0.369094 0.370489 0.678569C0.123496 0.988108 0 1.37502 0 1.83926C0 2.21425 0.163745 2.62061 0.491077 3.05809C0.818379 3.49559 1.1667 3.83938 1.53568 4.08934Z" fill="#BEE1F9"/>
<path d="M15.107 5.04445C13.1548 6.36576 11.6725 7.39264 10.6607 8.12486C10.3215 8.37476 10.0462 8.56984 9.83485 8.70963C9.62348 8.84951 9.34237 8.99237 8.99111 9.13813C8.63998 9.28411 8.31274 9.35688 8.00912 9.35688H7.99104C7.68747 9.35688 7.36005 9.28411 7.00892 9.13813C6.65779 8.99237 6.37649 8.84951 6.16518 8.70963C5.95393 8.56984 5.67861 8.37476 5.33936 8.12486C4.53574 7.53562 3.0566 6.50868 0.901876 5.04445C0.562504 4.81841 0.26191 4.55932 0 4.2677V11.3568C0 11.7499 0.139821 12.086 0.419618 12.3658C0.699353 12.6457 1.03572 12.7855 1.4286 12.7855H14.5715C14.9643 12.7855 15.3006 12.6457 15.5804 12.3658C15.8602 12.0859 16 11.7499 16 11.3568V4.2677C15.744 4.55328 15.4465 4.81238 15.107 5.04445Z" fill="#BEE1F9"/>
</svg>
