<svg width="16" height="13" viewBox="0 0 16 13" fill="none" xmlns="http://www.w3.org/2000/svg">
<path d="M8.00002 2.70374L2.2937 7.40799C2.2937 7.41463 2.29203 7.4244 2.2887 7.43771C2.28543 7.45092 2.28369 7.46051 2.28369 7.46733V12.2309C2.28369 12.4029 2.34657 12.5519 2.4723 12.6774C2.59799 12.803 2.74683 12.8662 2.91886 12.8662H6.72961V9.05527H9.27047V12.8664H13.0812C13.2532 12.8664 13.4022 12.8033 13.5277 12.6774C13.6535 12.5521 13.7166 12.4029 13.7166 12.2309V7.46733C13.7166 7.44091 13.7129 7.42096 13.7066 7.40799L8.00002 2.70374Z" fill="#BEE1F9"/>
<path d="M15.8896 6.33626L13.7163 4.53006V0.480971C13.7163 0.388405 13.6866 0.312281 13.6269 0.252702C13.5676 0.193193 13.4915 0.163439 13.3987 0.163439H11.4933C11.4007 0.163439 11.3246 0.193193 11.265 0.252702C11.2055 0.312281 11.1758 0.38844 11.1758 0.480971V2.41617L8.75431 0.391569C8.54283 0.219541 8.29138 0.133545 8.00023 0.133545C7.70911 0.133545 7.45769 0.219541 7.246 0.391569L0.110278 6.33626C0.0441299 6.3891 0.00787516 6.46022 0.0011317 6.54955C-0.005577 6.63881 0.0175385 6.71678 0.0705476 6.78289L0.685836 7.5173C0.738845 7.57681 0.808226 7.61321 0.894257 7.62652C0.973684 7.63319 1.05311 7.60997 1.13254 7.55707L8.00002 1.83063L14.8676 7.55703C14.9206 7.60319 14.99 7.62624 15.076 7.62624H15.1058C15.1917 7.61317 15.2609 7.57653 15.3142 7.51716L15.9296 6.78286C15.9825 6.71661 16.0057 6.63878 15.9988 6.54941C15.992 6.46032 15.9556 6.3892 15.8896 6.33626Z" fill="#BEE1F9"/>
</svg>
