<svg width="18" height="22" viewBox="0 0 18 22" fill="none" xmlns="http://www.w3.org/2000/svg">
<path fill-rule="evenodd" clip-rule="evenodd" d="M17.5 8.793V2C17.5 1.1715 16.8285 0.5 16 0.5H2C1.1715 0.5 0.5 1.1715 0.5 2V20C0.5 20.8285 1.1715 21.5 2 21.5H16C16.8285 21.5 17.5 20.8285 17.5 20V14.207L13.5205 18.1865C13.356 18.3515 13.155 18.4755 12.934 18.549C12.238 18.781 10.158 19.4745 10.158 19.4745C9.97851 19.534 9.7805 19.4875 9.6465 19.3535C9.5125 19.2195 9.466 19.0215 9.5255 18.842C9.5255 18.842 10.219 16.762 10.451 16.066C10.5245 15.845 10.6485 15.644 10.8135 15.4795L17.5 8.793ZM3 19.5H4C4.1895 19.5 4.36251 19.393 4.44701 19.2235L5 18.118L5.55299 19.2235C5.63749 19.393 5.8105 19.5 6 19.5H8C8.276 19.5 8.5 19.276 8.5 19C8.5 18.724 8.276 18.5 8 18.5H6.30901L5.44701 16.7765C5.36251 16.607 5.1895 16.5 5 16.5C4.8105 16.5 4.63749 16.607 4.55299 16.7765L3.69099 18.5H3C2.724 18.5 2.5 18.724 2.5 19C2.5 19.276 2.724 19.5 3 19.5ZM4 13.5H11C11.276 13.5 11.5 13.276 11.5 13C11.5 12.724 11.276 12.5 11 12.5H4C3.724 12.5 3.5 12.724 3.5 13C3.5 13.276 3.724 13.5 4 13.5ZM4 10.5H14C14.276 10.5 14.5 10.276 14.5 10C14.5 9.724 14.276 9.5 14 9.5H4C3.724 9.5 3.5 9.724 3.5 10C3.5 10.276 3.724 10.5 4 10.5ZM4 7.5H14C14.276 7.5 14.5 7.276 14.5 7C14.5 6.724 14.276 6.5 14 6.5H4C3.724 6.5 3.5 6.724 3.5 7C3.5 7.276 3.724 7.5 4 7.5ZM4 4.5H14C14.276 4.5 14.5 4.276 14.5 4C14.5 3.724 14.276 3.5 14 3.5H4C3.724 3.5 3.5 3.724 3.5 4C3.5 4.276 3.724 4.5 4 4.5Z" fill="white"/>
</svg>
