<svg width="24" height="9" viewBox="0 0 24 9" fill="none" xmlns="http://www.w3.org/2000/svg">
<path d="M6.92607 0H0.214762V1.44964H4.88583L0.268452 7.14083C0.107381 7.35559 0 7.57035 0 7.99988V8.37571H6.33547C6.65761 8.37571 6.92607 8.10726 6.92607 7.78511V7.03345H2.04024L6.38916 1.61071C6.44285 1.55702 6.55023 1.39595 6.60392 1.34226V1.28857C6.87238 0.912737 6.92607 0.590595 6.92607 0.214762V0Z" fill="white"/>
<path d="M15.4617 8.32202H16.4282V0H14.9785V7.8925C14.9785 8.10726 15.1933 8.32202 15.4617 8.32202Z" fill="white"/>
<path d="M10.5251 1.82544C8.69964 1.82544 7.25 3.27508 7.25 5.10056C7.25 6.92603 8.69964 8.37567 10.5251 8.37567C12.3506 8.37567 13.8002 6.92603 13.8002 5.10056C13.8539 3.32877 12.3506 1.82544 10.5251 1.82544ZM10.5251 7.03341C9.45131 7.03341 8.59226 6.17437 8.59226 5.10056C8.59226 4.02675 9.45131 3.1677 10.5251 3.1677C11.5989 3.1677 12.458 4.02675 12.458 5.10056C12.458 6.17437 11.5989 7.03341 10.5251 7.03341Z" fill="white"/>
<path d="M20.6706 1.77124C18.8451 1.77124 17.3418 3.27457 17.3418 5.10005C17.3418 6.92552 18.8451 8.42886 20.6706 8.42886C22.4961 8.42886 23.9994 6.92552 23.9994 5.10005C23.9994 3.27457 22.4961 1.77124 20.6706 1.77124ZM20.6706 7.0329C19.5968 7.0329 18.7377 6.17386 18.7377 5.10005C18.7377 4.02624 19.5968 3.16719 20.6706 3.16719C21.7444 3.16719 22.6035 4.02624 22.6035 5.10005C22.6035 6.17386 21.7444 7.0329 20.6706 7.0329Z" fill="white"/>
<path d="M13.0457 8.32194H13.7973V2.04016H12.4551V7.78504C12.4551 8.10718 12.7235 8.32194 13.0457 8.32194Z" fill="white"/>
</svg>
