<svg width="51" height="60" viewBox="0 0 51 60" fill="none" xmlns="http://www.w3.org/2000/svg">
<g clip-path="url(#clip0_617_778)">
<path d="M7.93401 49.973H0.113281V48.0734C2.62973 49.2259 5.29068 49.8708 7.93401 49.973Z" fill="white"/>
<path d="M22.215 29.0203C20.9991 29.7428 19.762 30.4759 18.5003 31.149L17.954 30.6028L7.93401 20.5793V33.9333C5.29068 33.8276 2.61563 33.1368 0.113281 31.9103V1.5896L25.5914 27.0677C24.446 27.6916 23.3217 28.3612 22.215 29.0203Z" fill="white"/>
<path d="M48.4966 49.973H37.3241L29.2743 41.9196L28.9395 41.5883C30.166 41.0561 31.4207 40.6191 32.7141 40.3407C34.5962 39.9354 36.5875 39.8543 38.6176 40.094L48.4966 49.973Z" fill="white"/>
<path d="M50.1358 0V7.61278H20.1816L36.4963 23.9239C35.1147 23.9168 33.7578 24.0508 32.4537 24.3327C30.7303 24.7063 29.0949 25.3301 27.5125 26.0808L1.43164 0H50.1358Z" fill="white"/>
<path d="M37.7792 25.2067L37.7863 25.2138C37.6876 25.2032 37.5889 25.1962 37.4902 25.1926C37.5854 25.1926 37.6806 25.1997 37.7792 25.2067Z" fill="white"/>
<path d="M39.1565 26.5848L39.1706 26.5989C38.508 26.5002 37.8454 26.4368 37.1934 26.4086C37.8419 26.4332 38.4974 26.4932 39.1565 26.5848Z" fill="white"/>
<path d="M36.0723 27.6281C35.9524 27.6316 35.8326 27.6351 35.7128 27.6386H35.6035C35.7586 27.6316 35.9137 27.6281 36.0723 27.6281Z" fill="white"/>
<path d="M40.6747 28.1074C39.3495 27.8148 38.0313 27.6562 36.7343 27.6316C36.685 27.628 36.6392 27.6245 36.5898 27.6245C37.9221 27.6386 39.279 27.7866 40.6394 28.0721H40.6429L40.6747 28.1074Z" fill="white"/>
<path d="M34.8744 28.9215C34.7263 28.9321 34.5748 28.9462 34.4268 28.9603C34.5677 28.9462 34.7087 28.9321 34.8497 28.9215H34.8744Z" fill="white"/>
<path d="M37.4432 28.8898C37.415 28.8862 37.3833 28.8862 37.3516 28.8862H37.4115C37.4115 28.8862 37.4326 28.8898 37.4432 28.8898Z" fill="white"/>
<path d="M50.1351 11.3557V28.5268C47.9358 27.0465 45.7013 25.9152 43.4633 25.1468C43.1496 25.0376 42.836 24.9389 42.5223 24.8473V18.9685H35.0928V11.3557H50.1351Z" fill="white"/>
<path d="M50.1356 44.8273V48.7042L42.3008 40.8694C42.5545 40.9469 42.8083 41.028 43.0621 41.1161C45.4305 41.9267 47.8024 43.1744 50.1356 44.8273Z" fill="white"/>
<path d="M0.000976562 51.4216C0.596606 51.3194 1.43542 51.2454 2.61611 51.2454C3.79679 51.2454 4.66028 51.4745 5.23124 51.9291C5.77753 52.3591 6.14407 53.071 6.14407 53.9098C6.14407 54.7487 5.86564 55.4571 5.35812 55.9399C4.69905 56.5602 3.71926 56.8422 2.57734 56.8422C2.32358 56.8422 2.09449 56.8281 1.91827 56.8034V59.8626H0.000976562V51.4216ZM1.91827 55.3055C2.08392 55.3443 2.28481 55.3549 2.56677 55.3549C3.5959 55.3549 4.2303 54.8332 4.2303 53.9592C4.2303 53.1732 3.68401 52.7045 2.71832 52.7045C2.32358 52.7045 2.05925 52.7432 1.91827 52.782V55.309V55.3055Z" fill="white"/>
<path d="M15.2055 55.4923C15.2055 58.2978 13.5032 59.9965 11.0044 59.9965C8.50557 59.9965 6.97949 58.0793 6.97949 55.6439C6.97949 53.0816 8.61836 51.1643 11.1419 51.1643C13.6653 51.1643 15.202 53.1309 15.202 55.4923H15.2055ZM9.02367 55.6051C9.02367 57.2792 9.80961 58.4599 11.1066 58.4599C12.4036 58.4599 13.1614 57.2158 13.1614 55.5522C13.1614 54.0156 12.4247 52.6974 11.0925 52.6974C9.76027 52.6974 9.02367 53.9416 9.02367 55.6051Z" fill="white"/>
<path d="M17.7713 59.8591L15.7412 51.3053H17.8101L18.4586 54.8333C18.6489 55.8483 18.8251 56.9514 18.9661 57.8149H18.9907C19.1317 56.888 19.3326 55.8589 19.5476 54.8086L20.2701 51.3053H22.3249L23.0086 54.9108C23.1989 55.9117 23.3399 56.8281 23.4668 57.7797H23.4914C23.6183 56.8281 23.8086 55.8236 23.9849 54.8086L24.6827 51.3053H26.6493L24.4395 59.8591H22.346L21.6235 56.1796C21.4578 55.3161 21.3204 54.5161 21.2182 53.5398H21.1935C21.042 54.5055 20.901 55.3161 20.7001 56.1796L19.8895 59.8591H17.7713Z" fill="white"/>
<path d="M28.9647 57.6634L28.355 59.8591H26.3496L28.9647 51.3053H31.5023L34.1562 59.8591H32.0733L31.4142 57.6634H28.9647ZM31.1358 56.2148L30.6036 54.3998C30.4521 53.8922 30.3005 53.2578 30.1736 52.7503H30.149C30.0221 53.2578 29.8952 53.9063 29.7542 54.3998L29.2467 56.2148H31.1393H31.1358Z" fill="white"/>
<path d="M41.2612 59.6194C40.9053 59.7957 40.1052 59.986 39.0655 59.986C36.1085 59.986 34.5859 58.1462 34.5859 55.7073C34.5859 52.7891 36.6689 51.1643 39.2558 51.1643C40.2568 51.1643 41.018 51.3687 41.3634 51.5449L40.9687 53.0816C40.574 52.916 40.0277 52.7644 39.3439 52.7644C37.8073 52.7644 36.616 53.6913 36.616 55.5945C36.616 57.3074 37.6311 58.3859 39.358 58.3859C39.9431 58.3859 40.5881 58.259 40.9687 58.1074L41.2612 59.6194Z" fill="white"/>
<path d="M49.9809 55.4923C49.9809 58.2978 48.2786 59.9965 45.7798 59.9965C43.281 59.9965 41.7549 58.0793 41.7549 55.6439C41.7549 53.0816 43.3937 51.1643 45.9172 51.1643C48.4407 51.1643 49.9774 53.1309 49.9774 55.4923H49.9809ZM43.7991 55.6051C43.7991 57.2792 44.585 58.4599 45.882 58.4599C47.179 58.4599 47.9367 57.2158 47.9367 55.5522C47.9367 54.0156 47.2001 52.6974 45.8679 52.6974C44.5357 52.6974 43.7991 53.9416 43.7991 55.6051Z" fill="white"/>
<path d="M28.9402 41.5883C26.8361 42.5046 24.8201 43.7065 22.8465 44.8801C19.7132 46.7481 16.4708 48.6759 12.8512 49.5148C11.4943 49.832 10.095 49.987 8.6888 49.987C8.43856 49.987 8.18481 49.9835 7.93457 49.9729V48.7394H7.97686C8.20948 48.7499 8.44209 48.7535 8.6747 48.7535H8.6888C8.86502 48.7535 9.04124 48.7499 9.21746 48.7464C9.53114 48.7359 9.84481 48.7218 10.1585 48.6936C11.0678 48.6266 11.9665 48.4891 12.8512 48.2812C16.4708 47.4424 19.7132 45.5145 22.8465 43.6466C24.5523 42.6315 26.2934 41.5953 28.0943 40.7424L28.401 41.0491L28.475 41.1231L28.5208 41.1689L28.9402 41.5883Z" fill="white"/>
<path d="M7.93498 47.506V48.7395C5.29165 48.6373 2.63071 47.9924 0.114258 46.8399V45.6063C2.63071 46.7588 5.29165 47.4038 7.93498 47.506Z" fill="white"/>
<path d="M37.2729 38.7478C35.708 38.6702 34.1784 38.79 32.7158 39.1072C31.1227 39.4526 29.5896 40.0342 28.0952 40.7426L27.637 40.2844L27.6159 40.2597L27.2705 39.9143C29.0186 39.0262 30.8267 38.2825 32.7158 37.8737C33.7872 37.6446 34.8939 37.5177 36.0217 37.4966L36.2966 37.7715L36.3036 37.7785L36.3953 37.8702L37.2658 38.7407L37.2729 38.7478Z" fill="white"/>
<path d="M50.1363 42.3603V43.5939C47.8031 41.9409 45.4312 40.6933 43.0628 39.8826C42.2522 39.6042 41.4415 39.3787 40.6309 39.1989L39.126 37.694C40.4335 37.8808 41.7517 38.2015 43.0628 38.6491C45.4312 39.4597 47.8031 40.7074 50.1363 42.3603Z" fill="white"/>
<path d="M27.2696 39.9143C25.7612 40.6791 24.2915 41.5531 22.8465 42.4131C19.7132 44.281 16.4708 46.2089 12.8512 47.0477C11.9665 47.2557 11.0678 47.3931 10.1585 47.4601C9.84481 47.4883 9.53114 47.5024 9.21746 47.5129C9.04124 47.5165 8.86502 47.52 8.6888 47.52H8.6747C8.44209 47.52 8.20948 47.5165 7.97686 47.5059C7.96277 47.5059 7.94867 47.5059 7.93457 47.5024V46.2723H7.97686C8.20948 46.2829 8.44209 46.2864 8.6747 46.2864H8.6888C8.86502 46.2864 9.04124 46.2829 9.21746 46.2794C9.53114 46.2688 9.84481 46.2547 10.1585 46.2265C11.0678 46.1596 11.9665 46.0221 12.8512 45.8142C16.4708 44.9754 19.7132 43.0475 22.8465 41.1795C24.0307 40.4746 25.2325 39.7627 26.4555 39.1036L26.9031 39.5512L26.9383 39.583L27.2696 39.9143Z" fill="white"/>
<path d="M7.93498 45.0388V46.2724C5.29165 46.1702 2.63071 45.5252 0.114258 44.3727V43.1392C2.63071 44.2917 5.29165 44.9366 7.93498 45.0388Z" fill="white"/>
<path d="M34.8478 36.3229C34.1253 36.3863 33.4133 36.4885 32.7155 36.6401C30.5303 37.1123 28.458 38.0322 26.4561 39.1037L25.6631 38.3107C27.9117 37.0489 30.2413 35.9422 32.7155 35.4065C33.0538 35.3325 33.3992 35.2726 33.7446 35.2197L33.9667 35.4453H33.9702L34.3121 35.7907H34.3156L34.3261 35.8013L34.8478 36.3229Z" fill="white"/>
<path d="M50.1363 39.8931V41.1267C47.8032 39.4737 45.4312 38.2261 43.0628 37.4154C41.2865 36.8057 39.4961 36.4357 37.7444 36.3123L36.458 35.0259C38.615 35.0365 40.8495 35.4241 43.0628 36.1819C45.4312 36.9925 47.8032 38.2402 50.1363 39.8931Z" fill="white"/>
<path d="M25.6625 38.3106C24.7109 38.8393 23.7734 39.3961 22.8465 39.9459C19.7132 41.8139 16.4708 43.7417 12.8512 44.5806C11.9665 44.7885 11.0678 44.926 10.1585 44.9929C9.84481 45.0211 9.53114 45.0352 9.21746 45.0458C9.04124 45.0493 8.86502 45.0528 8.6888 45.0528H8.6747C8.44209 45.0528 8.20948 45.0493 7.97686 45.0387C7.96277 45.0387 7.94867 45.0387 7.93457 45.0352V43.8052H7.97686C8.20948 43.8158 8.44209 43.8193 8.6747 43.8193H8.6888C8.86502 43.8193 9.04124 43.8158 9.21746 43.8122C9.53114 43.8017 9.84481 43.7876 10.1585 43.7594C11.0678 43.6924 11.9665 43.555 12.8512 43.347C16.4708 42.5082 19.7132 40.5803 22.8465 38.7124C23.5161 38.3141 24.1893 37.9123 24.873 37.5211L25.6625 38.3106Z" fill="white"/>
<path d="M7.93498 42.5717V43.8052C5.29165 43.703 2.63071 43.058 0.114258 41.9055V40.672C2.63071 41.8245 5.29165 42.4695 7.93498 42.5717Z" fill="white"/>
<path d="M32.7014 34.1764C29.9418 34.7756 27.3619 36.0867 24.8736 37.5211L24.0947 36.7422C26.5266 35.3113 29.036 33.9403 31.7146 33.1896L31.8873 33.3623L32.7014 34.1764Z" fill="white"/>
<path d="M50.1363 37.426V38.6596C47.8031 37.0066 45.4312 35.759 43.0628 34.9484C41.0996 34.2752 39.1224 33.8945 37.1946 33.81C36.7505 33.7888 36.3099 33.7853 35.8729 33.7994C35.7672 33.8029 35.6614 33.8064 35.5557 33.81C35.4535 33.8135 35.3548 33.8205 35.2561 33.8276L35.2526 33.8241L34.5724 33.1403L34.1318 32.6998C34.4173 32.661 34.7063 32.6328 34.9953 32.6116C35.2843 32.587 35.5804 32.5729 35.8729 32.5658C36.3099 32.5517 36.7505 32.5553 37.1946 32.5764C39.1224 32.661 41.0996 33.0416 43.0628 33.7148C45.4312 34.5254 47.8031 35.7731 50.1363 37.426Z" fill="white"/>
<path d="M24.0941 36.7423C23.6747 36.9855 23.2588 37.2322 22.8465 37.4789C19.7132 39.3468 16.4708 41.2747 12.8512 42.1135C11.9665 42.3215 11.0678 42.4589 10.1585 42.5259C9.84481 42.5541 9.53114 42.5682 9.21746 42.5787C9.04124 42.5823 8.86502 42.5858 8.6888 42.5858H8.6747C8.44209 42.5858 8.20948 42.5823 7.97686 42.5717C7.96277 42.5717 7.94867 42.5717 7.93457 42.5682V41.3381H7.97686C8.20948 41.3487 8.44209 41.3522 8.6747 41.3522H8.6888C8.86502 41.3522 9.04124 41.3487 9.21746 41.3452C9.53114 41.3346 9.84481 41.3205 10.1585 41.2923C11.0678 41.2254 11.9665 41.0879 12.8512 40.88C16.4708 40.0412 19.7132 38.1133 22.8465 36.2453C23.0051 36.1502 23.1601 36.0585 23.3187 35.9634L23.7663 36.411L23.8721 36.5167L23.8826 36.5273L23.9708 36.6189L24.0941 36.7423Z" fill="white"/>
<path d="M7.93498 40.1045V41.3381C5.29165 41.2358 2.63071 40.5909 0.114258 39.4384V38.2048C2.63071 39.3573 5.29165 40.0023 7.93498 40.1045Z" fill="white"/>
<path d="M30.7735 32.2486C28.1654 33.1261 25.7089 34.543 23.3193 35.9633L23.277 35.921L23.196 35.84L23.0303 35.6743L22.558 35.2056L22.5439 35.1915C22.6462 35.1315 22.7448 35.0716 22.847 35.0117C25.1062 33.6654 27.4218 32.2873 29.8677 31.3428L30.0334 31.5084L30.7242 32.1992L30.7735 32.2486Z" fill="white"/>
<path d="M50.1364 34.9589V36.1925C47.8032 34.5395 45.4313 33.2919 43.0629 32.4813C41.0997 31.8081 39.1225 31.4274 37.1947 31.3429C36.7506 31.3217 36.31 31.3182 35.873 31.3323C35.7532 31.3358 35.6333 31.3393 35.517 31.3464C35.3972 31.3499 35.2774 31.357 35.1611 31.364C34.4491 31.4134 33.7513 31.505 33.0676 31.6354L32.0596 30.6274C32.2781 30.571 32.4966 30.5181 32.7151 30.4723C35.9611 29.771 39.5384 30.0388 43.0629 31.2477C45.4313 32.0583 47.8032 33.306 50.1364 34.9589Z" fill="white"/>
<path d="M22.5434 35.1915C19.5053 37.0031 16.3544 38.8358 12.8512 39.6464C11.9665 39.8543 11.0678 39.9918 10.1585 40.0588C9.84481 40.087 9.53114 40.1011 9.21746 40.1116C9.04124 40.1151 8.86502 40.1187 8.6888 40.1187H8.6747C8.44209 40.1187 8.20948 40.1152 7.97686 40.1046C7.96277 40.1046 7.94867 40.1046 7.93457 40.1011V38.871H7.97686C8.20948 38.8816 8.44209 38.8851 8.6747 38.8851H8.6888C8.86502 38.8851 9.04124 38.8816 9.21746 38.8781C9.53114 38.8675 9.84481 38.8534 10.1585 38.8252C11.0678 38.7582 11.9665 38.6208 12.8512 38.4128C16.0584 37.6692 18.9696 36.0726 21.7715 34.4161L21.8385 34.4831L22.2966 34.9448L22.5434 35.1915Z" fill="white"/>
<path d="M7.93498 37.6375V38.871C5.29165 38.7688 2.63071 38.1238 0.114258 36.9713V35.7378C2.63071 36.8903 5.29165 37.5353 7.93498 37.6375Z" fill="white"/>
<path d="M28.9901 30.4652C26.8684 31.3851 24.8348 32.594 22.847 33.7782C22.491 33.9897 22.1316 34.2047 21.7721 34.4161L21.7227 34.3703L21.691 34.3386L21.6452 34.2928L21.5747 34.2223L21.1165 33.7606L21.0002 33.6478L20.9932 33.6407C21.617 33.2777 22.2338 32.9112 22.847 32.5447C24.5669 31.519 26.3221 30.4758 28.1407 29.6158L28.2606 29.7357L28.2817 29.7568L28.3169 29.7921L28.9161 30.3912L28.9901 30.4652Z" fill="white"/>
<path d="M50.1362 32.4918V33.7254C47.803 32.0724 45.4311 30.8248 43.0627 30.0141C42.8829 29.9542 42.7032 29.8943 42.5234 29.8379V28.6044C42.7032 28.6608 42.8829 28.7207 43.0627 28.7806C45.4311 29.5912 47.803 30.8389 50.1362 32.4918Z" fill="white"/>
<path d="M20.9926 33.6407C18.4303 35.1245 15.7623 36.506 12.8512 37.1792C11.9665 37.3871 11.0678 37.5246 10.1585 37.5916C9.84481 37.6198 9.53114 37.6339 9.21746 37.6444C9.04124 37.648 8.86502 37.6515 8.6888 37.6515H8.6747C8.44209 37.6515 8.20948 37.648 7.97686 37.6374C7.96277 37.6374 7.94867 37.6374 7.93457 37.6339V36.4038H7.97686C8.20948 36.4144 8.44209 36.4179 8.6747 36.4179H8.6888C8.86502 36.4179 9.04124 36.4144 9.21746 36.4109C9.53114 36.4003 9.84481 36.3862 10.1585 36.358C11.0678 36.291 11.9665 36.1536 12.8512 35.9457C15.4663 35.3394 17.8841 34.1658 20.2067 32.8512L20.3864 33.0309L20.8516 33.4997L20.9926 33.6407Z" fill="white"/>
<path d="M42.358 29.785C40.7438 29.2915 39.1261 28.9955 37.5401 28.8968C37.5083 28.8933 37.4766 28.8933 37.4449 28.8897C37.4343 28.8897 37.4238 28.8862 37.4132 28.8862H37.3533C37.0995 28.8721 36.8458 28.8686 36.599 28.8651C36.451 28.8651 36.3065 28.858 36.162 28.858C35.9787 28.858 35.7955 28.8686 35.6122 28.8757C35.4853 28.8827 35.3584 28.8897 35.2316 28.8968C35.2104 28.8968 35.1857 28.8968 35.1646 28.8968C35.1117 28.9003 35.0624 28.9003 35.013 28.9038C34.9813 28.9074 34.9531 28.9074 34.9214 28.9144C34.9073 28.9144 34.8897 28.9144 34.8756 28.9144H34.8509C34.7099 28.925 34.569 28.9391 34.428 28.9532C33.85 29.0166 33.279 29.1083 32.7151 29.2316C32.1724 29.3479 31.6331 29.4959 31.1044 29.6651L30.4947 29.0554L30.3291 28.8897L30.2762 28.8369L30.1846 28.7452C31.0128 28.4386 31.8552 28.1849 32.7151 27.9981C33.6526 27.7972 34.6218 27.6738 35.6052 27.6315H35.7144C35.8342 27.628 35.9541 27.6245 36.0739 27.621C36.2466 27.6174 36.4193 27.6139 36.592 27.6174C37.9242 27.6315 39.2811 27.7795 40.6416 28.065H40.6451L40.6768 28.1003H40.6803L40.8495 28.273H40.853L40.92 28.3435H40.9235L41.935 29.3585H41.9386L42.358 29.7779V29.785Z" fill="white"/>
<path d="M7.93498 35.1704V36.404C5.29165 36.3018 2.63071 35.6568 0.114258 34.5043V33.2708C2.63071 34.4232 5.29165 35.0682 7.93498 35.1704Z" fill="white"/>
<path d="M27.3158 28.7911C25.7898 29.5594 24.3095 30.444 22.8469 31.3111C21.9763 31.8292 21.0987 32.3508 20.2071 32.8512L20.0908 32.7349L19.6467 32.2944L19.5445 32.1886L19.5268 32.171L19.4141 32.0618C20.5807 31.4274 21.719 30.7471 22.8469 30.0775C24.0487 29.3656 25.2646 28.6395 26.5052 27.9805L26.6286 28.1038L26.6568 28.132L27.3158 28.7911Z" fill="white"/>
<path d="M39.1576 26.5848C38.4986 26.4932 37.843 26.4333 37.1945 26.4086C36.7505 26.3874 36.3099 26.3839 35.8729 26.398C35.7354 26.4015 35.6015 26.4051 35.4676 26.4121C35.3336 26.4192 35.1997 26.4297 35.0693 26.4368C34.2693 26.4967 33.4833 26.606 32.715 26.7716C31.5484 27.0254 30.4135 27.4025 29.2998 27.8677L28.7077 27.2756L28.6337 27.2016L28.4434 27.0113C29.8249 26.3769 31.2453 25.8553 32.715 25.5381C33.3564 25.4006 34.0084 25.3019 34.671 25.2385C35.0658 25.1997 35.4676 25.175 35.8729 25.1645C36.3099 25.1504 36.7505 25.1539 37.1945 25.175C37.2932 25.1821 37.3919 25.1856 37.4906 25.1927C37.5893 25.1962 37.688 25.2032 37.7866 25.2138L39.1576 26.5848Z" fill="white"/>
<path d="M50.1362 30.0247V31.2582C47.803 29.6053 45.4311 28.3576 43.0627 27.547C42.8829 27.4871 42.7032 27.4272 42.5234 27.3708V26.1372C42.7032 26.1936 42.8829 26.2535 43.0627 26.3134C45.4311 27.124 47.803 28.3717 50.1362 30.0247Z" fill="white"/>
<path d="M19.4137 32.0618C17.3342 33.1896 15.1702 34.1764 12.8512 34.7121C11.9665 34.9201 11.0678 35.0575 10.1585 35.1245C9.84481 35.1527 9.53114 35.1668 9.21746 35.1774C9.04124 35.1809 8.86502 35.1844 8.6888 35.1844H8.6747C8.44209 35.1844 8.20948 35.1809 7.97686 35.1703C7.96277 35.1703 7.94867 35.1703 7.93457 35.1668V33.9332C9.50647 34.0002 11.0643 33.8627 12.5727 33.5103C14.638 33.031 16.6012 32.1604 18.5008 31.1489L19.4137 32.0618Z" fill="white"/>
</g>
<defs>
<clipPath id="clip0_617_778">
<rect width="50.1351" height="60" fill="white"/>
</clipPath>
</defs>
</svg>
