<svg width="92" height="110" viewBox="0 0 92 110" fill="none" xmlns="http://www.w3.org/2000/svg">
<g clip-path="url(#clip0_617_680)">
<path d="M14.545 91.617H0.207031V88.1343C4.82052 90.2472 9.69892 91.4296 14.545 91.617Z" fill="#ED1B24"/>
<path d="M40.7269 53.2036C38.4977 54.5282 36.2297 55.8722 33.9165 57.1064L32.915 56.1049L14.545 37.7284V62.2109C9.69892 62.0171 4.79467 60.7506 0.207031 58.5021V2.91406L46.917 49.624C44.817 50.7677 42.7558 51.9954 40.7269 53.2036Z" fill="#ED1B24"/>
<path d="M88.9103 91.6172H68.4275L53.6695 76.8527L53.0557 76.2453C55.3043 75.2697 57.6045 74.4684 59.9759 73.958C63.4263 73.2149 67.077 73.0663 70.7988 73.5057L88.9103 91.6172Z" fill="#ED1B24"/>
<path d="M91.915 0V13.9568H36.999L66.9091 43.8604C64.3763 43.8475 61.8886 44.093 59.4978 44.61C56.3382 45.2949 53.3401 46.4386 50.4389 47.8148L2.62402 0H91.915Z" fill="#0F75BD"/>
<path d="M69.2613 46.2124L69.2742 46.2253C69.0933 46.2059 68.9124 46.193 68.7314 46.1865C68.9059 46.1865 69.0804 46.1994 69.2613 46.2124Z" fill="#0F75BD"/>
<path d="M71.7865 48.7388L71.8124 48.7647C70.5976 48.5838 69.3829 48.4675 68.1875 48.4158C69.3764 48.461 70.5782 48.5708 71.7865 48.7388Z" fill="#0F75BD"/>
<path d="M66.1328 50.6514C65.9131 50.6578 65.6934 50.6643 65.4737 50.6708H65.2734C65.5577 50.6578 65.842 50.6514 66.1328 50.6514Z" fill="#0F75BD"/>
<path d="M74.5709 51.5298C72.1414 50.9935 69.7248 50.7027 67.347 50.6575C67.2565 50.651 67.1725 50.6445 67.082 50.6445C69.5245 50.6704 72.0121 50.9418 74.5063 51.4651H74.5127L74.5709 51.5298Z" fill="#0F75BD"/>
<path d="M63.9358 53.0229C63.6645 53.0423 63.3866 53.0682 63.1152 53.094C63.3737 53.0682 63.6321 53.0423 63.8906 53.0229H63.9358Z" fill="#0F75BD"/>
<path d="M68.6465 52.9646C68.5948 52.9581 68.5367 52.9581 68.4785 52.9581H68.5884C68.5884 52.9581 68.6271 52.9646 68.6465 52.9646Z" fill="#0F75BD"/>
<path d="M91.9135 20.8188V52.2991C87.8815 49.5853 83.785 47.5112 79.6819 46.1026C79.1068 45.9023 78.5318 45.7213 77.9567 45.5533V34.7756H64.3359V20.8188H91.9135Z" fill="#0F75BD"/>
<path d="M91.9146 82.1835V89.2911L77.5508 74.9272C78.016 75.0694 78.4812 75.218 78.9465 75.3796C83.2886 76.8657 87.6371 79.153 91.9146 82.1835Z" fill="#0F75BD"/>
<path d="M0 94.2728C1.09199 94.0854 2.62982 93.9497 4.79441 93.9497C6.959 93.9497 8.54206 94.3697 9.58881 95.2032C10.5903 95.9915 11.2623 97.2968 11.2623 98.8346C11.2623 100.372 10.7519 101.671 9.82143 102.556C8.61313 103.694 6.81685 104.211 4.72333 104.211C4.25811 104.211 3.83811 104.185 3.51504 104.139V109.748H0V94.2728ZM3.51504 101.393C3.81873 101.464 4.18703 101.484 4.70395 101.484C6.59069 101.484 7.75376 100.527 7.75376 98.925C7.75376 97.4841 6.75223 96.6248 4.98179 96.6248C4.25811 96.6248 3.7735 96.6958 3.51504 96.7669V101.4V101.393Z" fill="black"/>
<path d="M27.875 101.736C27.875 106.879 24.7541 109.994 20.1729 109.994C15.5918 109.994 12.7939 106.479 12.7939 102.014C12.7939 97.3162 15.7985 93.8011 20.4249 93.8011C25.0513 93.8011 27.8685 97.4066 27.8685 101.736H27.875ZM16.5416 101.943C16.5416 105.012 17.9825 107.176 20.3603 107.176C22.7381 107.176 24.1274 104.895 24.1274 101.846C24.1274 99.0285 22.7769 96.6119 20.3345 96.6119C17.892 96.6119 16.5416 98.8928 16.5416 101.943Z" fill="black"/>
<path d="M32.5792 109.742L28.8574 94.0596H32.6503L33.8392 100.527C34.1881 102.388 34.5112 104.411 34.7697 105.994H34.8149C35.0734 104.295 35.4417 102.408 35.8358 100.482L37.1604 94.0596H40.9274L42.181 100.67C42.5299 102.505 42.7883 104.185 43.021 105.929H43.0662C43.2988 104.185 43.6477 102.343 43.9708 100.482L45.2502 94.0596H48.8557L44.8043 109.742H40.9662L39.6416 102.996C39.3379 101.413 39.0859 99.946 38.8985 98.1561H38.8533C38.5755 99.9266 38.317 101.413 37.9487 102.996L36.4626 109.742H32.5792Z" fill="black"/>
<path d="M53.101 105.716L51.9832 109.741H48.3066L53.101 94.0594H57.7533L62.6188 109.741H58.8001L57.5918 105.716H53.101ZM57.0813 103.06L56.1056 99.7326C55.8278 98.8022 55.5499 97.6391 55.3173 96.7086H55.2721C55.0395 97.6391 54.8069 98.828 54.5484 99.7326L53.618 103.06H57.0878H57.0813Z" fill="black"/>
<path d="M75.6443 109.302C74.9917 109.625 73.5249 109.974 71.6188 109.974C66.1976 109.974 63.4062 106.601 63.4062 102.13C63.4062 96.7799 67.225 93.8011 71.9677 93.8011C73.8027 93.8011 75.1984 94.1759 75.8316 94.499L75.108 97.3162C74.3843 97.0125 73.3828 96.7347 72.1292 96.7347C69.312 96.7347 67.1281 98.434 67.1281 101.923C67.1281 105.063 68.989 107.041 72.1551 107.041C73.2277 107.041 74.4101 106.808 75.108 106.53L75.6443 109.302Z" fill="black"/>
<path d="M91.6299 101.736C91.6299 106.879 88.509 109.994 83.9278 109.994C79.3466 109.994 76.5488 106.479 76.5488 102.014C76.5488 97.3162 79.5534 93.8011 84.1798 93.8011C88.8062 93.8011 91.6234 97.4066 91.6234 101.736H91.6299ZM80.2965 101.943C80.2965 105.012 81.7374 107.176 84.1152 107.176C86.493 107.176 87.8822 104.895 87.8822 101.846C87.8822 99.0285 86.5318 96.6119 84.0894 96.6119C81.6469 96.6119 80.2965 98.8928 80.2965 101.943Z" fill="black"/>
<path d="M53.0553 76.2451C49.1978 77.9251 45.5018 80.1284 41.8834 82.2801C36.1391 85.7047 30.1946 89.2391 23.5587 90.7769C21.071 91.3585 18.5058 91.6428 15.9277 91.6428C15.4689 91.6428 15.0037 91.6363 14.5449 91.6169V89.3554H14.6225C15.0489 89.3748 15.4754 89.3813 15.9018 89.3813H15.9277C16.2507 89.3813 16.5738 89.3748 16.8969 89.3683C17.472 89.3489 18.047 89.3231 18.6221 89.2714C20.2892 89.1486 21.9368 88.8966 23.5587 88.5154C30.1946 86.9776 36.1391 83.4432 41.8834 80.0186C45.0107 78.1577 48.2027 76.258 51.5045 74.6943L52.0667 75.2565L52.2023 75.3922L52.2863 75.4762L53.0553 76.2451Z" fill="#ED1B24"/>
<path d="M14.545 87.0938V89.3553C9.69892 89.1679 4.82052 87.9855 0.207031 85.8726V83.6111C4.82052 85.724 9.69892 86.9064 14.545 87.0938Z" fill="#ED1B24"/>
<path d="M68.3308 71.0371C65.4619 70.895 62.6576 71.1146 59.9761 71.6962C57.0555 72.3294 54.2448 73.3955 51.5051 74.6943L50.6652 73.8543L50.6264 73.8091L49.9932 73.1759C53.1981 71.5476 56.5128 70.1842 59.9761 69.4347C61.9404 69.0147 63.9693 68.7821 66.037 68.7433L66.541 69.2473L66.5539 69.2602L66.7219 69.4282L68.3179 71.0242L68.3308 71.0371Z" fill="#ED1B24"/>
<path d="M91.9141 77.6601V79.9216C87.6366 76.8912 83.2881 74.6038 78.946 73.1177C77.4598 72.6072 75.9737 72.1937 74.4876 71.8642L71.7285 69.1051C74.1257 69.4476 76.5423 70.0356 78.946 70.8562C83.2881 72.3423 87.6366 74.6297 91.9141 77.6601Z" fill="#0F75BD"/>
<path d="M49.9925 73.1758C47.227 74.578 44.5326 76.1804 41.8834 77.757C36.1391 81.1816 30.1946 84.716 23.5587 86.2538C21.9368 86.6351 20.2892 86.8871 18.6221 87.0098C18.047 87.0615 17.472 87.0874 16.8969 87.1068C16.5738 87.1132 16.2507 87.1197 15.9277 87.1197H15.9018C15.4754 87.1197 15.0489 87.1132 14.6225 87.0938C14.5966 87.0938 14.5708 87.0938 14.5449 87.0874V84.8323H14.6225C15.0489 84.8517 15.4754 84.8582 15.9018 84.8582H15.9277C16.2507 84.8582 16.5738 84.8517 16.8969 84.8452C17.472 84.8259 18.047 84.8 18.6221 84.7483C20.2892 84.6256 21.9368 84.3736 23.5587 83.9923C30.1946 82.4545 36.1391 78.9201 41.8834 75.4955C44.0544 74.2032 46.2578 72.898 48.4999 71.6897L49.3205 72.5103L49.3851 72.5685L49.9925 73.1758Z" fill="#ED1B24"/>
<path d="M14.545 82.5709V84.8324C9.69892 84.645 4.82052 83.4625 0.207031 81.3496V79.0881C4.82052 81.201 9.69892 82.3835 14.545 82.5709Z" fill="#ED1B24"/>
<path d="M63.8845 66.5913C62.5599 66.7076 61.2547 66.895 59.9753 67.1728C55.9692 68.0387 52.1698 69.7251 48.4997 71.6894L47.0459 70.2356C51.1683 67.9223 55.4393 65.8934 59.9753 64.9113C60.5956 64.7756 61.2288 64.6658 61.862 64.5688L62.2691 64.9824H62.2756L62.9023 65.6156H62.9088L62.9282 65.635L63.8845 66.5913Z" fill="#ED1B24"/>
<path d="M91.9148 73.1372V75.3987C87.6373 72.3682 83.2888 70.0809 78.9467 68.5947C75.6901 67.4769 72.4077 66.7985 69.1963 66.5723L66.8379 64.2139C70.7923 64.2333 74.8889 64.944 78.9467 66.3332C83.2888 67.8194 87.6373 70.1067 91.9148 73.1372Z" fill="#0F75BD"/>
<path d="M47.0461 70.2359C45.3015 71.2052 43.5827 72.2261 41.8834 73.2341C36.1391 76.6586 30.1946 80.1931 23.5587 81.7309C21.9368 82.1121 20.2892 82.3641 18.6221 82.4869C18.047 82.5386 17.472 82.5644 16.8969 82.5838C16.5738 82.5903 16.2507 82.5967 15.9277 82.5967H15.9018C15.4754 82.5967 15.0489 82.5903 14.6225 82.5709C14.5966 82.5709 14.5708 82.5709 14.5449 82.5644V80.3094H14.6225C15.0489 80.3288 15.4754 80.3352 15.9018 80.3352H15.9277C16.2507 80.3352 16.5738 80.3288 16.8969 80.3223C17.472 80.3029 18.047 80.2771 18.6221 80.2254C20.2892 80.1026 21.9368 79.8506 23.5587 79.4694C30.1946 77.9315 36.1391 74.3971 41.8834 70.9725C43.1111 70.2424 44.3452 69.5058 45.5987 68.7886L47.0461 70.2359Z" fill="#ED1B24"/>
<path d="M14.545 78.0478V80.3093C9.69892 80.1219 4.82052 78.9395 0.207031 76.8266V74.5651C4.82052 76.678 9.69892 77.8604 14.545 78.0478Z" fill="#ED1B24"/>
<path d="M59.9498 62.6566C54.8905 63.7551 50.1607 66.1587 45.5989 68.7886L44.1709 67.3606C48.6293 64.7372 53.2299 62.2237 58.1406 60.8474L58.4572 61.164L59.9498 62.6566Z" fill="#ED1B24"/>
<path d="M91.9148 68.6141V70.8756C87.6373 67.8452 83.2887 65.5578 78.9466 64.0717C75.3476 62.8376 71.7227 62.1397 68.1883 61.9846C67.3741 61.9459 66.5664 61.9394 65.7652 61.9653C65.5714 61.9717 65.3775 61.9782 65.1837 61.9846C64.9963 61.9911 64.8154 62.004 64.6345 62.0169L64.628 62.0105L63.3809 60.757L62.5732 59.9493C63.0966 59.8782 63.6265 59.8265 64.1563 59.7877C64.6861 59.7425 65.2289 59.7167 65.7652 59.7037C66.5664 59.6779 67.3741 59.6844 68.1883 59.7231C71.7227 59.8782 75.3476 60.576 78.9466 61.8102C83.2887 63.2963 87.6373 65.5837 91.9148 68.6141Z" fill="#0F75BD"/>
<path d="M44.1707 67.3606C43.4018 67.8064 42.6394 68.2587 41.8834 68.711C36.1391 72.1356 30.1946 75.67 23.5587 77.2079C21.9368 77.5891 20.2892 77.8411 18.6221 77.9639C18.047 78.0156 17.472 78.0414 16.8969 78.0608C16.5738 78.0672 16.2507 78.0737 15.9277 78.0737H15.9018C15.4754 78.0737 15.0489 78.0673 14.6225 78.0479C14.5966 78.0479 14.5708 78.0479 14.5449 78.0414V75.7864H14.6225C15.0489 75.8057 15.4754 75.8122 15.9018 75.8122H15.9277C16.2507 75.8122 16.5738 75.8057 16.8969 75.7993C17.472 75.7799 18.047 75.754 18.6221 75.7024C20.2892 75.5796 21.9368 75.3276 23.5587 74.9464C30.1946 73.4085 36.1391 69.8741 41.8834 66.4495C42.1741 66.2751 42.4585 66.1071 42.7492 65.9326L43.5698 66.7532L43.7637 66.9471L43.7831 66.9665L43.9446 67.1345L44.1707 67.3606Z" fill="#ED1B24"/>
<path d="M14.545 73.5248V75.7864C9.69892 75.599 4.82052 74.4165 0.207031 72.3036V70.0421C4.82052 72.155 9.69892 73.3375 14.545 73.5248Z" fill="#ED1B24"/>
<path d="M56.4156 59.1223C51.6342 60.7312 47.1305 63.3287 42.7497 65.9327L42.6721 65.8551L42.5235 65.7065L42.2198 65.4028L41.354 64.5434L41.3281 64.5176C41.5155 64.4077 41.6964 64.2979 41.8838 64.1881C46.0256 61.7198 50.2708 59.1933 54.755 57.4617L55.0587 57.7654L56.3252 59.0318L56.4156 59.1223Z" fill="#ED1B24"/>
<path d="M91.9143 64.0911V66.3526C87.6368 63.3221 83.2882 61.0348 78.9461 59.5486C75.3471 58.3145 71.7222 57.6167 68.1878 57.4616C67.3736 57.4228 66.566 57.4164 65.7647 57.4422C65.5451 57.4487 65.3254 57.4551 65.1121 57.4681C64.8924 57.4745 64.6728 57.4874 64.4595 57.5004C63.1543 57.5908 61.8749 57.7588 60.6214 57.9979L58.7734 56.1499C59.174 56.0465 59.5747 55.9496 59.9753 55.8656C65.9263 54.5798 72.4847 55.0708 78.9461 57.2871C83.2882 58.7733 87.6368 61.0606 91.9143 64.0911Z" fill="#0F75BD"/>
<path d="M41.3277 64.5175C35.7579 67.8387 29.9814 71.1986 23.5587 72.6848C21.9368 73.066 20.2892 73.318 18.6221 73.4408C18.047 73.4924 17.472 73.5183 16.8969 73.5377C16.5738 73.5441 16.2507 73.5506 15.9277 73.5506H15.9018C15.4754 73.5506 15.0489 73.5441 14.6225 73.5248C14.5966 73.5248 14.5708 73.5248 14.5449 73.5183V71.2632H14.6225C15.0489 71.2826 15.4754 71.2891 15.9018 71.2891H15.9277C16.2507 71.2891 16.5738 71.2826 16.8969 71.2762C17.472 71.2568 18.047 71.2309 18.6221 71.1792C20.2892 71.0565 21.9368 70.8045 23.5587 70.4232C29.4386 69.0599 34.7758 66.1328 39.9126 63.0959L40.0354 63.2187L40.8754 64.0652L41.3277 64.5175Z" fill="#ED1B24"/>
<path d="M14.545 69.0018V71.2633C9.69892 71.0759 4.82052 69.8935 0.207031 67.7806V65.519C4.82052 67.6319 9.69892 68.8144 14.545 69.0018Z" fill="#ED1B24"/>
<path d="M53.1454 55.8527C49.2556 57.5392 45.5274 59.7555 41.8831 61.9265C41.2305 62.3142 40.5714 62.7084 39.9124 63.0961L39.8219 63.012L39.7637 62.9539L39.6797 62.8699L39.5505 62.7407L38.7105 61.8942L38.4973 61.6875L38.4844 61.6745C39.6281 61.009 40.7588 60.337 41.8831 59.665C45.0363 57.7847 48.2541 55.8721 51.5882 54.2955L51.8079 54.5152L51.8467 54.554L51.9113 54.6186L53.0097 55.7171L53.1454 55.8527Z" fill="#ED1B24"/>
<path d="M91.9148 59.568V61.8295C87.6373 58.7991 83.2887 56.5118 78.9466 55.0256C78.6171 54.9158 78.2875 54.8059 77.958 54.7026V52.441C78.2875 52.5444 78.6171 52.6543 78.9466 52.7641C83.2887 54.2503 87.6373 56.5376 91.9148 59.568Z" fill="#0F75BD"/>
<path d="M38.4847 61.6744C33.7872 64.3947 28.8958 66.9276 23.5587 68.1617C21.9368 68.543 20.2892 68.795 18.6221 68.9177C18.047 68.9694 17.472 68.9953 16.8969 69.0146C16.5738 69.0211 16.2507 69.0276 15.9277 69.0276H15.9018C15.4754 69.0276 15.0489 69.0211 14.6225 69.0017C14.5966 69.0017 14.5708 69.0017 14.5449 68.9953V66.7402H14.6225C15.0489 66.7596 15.4754 66.7661 15.9018 66.7661H15.9277C16.2507 66.7661 16.5738 66.7596 16.8969 66.7531C17.472 66.7337 18.047 66.7079 18.6221 66.6562C20.2892 66.5334 21.9368 66.2814 23.5587 65.9002C28.3531 64.7888 32.7856 62.6372 37.0437 60.2271L37.3733 60.5566L38.2262 61.416L38.4847 61.6744Z" fill="#ED1B24"/>
<path d="M77.6538 54.6056C74.6945 53.701 71.7287 53.1583 68.821 52.9773C68.7629 52.9709 68.7047 52.9709 68.6466 52.9644C68.6272 52.9644 68.6078 52.958 68.5884 52.958H68.4786C68.0133 52.9321 67.5481 52.9256 67.0958 52.9192C66.8244 52.9192 66.5595 52.9063 66.2946 52.9063C65.9586 52.9063 65.6226 52.9256 65.2866 52.9386C65.054 52.9515 64.8214 52.9644 64.5888 52.9773C64.55 52.9773 64.5048 52.9773 64.466 52.9773C64.3691 52.9838 64.2786 52.9838 64.1881 52.9903C64.13 52.9967 64.0783 52.9967 64.0201 53.0096C63.9943 53.0096 63.962 53.0096 63.9361 53.0096H63.8909C63.6325 53.029 63.374 53.0549 63.1155 53.0807C62.0559 53.197 61.0091 53.365 59.9753 53.5912C58.9802 53.8044 57.9916 54.0758 57.0224 54.3859L55.9045 53.2681L55.6009 52.9644L55.5039 52.8675L55.3359 52.6995C56.8544 52.1373 58.3987 51.6721 59.9753 51.3297C61.694 50.9614 63.4709 50.7352 65.2737 50.6577H65.474C65.6937 50.6512 65.9134 50.6448 66.133 50.6383C66.4497 50.6318 66.7663 50.6254 67.0829 50.6318C69.5253 50.6577 72.013 50.9291 74.5071 51.4524H74.5136L74.5717 51.517H74.5782L74.8883 51.8337H74.8948L75.0176 51.9629H75.024L76.8785 53.8238H76.8849L77.6538 54.5927V54.6056Z" fill="#0F75BD"/>
<path d="M14.545 64.4787V66.7402C9.69892 66.5528 4.82052 65.3704 0.207031 63.2575V60.996C4.82052 63.1089 9.69892 64.2913 14.545 64.4787Z" fill="#ED1B24"/>
<path d="M50.0774 52.7835C47.2796 54.1921 44.5658 55.8139 41.8843 57.4034C40.2883 58.3533 38.6794 59.3096 37.0447 60.2271L36.8314 60.0139L36.0173 59.2062L35.8299 59.0124L35.7976 58.98L35.5908 58.7797C37.7296 57.6167 39.8166 56.3696 41.8843 55.1419C44.0876 53.8367 46.3169 52.5057 48.5913 51.2974L48.8174 51.5235L48.8691 51.5752L50.0774 52.7835Z" fill="#ED1B24"/>
<path d="M71.7874 48.7386C70.5791 48.5706 69.3773 48.4608 68.1884 48.4155C67.3742 48.3768 66.5665 48.3703 65.7653 48.3962C65.5133 48.4026 65.2678 48.4091 65.0222 48.422C64.7767 48.4349 64.5312 48.4543 64.2921 48.4672C62.8253 48.5771 61.3844 48.7774 59.9758 49.0811C57.8371 49.5463 55.7565 50.2377 53.7147 51.0906L52.6291 50.0051L52.4935 49.8694L52.1445 49.5205C54.6774 48.3574 57.2814 47.4011 59.9758 46.8196C61.1518 46.5676 62.3472 46.3866 63.5619 46.2703C64.2856 46.1993 65.0222 46.154 65.7653 46.1346C66.5665 46.1088 67.3742 46.1153 68.1884 46.154C68.3693 46.167 68.5502 46.1734 68.7311 46.1863C68.912 46.1928 69.093 46.2057 69.2739 46.2251L71.7874 48.7386Z" fill="#0F75BD"/>
<path d="M91.9148 55.045V57.3065C87.6373 54.2761 83.2887 51.9887 78.9466 50.5026C78.6171 50.3927 78.2875 50.2829 77.958 50.1795V47.918C78.2875 48.0214 78.6171 48.1312 78.9466 48.241C83.2887 49.7272 87.6373 52.0145 91.9148 55.045Z" fill="#0F75BD"/>
<path d="M35.5899 58.7797C31.7777 60.8474 27.8103 62.6566 23.5587 63.6387C21.9368 64.02 20.2892 64.272 18.6221 64.3947C18.047 64.4464 17.472 64.4723 16.8969 64.4917C16.5738 64.4981 16.2507 64.5046 15.9277 64.5046H15.9018C15.4754 64.5046 15.0489 64.4981 14.6225 64.4787C14.5966 64.4787 14.5708 64.4787 14.5449 64.4723V62.2108C17.4267 62.3335 20.2827 62.0815 23.0482 61.4354C26.8346 60.5566 30.4337 58.9606 33.9164 57.1062L35.5899 58.7797Z" fill="#ED1B24"/>
</g>
<defs>
<clipPath id="clip0_617_680">
<rect width="91.9144" height="110" fill="white"/>
</clipPath>
</defs>
</svg>
