<svg width="52" height="52" viewBox="0 0 52 52" fill="none" xmlns="http://www.w3.org/2000/svg">
<rect width="52" height="52" fill="#FAFAFB"/>
<path d="M34 19.3334H36.6667C38.1394 19.3334 39.3333 20.5273 39.3333 22V35.3334C39.3333 36.8061 38.1394 38 36.6667 38H34V19.3334Z" fill="#8A94A0"/>
<path d="M34.0001 16.6667C34.0001 15.1939 32.8062 14 31.3334 14H15.3334C13.8607 14 12.6667 15.1939 12.6667 16.6667V35.3333C12.6667 36.8061 13.8607 38 15.3334 38H36.6667C35.194 38 34.0001 36.8061 34.0001 35.3333V16.6667Z" fill="#D0D5DA"/>
<path d="M16.6667 21.1112C16.6667 20.1293 17.4627 19.3334 18.4445 19.3334H28.2223C29.2041 19.3334 30.0001 20.1293 30.0001 21.1112V21.1112C30.0001 22.093 29.2041 22.8889 28.2223 22.8889H18.4445C17.4627 22.8889 16.6667 22.093 16.6667 21.1112V21.1112Z" fill="white"/>
<path d="M16.6667 27.3333C16.6667 26.597 17.2637 26 18.0001 26H28.6667C29.4031 26 30.0001 26.597 30.0001 27.3333V27.3333C30.0001 28.0697 29.4031 28.6667 28.6667 28.6667H18.0001C17.2637 28.6667 16.6667 28.0697 16.6667 27.3333V27.3333Z" fill="white"/>
<path d="M16.6667 32.6667C16.6667 31.9303 17.2637 31.3334 18.0001 31.3334H28.6667C29.4031 31.3334 30.0001 31.9303 30.0001 32.6667V32.6667C30.0001 33.4031 29.4031 34 28.6667 34H18.0001C17.2637 34 16.6667 33.4031 16.6667 32.6667V32.6667Z" fill="white"/>
</svg>
