<svg width="16" height="17" viewBox="0 0 16 17" fill="none" xmlns="http://www.w3.org/2000/svg">
<path d="M13.456 10.5091C12.8777 9.93827 12.1558 9.93827 11.5813 10.5091C11.143 10.9437 10.7047 11.3783 10.2738 11.8203C10.1559 11.9418 10.0565 11.9676 9.91286 11.8866C9.62926 11.7319 9.32726 11.6067 9.05471 11.4373C7.78406 10.6381 6.71966 9.61048 5.7768 8.454C5.30905 7.87945 4.89287 7.26438 4.6019 6.57197C4.54298 6.43201 4.55402 6.33993 4.6682 6.22576C5.10648 5.80221 5.53372 5.36761 5.96463 4.93301C6.56497 4.32899 6.56497 3.62185 5.96095 3.01414C5.61843 2.66794 5.2759 2.32909 4.93338 1.98289C4.57981 1.62932 4.22992 1.27206 3.87266 0.92217C3.29442 0.358664 2.57255 0.358664 1.99799 0.925854C1.55602 1.36045 1.13247 1.8061 0.683141 2.23334C0.266957 2.62742 0.0570233 3.1099 0.0128267 3.67341C-0.0571512 4.59049 0.167515 5.456 0.484257 6.29942C1.13247 8.04519 2.11953 9.59575 3.31652 11.0174C4.93338 12.94 6.8633 14.4611 9.12101 15.5586C10.1375 16.0521 11.1909 16.4315 12.3363 16.4941C13.1245 16.5383 13.8095 16.3394 14.3583 15.7243C14.734 15.3045 15.1575 14.9214 15.5553 14.52C16.1446 13.9233 16.1483 13.2015 15.5627 12.6122C14.8629 11.9087 14.1594 11.2089 13.456 10.5091Z" fill="#BEE1F9"/>
</svg>
