<svg width="16" height="18" viewBox="0 0 16 18" fill="none" xmlns="http://www.w3.org/2000/svg">
<path d="M15.5 7.33329H0.5M11.3333 0.666626V3.99996M4.66667 0.666626V3.99996M4.5 17.3333H11.5C12.9001 17.3333 13.6002 17.3333 14.135 17.0608C14.6054 16.8211 14.9878 16.4387 15.2275 15.9683C15.5 15.4335 15.5 14.7334 15.5 13.3333V6.33329C15.5 4.93316 15.5 4.2331 15.2275 3.69832C14.9878 3.22791 14.6054 2.84546 14.135 2.60578C13.6002 2.33329 12.9001 2.33329 11.5 2.33329H4.5C3.09987 2.33329 2.3998 2.33329 1.86502 2.60578C1.39462 2.84546 1.01217 3.22791 0.772484 3.69832C0.5 4.2331 0.5 4.93316 0.5 6.33329V13.3333C0.5 14.7334 0.5 15.4335 0.772484 15.9683C1.01217 16.4387 1.39462 16.8211 1.86502 17.0608C2.3998 17.3333 3.09987 17.3333 4.5 17.3333Z" stroke="#9C9D9F" stroke-linecap="round" stroke-linejoin="round"/>
</svg>
